<svg width="90" height="90" fill="none" xmlns="http://www.w3.org/2000/svg"><g clip-path="url(#clip0_278_25195)"><path d="M75.938 88.604v.028a1.406 1.406 0 002.813-.036c-.001-.1.085-9.846 5.624-9.846h.025a1.407 1.407 0 00-.014-2.813c-.585-.01-5.636-.343-5.636-8.437v-.037a1.408 1.408 0 00-2.813.034c0 .345-.09 8.44-5.624 8.44h-.023a1.407 1.407 0 00.007 2.813c.262.007 5.64.276 5.64 9.844v.01zm-1.455-11.09c1.248-.86 2.163-2.093 2.819-3.451.784 1.526 1.815 2.555 2.847 3.248-1.271.98-2.16 2.378-2.78 3.862-.796-1.725-1.842-2.883-2.886-3.66z" fill="#AF8757"/><path d="M11.25 56.261v.028a1.405 1.405 0 002.813-.036c0-.068.071-6.778 4.218-6.778a1.406 1.406 0 100-2.813c-.171 0-4.218-.065-4.218-5.753a1.406 1.406 0 10-2.813 0c0 .235-.048 5.753-4.219 5.753h-.022a1.406 1.406 0 00.008 2.813c.447.01 4.233.306 4.233 6.775v.011zm-.273-8.058a6.808 6.808 0 001.657-1.902 6.884 6.884 0 001.677 1.804c-.668.586-1.202 1.31-1.628 2.102a7.216 7.216 0 00-1.706-2.004zm56.664-10.234a1.406 1.406 0 102.813 0c0-.045.03-4.526 2.672-4.526h.018a1.406 1.406 0 00-.002-2.812c-.455-.013-2.688-.259-2.688-3.784a1.406 1.406 0 10-2.813 0c0 .154-.03 3.784-2.67 3.784h-.019a1.406 1.406 0 00-.002 2.812c.293.012 2.691.244 2.691 4.526zm1.4-6.527c.195.24.402.456.617.646a5.803 5.803 0 00-.606.766 5.808 5.808 0 00-.618-.721c.224-.213.426-.445.608-.69z" fill="#ECD180"/><path d="M23.342 80.262a2.891 2.891 0 002.925.93l19.04-4.797L60.02 89.279a2.89 2.89 0 003.028.496 2.89 2.89 0 001.787-2.493l1.32-19.592L82.96 57.677a2.892 2.892 0 001.407-2.726 2.884 2.884 0 00-1.82-2.468l-18.223-7.311L59.992 26.1a2.891 2.891 0 00-2.156-2.184 2.889 2.889 0 00-2.912.968L42.34 39.956 22.863 38.18a2.89 2.89 0 00-2.743 1.377 2.887 2.887 0 00.021 3.068L30.59 59.252l-7.707 17.975a2.884 2.884 0 00.46 3.035zm9.831-19.903a2.911 2.911 0 00-.215-2.694l-10.439-16.54-1.19.752 1.278-.895 19.478 1.775a2.886 2.886 0 002.496-1.036l12.504-15.039-1.081-.898 1.244.938 4.333 19.073a2.9 2.9 0 001.758 2.053l18.166 7.245.014.167-16.8 10.013a2.91 2.91 0 00-1.414 2.307l-1.333 19.598c-.056.022-.079 0-.097-.016L47.163 74.28c-.722-.632-1.706-.87-2.631-.632l-18.955 4.818.346 1.363-.456-1.49 7.706-17.98z" fill="#ECD180"/><path d="M38.162 57.127a1.405 1.405 0 001.104-2.275l-7.403-9.4a1.406 1.406 0 00-2.21 1.739l7.402 9.4c.279.352.69.536 1.107.536zm.591 3.573a1.405 1.405 0 00-1.848.736l-2.699 6.27a1.408 1.408 0 002.585 1.112l2.699-6.27a1.41 1.41 0 00-.737-1.847zm-5.638 12.612a1.424 1.424 0 001.545-.87 1.42 1.42 0 00-.972-1.896 1.423 1.423 0 00-1.655.85 1.418 1.418 0 001.081 1.917zm-2.281-62.148a2.117 2.117 0 00-1.721-1.451l-8.109-1.177-3.627-7.35A2.111 2.111 0 0015.47 0c-.817 0-1.548.456-1.908 1.187L9.933 8.535 1.824 9.713a2.12 2.12 0 00-1.72 1.451 2.12 2.12 0 00.54 2.181l5.867 5.72-1.383 8.076c-.14.805.187 1.604.848 2.084.374.27.81.409 1.25.409.337 0 .678-.082.991-.248l7.252-3.813 7.25 3.812a2.12 2.12 0 002.245-.16 2.12 2.12 0 00.848-2.084l-1.384-8.075 5.866-5.72a2.12 2.12 0 00.54-2.182zm-8.627 6.138a2.134 2.134 0 00-.614 1.885l1.211 7.065-6.345-3.336a2.128 2.128 0 00-1.981 0L8.13 26.252l1.213-7.068a2.13 2.13 0 00-.615-1.882l-5.133-5.004 7.096-1.031a2.125 2.125 0 001.603-1.165l3.174-6.429 3.171 6.424a2.127 2.127 0 001.606 1.17l7.095 1.03-5.134 5.005z" fill="#ECD180"/><path d="M89.613 18.227l-4.27-5.65 2.234-6.718a2.025 2.025 0 00-.5-2.096 2.029 2.029 0 00-2.1-.476L78.284 5.6l-5.7-4.2a2.032 2.032 0 00-2.146-.17 2.027 2.027 0 00-1.103 1.85l.135 7.08-5.76 4.124a2.026 2.026 0 00-.823 1.988 2.027 2.027 0 001.42 1.62l6.773 2.062 2.14 6.75a2.03 2.03 0 001.95 1.42c.66 0 1.28-.318 1.667-.873l4.053-5.805 7.082.049h.014a2.03 2.03 0 001.823-1.124 2.035 2.035 0 00-.196-2.145zM70.916 3.663c-.002 0-.002 0 0 0zm9.588 14.97h-.015a2.04 2.04 0 00-1.673.872l-3.39 4.854-1.79-5.645a2.04 2.04 0 00-1.35-1.333l-5.664-1.724 4.817-3.45a2.048 2.048 0 00.85-1.694l-.113-5.919 4.767 3.513c.541.4 1.24.505 1.877.287l5.596-1.935-1.868 5.618a2.033 2.033 0 00.308 1.874l3.57 4.724-5.922-.042zM1.282 81.359l4.551 1.957.967 4.857a1.857 1.857 0 001.346 1.44 1.858 1.858 0 001.891-.572l3.267-3.725 4.92.58a1.841 1.841 0 001.787-.838 1.86 1.86 0 00.038-1.971l-2.533-4.26 2.074-4.501a1.86 1.86 0 00-.247-1.958 1.853 1.853 0 00-1.862-.644l-4.833 1.093-3.64-3.362-.001-.002a1.853 1.853 0 00-1.935-.371 1.86 1.86 0 00-1.193 1.572l-.454 4.935-4.324 2.424a1.86 1.86 0 00-.948 1.728 1.86 1.86 0 001.13 1.618zm5.952-3.555c.54-.3.894-.847.95-1.46l.324-3.523 2.597 2.4a1.872 1.872 0 001.68.45l3.449-.78-1.481 3.216a1.86 1.86 0 00.093 1.733l1.807 3.039-3.512-.414a1.873 1.873 0 00-1.623.623l-2.331 2.66-.692-3.474a1.87 1.87 0 00-1.094-1.346l-3.25-1.397 3.083-1.727zm39.172-52.491a4.224 4.224 0 00-4.218-4.22 4.224 4.224 0 00-4.22 4.22 4.224 4.224 0 004.22 4.218 4.224 4.224 0 004.218-4.218zm-5.625 0a1.408 1.408 0 012.813 0 1.408 1.408 0 01-2.813 0z" fill="#AF8757"/></g><defs><clipPath id="clip0_278_25195"><path fill="#fff" d="M0 0h90v90H0z"/></clipPath></defs></svg>