<svg width="90" height="83" fill="none" xmlns="http://www.w3.org/2000/svg"><g clip-path="url(#clip0_278_25383)"><path d="M49.219 82.382H40.78c-.373 0-.73-.148-.994-.412l-2.4-2.4H1.407A1.406 1.406 0 010 78.164v-56.25a1.406 1.406 0 011.406-1.407h1.407a1.406 1.406 0 010 2.813v53.437h35.156c.373 0 .73.149.994.412l2.4 2.4h7.274l2.4-2.4c.264-.263.621-.412.994-.412h35.157v-1.406a1.406 1.406 0 012.812 0v2.813a1.406 1.406 0 01-1.406 1.406h-35.98l-2.401 2.4a1.407 1.407 0 01-.994.412zm39.375-9.843a1.406 1.406 0 01-1.406-1.407V23.32a1.406 1.406 0 110-2.813h1.406A1.406 1.406 0 0190 21.914v49.218a1.406 1.406 0 01-1.406 1.407z" fill="#AF8757"/><path d="M7.031 23.32a1.406 1.406 0 01-1.406-1.406V19.1a1.406 1.406 0 011.406-1.406h1.407a1.406 1.406 0 010 2.812v1.407A1.406 1.406 0 017.03 23.32zm32.344 50.625H7.031a1.406 1.406 0 01-1.406-1.406V26.132a1.406 1.406 0 012.813 0v45h30.937a1.407 1.407 0 010 2.813zm43.594 0H50.625a1.406 1.406 0 110-2.813h30.938V20.507a1.406 1.406 0 110-2.812h1.406a1.406 1.406 0 011.406 1.406V72.54a1.406 1.406 0 01-1.406 1.406zM42.188 28.13a1.408 1.408 0 01-.808-.257 45.748 45.748 0 00-8.192-4.46 1.407 1.407 0 011.113-2.584 48.45 48.45 0 018.695 4.74 1.406 1.406 0 01-.808 2.56zm5.624-.001a1.406 1.406 0 01-.808-2.556 40.87 40.87 0 013.275-2.07 1.405 1.405 0 111.395 2.442 39.408 39.408 0 00-3.056 1.928 1.397 1.397 0 01-.806.256z" fill="#ECD180"/><path d="M71.719 65.853a1.408 1.408 0 01-.141-2.812 68.222 68.222 0 014.36-.318V17.931a76.86 76.86 0 00-2.532.47 1.406 1.406 0 01-.551-2.758c2.606-.521 4.242-.74 4.31-.748a1.406 1.406 0 011.585 1.394V64.1a1.406 1.406 0 01-1.406 1.406c-.023 0-2.25 0-5.485.34a1.576 1.576 0 01-.14.007zm-22.5 10.904H40.78a1.406 1.406 0 01-1.333-.962l-1.266-3.777c-9.403-6.425-25.364-6.51-25.526-6.51A1.406 1.406 0 0111.25 64.1V16.288a1.406 1.406 0 011.59-1.393c2.89.422 5.758.99 8.59 1.704a1.406 1.406 0 11-.672 2.73 93.64 93.64 0 00-6.695-1.398v44.796c4.343.166 17.604 1.172 26.129 7.262.243.173.424.42.516.703l1.087 3.253h6.41l1.087-3.257c.092-.284.273-.53.516-.703 4.219-3.018 10.098-5.16 17.464-6.368a1.407 1.407 0 01.456 2.775 40.333 40.333 0 00-15.916 5.625l-1.266 3.777a1.406 1.406 0 01-1.327.963z" fill="#AF8757"/><path d="M45 76.757a1.406 1.406 0 01-1.406-1.406V58.476a1.406 1.406 0 112.812 0v16.875A1.406 1.406 0 0145 76.757z" fill="#AF8757"/><path d="M59.063 55.664H30.936a1.407 1.407 0 01-1.406-1.407v-5.625a1.406 1.406 0 011.407-1.406h28.125a1.406 1.406 0 011.406 1.406v5.625a1.406 1.406 0 01-1.407 1.407zm-26.72-2.813h25.313V50.04H32.344v2.812zm15.47-8.437h-5.626a1.407 1.407 0 01-1.406-1.407V10.664a1.406 1.406 0 011.407-1.407h5.624a1.406 1.406 0 011.407 1.407v5.625a1.406 1.406 0 01-2.813 0v-4.22h-2.812v29.532h2.812V20.507a1.406 1.406 0 012.813 0v22.5a1.406 1.406 0 01-1.407 1.407zm15.468-11.25c-5.426 0-9.843-3.785-9.843-8.438a1.406 1.406 0 011.406-1.406h16.875a1.406 1.406 0 011.406 1.406c0 4.653-4.417 8.438-9.844 8.438zm-6.809-7.032a6.946 6.946 0 006.81 4.22 6.946 6.946 0 006.808-4.22H56.472z" fill="#ECD180"/><path d="M71.72 26.132a1.407 1.407 0 01-1.207-.682l-8.438-14.062a1.408 1.408 0 01.99-2.138 1.406 1.406 0 011.42.69l8.438 14.062a1.406 1.406 0 01-1.203 2.13z" fill="#ECD180"/><path d="M54.844 26.133a1.405 1.405 0 01-1.204-2.13L62.078 9.94a1.406 1.406 0 012.41 1.448l-8.437 14.063a1.407 1.407 0 01-1.207.681zM26.719 41.601c-5.427 0-9.844-3.784-9.844-8.437a1.406 1.406 0 011.406-1.407h16.875a1.406 1.406 0 011.407 1.407c0 4.653-4.418 8.437-9.844 8.437zm-6.81-7.031a6.946 6.946 0 006.81 4.219 6.946 6.946 0 006.809-4.22H19.91z" fill="#ECD180"/><path d="M35.157 34.57a1.407 1.407 0 01-1.206-.682l-8.438-14.063a1.408 1.408 0 01.99-2.138 1.406 1.406 0 011.42.69l8.438 14.062a1.406 1.406 0 01-1.204 2.13z" fill="#ECD180"/><path d="M18.282 34.57a1.405 1.405 0 01-1.204-2.13l8.437-14.063a1.406 1.406 0 012.41 1.449l-8.437 14.062a1.407 1.407 0 01-1.206.682zm33.749 15.469H37.97a1.406 1.406 0 01-1.407-1.407v-5.625a1.406 1.406 0 011.407-1.406h14.06a1.406 1.406 0 011.407 1.406v5.625a1.406 1.406 0 01-1.407 1.407zm-12.656-2.813h11.25v-2.812h-11.25v2.812zm8.438-31.587a1.406 1.406 0 01-.315-2.778l15.469-3.569a1.407 1.407 0 11.633 2.743l-15.47 3.569a1.46 1.46 0 01-.317.035z" fill="#ECD180"/><path d="M26.72 20.507a1.406 1.406 0 01-.316-2.777l15.47-3.569a1.407 1.407 0 01.632 2.742l-15.469 3.57c-.104.023-.21.034-.318.034z" fill="#ECD180"/></g><defs><clipPath id="clip0_278_25383"><path fill="#fff" transform="translate(0 .82)" d="M0 0h90v82H0z"/></clipPath></defs></svg>