<svg width="90" height="92" fill="none" xmlns="http://www.w3.org/2000/svg"><path d="M82.023 47.045v-8.488a2.556 2.556 0 00-3.47-2.388L58.775 43.73h-11.27a5.12 5.12 0 00-5.075 4.502c-3.596.306-6.43 3.329-6.43 7.003 0 3.675 2.834 6.698 6.43 7.004a5.124 5.124 0 004.184 4.422l6.103 14.982A3.77 3.77 0 0056.222 84h2.844a3.78 3.78 0 003.134-1.663 3.78 3.78 0 00.38-3.526l-4.824-12.07h1.02l19.777 7.562a2.555 2.555 0 003.47-2.388v-8.488c3.268-.603 5.753-3.473 5.753-6.913v-2.557c0-3.44-2.485-6.31-5.753-6.913zm-43.466 8.191a4.48 4.48 0 013.835-4.428v8.855a4.479 4.479 0 01-3.835-4.427zm6.392 6.393V48.844a2.56 2.56 0 012.557-2.556h10.227v17.897H47.506a2.56 2.56 0 01-2.557-2.556zM60.206 79.76a1.21 1.21 0 01-.123 1.144 1.21 1.21 0 01-1.017.54h-2.844c-.501 0-.948-.3-1.137-.765l-5.678-13.937h5.596l5.203 13.018zm19.26-7.844L60.29 64.584V45.889l19.176-7.332v33.359zm5.753-15.401a4.482 4.482 0 01-3.196 4.288V49.67a4.482 4.482 0 013.196 4.288v2.557z" fill="#ECD180"/><path d="M70.443 36.435c.86 0 1.557-.573 1.557-1.279V4.976C72 2.231 69.282 0 65.942 0H14.24C10.9 0 8.182 2.232 8.182 4.975v53.832c0 1.41 1.396 2.557 3.113 2.557h21.791c.86 0 1.557-.573 1.557-1.279s-.697-1.278-1.557-1.278H11.295V16.619h57.592v18.537c0 .706.697 1.279 1.556 1.279zM11.295 14.062V4.976c0-1.333 1.32-2.418 2.944-2.418h51.703c1.624 0 2.945 1.085 2.945 2.418v9.088H11.295z" fill="#E2C579"/><path d="M62.591 6.392a1.92 1.92 0 00-1.917 1.918 1.92 1.92 0 001.917 1.917A1.92 1.92 0 0064.51 8.31a1.92 1.92 0 00-1.918-1.918zm0 2.557a.64.64 0 11.002-1.28.64.64 0 01-.002 1.28zM54.28 6.392a1.92 1.92 0 00-1.917 1.918 1.92 1.92 0 001.918 1.917 1.92 1.92 0 001.918-1.917 1.92 1.92 0 00-1.918-1.918zm0 2.557a.64.64 0 11.002-1.28.64.64 0 01-.001 1.28zM36.434 7.031H15.98a1.278 1.278 0 000 2.557h20.454a1.278 1.278 0 000-2.557z" fill="#ECD180"/><path d="M35.873 22.902a1.28 1.28 0 00-.543-.166c-1.108-.08-2.309.349-3.133 1.117-.713.663-1.105 1.538-1.105 2.463v13.846c0 1.152.595 2.185 1.592 2.764a3.187 3.187 0 001.604.436 3.19 3.19 0 001.585-.425l12.116-6.923c.862-.493 1.42-1.315 1.57-2.316.185-1.23-.29-2.59-1.272-3.637a1.273 1.273 0 00-.299-.236l-12.115-6.923zm11.158 10.415c-.045.293-.199.413-.311.477l-12.115 6.923a.628.628 0 01-.638-.003.628.628 0 01-.319-.552V26.316c0-.08 0-.321.291-.592a1.77 1.77 0 01.965-.431l11.633 6.647c.435.525.543 1.047.494 1.377zM5.114 69.673h17.258v9.588H17.26a1.278 1.278 0 000 2.557h24.929a1.278 1.278 0 000-2.557H24.928v-9.588h12.784a1.278 1.278 0 000-2.556h-32.6a2.56 2.56 0 01-2.556-2.557V19.176a2.56 2.56 0 012.557-2.557 1.278 1.278 0 000-2.556A5.12 5.12 0 000 19.175V64.56a5.12 5.12 0 005.114 5.113zm75.232-36.128c.813 0 1.473-.585 1.473-1.309v-13.09c0-2.888-2.643-5.237-5.891-5.237-.813 0-1.473.586-1.473 1.31 0 .722.66 1.308 1.473 1.308 1.624 0 2.945 1.175 2.945 2.618v13.091c0 .724.66 1.31 1.473 1.31z" fill="#AF8757"/></svg>