<svg width="90" height="91" fill="none" xmlns="http://www.w3.org/2000/svg"><g clip-path="url(#clip0_278_25405)"><path d="M25.5 30.82a15 15 0 1015 15 15.017 15.017 0 00-15-15zm0 27a12 12 0 1112-12 12.014 12.014 0 01-12 12z" fill="#ECD180"/><path d="M25.5 36.82a9 9 0 109 9 9.01 9.01 0 00-9-9zm0 15a6 6 0 110-12 6 6 0 010 12z" fill="#AF8757"/><path d="M85.5.82h-18a4.5 4.5 0 00-4.5 4.5v7.5h-3a4.5 4.5 0 00-4.5 4.5v27h-4.566c-.014-.228-.009-.46-.028-.687a2.884 2.884 0 00-1.82-2.415l-3.171-1.268a21.047 21.047 0 00-1.83-4.411l1.35-3.15a2.88 2.88 0 00-.423-3 24.908 24.908 0 00-3.093-3.093 2.883 2.883 0 00-2.991-.42l-3.15 1.35a21.05 21.05 0 00-4.412-1.83l-1.268-3.174a2.884 2.884 0 00-2.412-1.817 24.5 24.5 0 00-4.376 0 2.884 2.884 0 00-2.415 1.82l-1.267 3.17a21.05 21.05 0 00-4.412 1.83l-3.15-1.35a2.87 2.87 0 00-3 .424 24.908 24.908 0 00-3.093 3.093 2.88 2.88 0 00-.42 2.99l1.35 3.15a21.05 21.05 0 00-1.83 4.412l-3.174 1.27A2.883 2.883 0 00.095 43.63 24.685 24.685 0 000 45.82c0 .732.03 1.465.095 2.187a2.884 2.884 0 001.819 2.415l3.171 1.267a21.047 21.047 0 001.83 4.412l-1.35 3.15a2.88 2.88 0 00.423 3 24.908 24.908 0 003.093 3.093 2.88 2.88 0 002.991.42l3.15-1.35a21.045 21.045 0 004.412 1.83l1.268 3.174a2.883 2.883 0 002.412 1.816c.724.065 1.457.095 2.189.095s1.465-.03 2.187-.095a2.885 2.885 0 002.415-1.82l1.267-3.17a21.045 21.045 0 004.412-1.83l3.15 1.35a2.877 2.877 0 003-.423c.555-.465 1.095-.96 1.613-1.478a23.235 23.235 0 001.48-1.615 2.88 2.88 0 00.42-2.991l-1.35-3.15a21.045 21.045 0 001.83-4.412l3.171-1.267a2.883 2.883 0 001.816-2.412c.02-.228.015-.46.029-.689H55.5V74.32a4.5 4.5 0 004.5 4.5h3v7.5a4.5 4.5 0 004.5 4.5h18a4.5 4.5 0 004.5-4.5v-18a4.5 4.5 0 00-4.5-4.5h-18a4.5 4.5 0 00-4.5 4.5v7.5h-3a1.5 1.5 0 01-1.5-1.5v-27H63v7.5a4.5 4.5 0 004.5 4.5h18a4.5 4.5 0 004.5-4.5v-18a4.5 4.5 0 00-4.5-4.5h-18a4.5 4.5 0 00-4.5 4.5v7.5h-4.5v-27a1.5 1.5 0 011.5-1.5h3v7.5a4.5 4.5 0 004.5 4.5h18a4.5 4.5 0 004.5-4.5v-18a4.5 4.5 0 00-4.5-4.5zM47.923 47.656L44.1 49.183a1.5 1.5 0 00-.9 1.032 18.166 18.166 0 01-2.079 5.01 1.5 1.5 0 00-.096 1.366l1.678 3.723a22.2 22.2 0 01-1.3 1.415c-.454.454-.927.89-1.303 1.266l-3.834-1.65a1.5 1.5 0 00-1.367.096 18.164 18.164 0 01-5.004 2.079 1.501 1.501 0 00-1.032.9l-1.447 3.811c-1.265.116-2.666.059-3.733.056l-1.546-3.867a1.5 1.5 0 00-1.032-.9 18.165 18.165 0 01-5.01-2.08 1.5 1.5 0 00-1.366-.095l-3.723 1.684a22.2 22.2 0 01-1.415-1.3c-.454-.455-.891-.927-1.266-1.304l1.65-3.834a1.5 1.5 0 00-.096-1.366 18.165 18.165 0 01-2.079-5.01 1.5 1.5 0 00-.9-1.032l-3.812-1.448A19.828 19.828 0 013 45.82c0-.642.027-1.283.029-1.817L6.9 42.457a1.5 1.5 0 00.9-1.032 18.167 18.167 0 012.079-5.01 1.5 1.5 0 00.096-1.367l-1.684-3.723a22.2 22.2 0 011.3-1.414c.455-.455.927-.891 1.304-1.266l3.834 1.65a1.5 1.5 0 001.366-.096 18.168 18.168 0 015.01-2.08 1.5 1.5 0 001.032-.9l1.447-3.81c1.265-.116 2.666-.06 3.733-.056l1.546 3.867a1.5 1.5 0 001.032.9 18.168 18.168 0 015.01 2.079 1.5 1.5 0 001.367.096l3.723-1.679c.487.41.96.846 1.414 1.3.455.455.891.928 1.266 1.304l-1.65 3.834a1.5 1.5 0 00.096 1.367 18.165 18.165 0 012.079 5.004 1.5 1.5 0 00.9 1.032l3.811 1.447c.057.633.084 1.274.084 1.916.005.613-.019 1.227-.072 1.836zM66 68.32a1.5 1.5 0 011.5-1.5h18a1.5 1.5 0 011.5 1.5v18a1.5 1.5 0 01-1.5 1.5h-18a1.5 1.5 0 01-1.5-1.5v-18zm0-31.5a1.5 1.5 0 011.5-1.5h18a1.5 1.5 0 011.5 1.5v18a1.5 1.5 0 01-1.5 1.5h-18a1.5 1.5 0 01-1.5-1.5v-18zm21-13.5a1.5 1.5 0 01-1.5 1.5h-18a1.5 1.5 0 01-1.5-1.5v-18a1.5 1.5 0 011.5-1.5h18a1.5 1.5 0 011.5 1.5v18z" fill="#AF8757"/><path d="M79.751 8.988l-4.984 7.479-1.707-1.707a1.5 1.5 0 00-2.121 2.12l3 3a1.5 1.5 0 001.06.44c.048 0 .098 0 .15-.008a1.499 1.499 0 001.1-.66l6-9a1.5 1.5 0 00-2.083-2.079c-.163.11-.305.25-.415.415zM73.94 51.38a1.5 1.5 0 001.06.44c.048 0 .097 0 .15-.008a1.498 1.498 0 001.1-.66l6-9a1.501 1.501 0 00-2.497-1.665l-4.984 7.48-1.707-1.707a1.5 1.5 0 00-2.121 2.12l2.998 3z" fill="#ECD180"/></g><defs><clipPath id="clip0_278_25405"><path fill="#fff" transform="translate(0 .82)" d="M0 0h90v90H0z"/></clipPath></defs></svg>