<svg width="113" height="123" fill="none" xmlns="http://www.w3.org/2000/svg"><path d="M20.58 47.922l50.695.375a.792.792 0 00.012-1.582L19.8 46.333a.79.79 0 00-.796.786l-.198 26.728a.79.79 0 101.58.011l.192-25.936z" fill="#AF8757"/><path d="M102.933 74.547c.031-4.21-3.118-7.684-7.183-8.236l.138-18.675c.02-2.73-1.494-5.118-3.77-6.49-.875-1.204-.974-2.674-.752-4.172.184-1.249.456-3.314 1.575-4.16l1.928.015a1.13 1.13 0 00.017-2.26l-9.601-.07 3.23-15.56a.791.791 0 00-.613-.936L55.771 7.331a.786.786 0 00-.934.615l-.538 2.584L38.66 7.283a.786.786 0 00-.934.614l-4.651 22.4a1.084 1.084 0 00-.579-.186l-8.57-.037c-.25-.022-6.174-.506-9.877 2.947-1.932 1.801-2.886 4.304-2.839 7.439 0 .01-.006.019-.006.028l-.493 66.602c-.003.299.114.589.324.803a1.135 1.135 0 00.797.336l75.495.557c2.145.016 4.177-.757 5.718-2.179 1.565-1.438 2.434-3.362 2.448-5.412l.136-18.519c1.81-.215 3.5-.987 4.828-2.295a8.224 8.224 0 002.476-5.834zM84.817 32.755l6.071.044c-.648 1.154-.894 2.623-1.09 3.912-.194 1.246-.157 2.435.167 3.534-.682-.182-1.386-.314-2.129-.322l-4.5-.034 1.481-7.134zM56.223 9.04l30.584 6.354-5.084 24.485-2.39-.017 3.333-16.054a.789.789 0 00-.44-.878 5.963 5.963 0 01-3.45-5.771.79.79 0 00-.628-.819l-6.754-1.402.01-.047a.793.793 0 00-.612-.936l-14.943-3.102.374-1.813zm11.552 23.324l3.297-15.878 6.117 1.27a7.522 7.522 0 003.807 6.317l-3.277 15.776-1.932-.014c.078-3.21-3.23-6.339-8.012-7.47zm6.395 7.46l-7.931-.058 1.213-5.84c3.907.946 6.78 3.498 6.718 5.898zM39.111 8.99l15.64 3.248 14.944 3.103-5.066 24.41-2.392-.018 3.318-15.978a.79.79 0 00-.442-.878 5.96 5.96 0 01-3.45-5.772.79.79 0 00-.628-.817l-13.911-2.887a.77.77 0 00-.903.5 5.969 5.969 0 01-5.87 3.912.79.79 0 00-.808.629l-4.38 21.093-2.391-.017 6.34-30.528zm17.47 26.376c-1.568-1.51-3.818-2.63-6.34-3.155-5.437-1.096-10.258.799-11 4.376-.203.975-.034 1.992.41 2.98l-2.877-.02L40.96 19.39a7.535 7.535 0 006.477-4.309l12.64 2.624a7.526 7.526 0 003.808 6.319l-3.261 15.7-1.95-.015c.009-1.495-.706-3.006-2.092-4.343zm.487 4.33l-15.65-.116c-.476-.726-.84-1.657-.631-2.672.545-2.622 4.743-4.083 9.132-3.147 2.233.463 4.208 1.437 5.564 2.744 1.064 1.024 1.589 2.134 1.585 3.191zm-41.49-5.017c2.959-2.767 8.095-2.361 8.24-2.352l8.665.04c.06.001.11-.024.167-.033l-1.488 7.171-17.667-.13c.156-1.97.855-3.547 2.084-4.696zm77.656 66.498c-.01 1.419-.621 2.757-1.72 3.77-1.121 1.032-2.601 1.593-4.171 1.58l-74.366-.549.475-64.344 5.31.04h.006l69.05.51c3.225.016 5.835 2.46 5.814 5.435l-.138 18.57-5.254-.038.097-13.184a1.13 1.13 0 10-2.258-.017l-.097 13.185-7.681-.056a8.22 8.22 0 00-5.87 2.39 8.23 8.23 0 00-2.477 5.836c-.03 4.123 2.972 7.574 6.917 8.233a8.28 8.28 0 001.307.115l8.02.058-.095 13.028c-.019 2.505-2.241 4.528-4.953 4.506l-60.953-.45.04-5.436a.796.796 0 00-.784-.798.791.791 0 00-.796.784l-.045 6.227a.79.79 0 00.784.797l61.743.456c3.584.028 6.52-2.699 6.545-6.077l.096-13.028 5.593.042-.139 18.415zm5.638-22.405a5.982 5.982 0 01-4.269 1.74h-.001l-16.408-.121a6.028 6.028 0 01-5.984-6.071 5.985 5.985 0 011.804-4.244 5.981 5.981 0 014.269-1.738l8.801.065h.008s.001-.002.003-.002l7.505.055h.091c.323.002.641.03.952.083 2.87.48 5.054 2.992 5.031 5.99a5.98 5.98 0 01-1.802 4.243z" fill="#E2C579"/><path d="M81.658 71.08a3.892 3.892 0 00-2.76-1.167 3.897 3.897 0 00-2.78 1.127 3.893 3.893 0 00-1.168 2.761 3.925 3.925 0 003.89 3.947 3.922 3.922 0 003.946-3.889 3.896 3.896 0 00-1.128-2.779zm-2.806 5.087a2.34 2.34 0 01-2.32-2.354c.004-.624.25-1.21.695-1.647a2.329 2.329 0 012.03-.64c.483.08.926.309 1.276.664a2.338 2.338 0 01-1.68 3.977zm-52.647-24.45l-2.784-.02a.792.792 0 00-.012 1.582l2.784.02a.79.79 0 00.796-.784.796.796 0 00-.784-.798zm10.542.871a.792.792 0 00-.785-.798l-5.388-.038a.79.79 0 00-.136 1.57.89.89 0 00.125.011l5.389.039a.79.79 0 00.795-.784zm19.52.144a.795.795 0 00-.785-.797l-5.389-.04a.792.792 0 00-.01 1.581l5.388.04a.79.79 0 00.796-.784zm9.76.072a.798.798 0 00-.785-.797l-5.389-.04a.79.79 0 00-.01 1.581l5.388.04a.79.79 0 00.796-.784zm2.79.02a.79.79 0 00.784.797l5.388.039a.792.792 0 00.012-1.581l-5.388-.04a.792.792 0 00-.796.785zm-22.31-.164a.798.798 0 00-.785-.798l-5.388-.038a.79.79 0 00-.136 1.57.89.89 0 00.125.011l5.389.039a.79.79 0 00.795-.784zm32.73 1.02a.89.89 0 00.125.012l2.784.02a.79.79 0 00.796-.784.796.796 0 00-.784-.797l-2.784-.02a.79.79 0 00-.137 1.57zm-53.35 41.152l-2.785-.02a.792.792 0 00-.012 1.582l2.784.02a.79.79 0 00.796-.783.795.795 0 00-.783-.8zm39.038.288l-5.388-.04a.79.79 0 00-.01 1.582l5.388.04a.79.79 0 00.795-.784.794.794 0 00-.785-.797zm4.232 1.604a.89.89 0 00.125.011l5.389.039a.792.792 0 00.012-1.582l-5.388-.04a.79.79 0 00-.137 1.571zm-33.513-1.82l-5.388-.039a.79.79 0 00-.136 1.57.89.89 0 00.125.012l5.388.038a.79.79 0 00.796-.784.8.8 0 00-.785-.797zm9.76.072l-5.389-.038a.79.79 0 00-.135 1.57c.04.006.082.01.125.011l5.388.039a.79.79 0 00.796-.784.793.793 0 00-.785-.798zm9.762.072l-5.389-.04a.792.792 0 00-.01 1.582l5.388.04a.79.79 0 00.796-.784.797.797 0 00-.785-.798zm23.751 1.748a.89.89 0 00.124.011l2.785.021a.79.79 0 10.012-1.581l-2.784-.02a.79.79 0 00-.137 1.57zm16.709-26.889c-.804-.622-1.817.592-1.011 1.215 1.716 1.328 2.478 3.6 1.76 5.676-.331.953 1.1 1.626 1.433.666.948-2.74.134-5.767-2.182-7.557zm-5.171 16.679l-.061 8.204c-.008 1.015 1.566.846 1.572-.163l.06-8.205c.01-1.013-1.563-.845-1.57.164zm-.257 11.344c-.008 1.106-.017 2.211-.024 3.317-.008 1.015 1.564.847 1.572-.163.009-1.105.016-2.21.024-3.317.007-1.014-1.564-.845-1.572.163z" fill="#E2C579"/></svg>