<svg width="470" height="191" fill="none" xmlns="http://www.w3.org/2000/svg"><g filter="url(#filter0_b_278_25176)"><path d="M460 0H10C4.477 0 0 4.477 0 10v30.585a10 10 0 002.608 6.734l13.165 14.452a2 2 0 010 2.694L2.608 78.916A10 10 0 000 85.651V181c0 5.523 4.477 10 10 10h450c5.523 0 10-4.477 10-10V10c0-5.523-4.477-10-10-10z" fill="#272727" fill-opacity=".9"/><path d="M10 .5h450a9.5 9.5 0 019.5 9.5v171a9.5 9.5 0 01-9.5 9.5H10A9.5 9.5 0 01.5 181V85.65a9.5 9.5 0 012.477-6.397l13.166-14.452a2.5 2.5 0 000-3.367L2.977 46.983A9.5 9.5 0 01.5 40.585V10A9.5 9.5 0 0110 .5z" stroke="url(#paint0_linear_278_25176)"/></g><defs><linearGradient id="paint0_linear_278_25176" x1="235" y1="192.098" x2="235" y2="-1.098" gradientUnits="userSpaceOnUse"><stop stop-color="#9F734C"/><stop offset=".13" stop-color="#BA945E"/><stop offset=".28" stop-color="#D1B16E"/><stop offset=".42" stop-color="#E2C579"/><stop offset=".56" stop-color="#ECD180"/><stop offset=".7" stop-color="#F0D683"/><stop offset=".75" stop-color="#E7CC7D"/><stop offset=".84" stop-color="#D2B16E"/><stop offset=".95" stop-color="#AF8757"/><stop offset="1" stop-color="#9F734C"/></linearGradient><filter id="filter0_b_278_25176" x="-4" y="-4" width="478" height="199" filterUnits="userSpaceOnUse" color-interpolation-filters="sRGB"><feFlood flood-opacity="0" result="BackgroundImageFix"/><feGaussianBlur in="BackgroundImageFix" stdDeviation="2"/><feComposite in2="SourceAlpha" operator="in" result="effect1_backgroundBlur_278_25176"/><feBlend in="SourceGraphic" in2="effect1_backgroundBlur_278_25176" result="shape"/></filter></defs></svg>