<svg width="90" height="90" fill="none" xmlns="http://www.w3.org/2000/svg"><path d="M23.863 20.955a1.318 1.318 0 000-2.637h-2.91V15.41a2.912 2.912 0 012.91-2.909h1.409a1.318 1.318 0 000-2.636h-1.41a5.552 5.552 0 00-5.545 5.545v2.91h-2.909a1.318 1.318 0 000 2.636h2.909v9.954a1.318 1.318 0 002.637 0v-9.954h2.909z" fill="#ECD180"/><path d="M70.273 47.951V42.05C81.265 41.366 90 32.207 90 21.046c0-4.776-1.56-9.279-4.51-13.021a1.318 1.318 0 10-2.071 1.632 18.217 18.217 0 013.944 11.389c0 10.15-8.258 18.409-18.409 18.409-10.15 0-18.408-8.259-18.408-18.41 0-10.15 8.258-18.408 18.408-18.408 3.788 0 7.426 1.14 10.52 3.3a1.318 1.318 0 101.51-2.163A20.919 20.919 0 0068.953 0C57.792 0 48.633 8.735 47.95 19.727h-5.9C41.366 8.735 32.207 0 21.046 0 9.44 0 0 9.44 0 21.046c0 11.161 8.735 20.32 19.727 21.003v5.902C8.735 48.634 0 57.793 0 68.954 0 80.56 9.44 90 21.046 90c11.161 0 20.32-8.735 21.003-19.727h5.902C48.634 81.265 57.793 90 68.954 90 80.56 90 90 80.56 90 68.954c0-11.161-8.735-20.32-19.727-21.003zM2.637 21.046c0-10.151 8.258-18.41 18.409-18.41 10.15 0 18.409 8.259 18.409 18.41 0 10.15-8.259 18.409-18.41 18.409-10.15 0-18.408-8.259-18.408-18.41zm18.409 66.317c-10.151 0-18.41-8.258-18.41-18.409 0-10.15 8.259-18.408 18.41-18.408 3.788 0 7.425 1.14 10.52 3.3a1.318 1.318 0 101.508-2.163 20.892 20.892 0 00-10.71-3.73V42.05c10.556-.656 19.029-9.129 19.685-19.685h5.902c.656 10.556 9.129 19.029 19.685 19.685v5.902c-10.556.656-19.029 9.129-19.685 19.685h-5.904a20.795 20.795 0 00-4.467-11.703 1.318 1.318 0 00-2.07 1.633 18.219 18.219 0 013.944 11.389c0 10.15-8.258 18.408-18.408 18.408zm47.908 0c-10.15 0-18.408-8.258-18.408-18.409 0-10.15 8.258-18.408 18.408-18.408 10.151 0 18.41 8.258 18.41 18.408 0 10.151-8.259 18.41-18.41 18.41z" fill="#AF8757"/><path d="M66.235 12.99a2.907 2.907 0 00-2.847.129A2.908 2.908 0 0062 15.609v10.874c0 1.022.519 1.953 1.388 2.49a2.916 2.916 0 002.847.128l10.875-5.438a2.91 2.91 0 001.618-2.617 2.91 2.91 0 00-1.618-2.617L66.235 12.99zm9.696 8.315l-10.875 5.437a.278.278 0 01-.282-.012.277.277 0 01-.137-.247V15.608c0-.133.074-.208.137-.246a.288.288 0 01.151-.045c.04 0 .084.009.13.032l10.876 5.438a.27.27 0 01.16.259.27.27 0 01-.16.259zM26.683 59.182H15.41a4.141 4.141 0 00-4.137 4.136v11.273a4.141 4.141 0 004.137 4.136h11.273a4.141 4.141 0 004.136-4.136V63.318a4.141 4.141 0 00-4.136-4.136zm1.5 15.409c0 .827-.673 1.5-1.5 1.5H15.41c-.827 0-1.5-.673-1.5-1.5V63.318c0-.827.673-1.5 1.5-1.5h11.273c.827 0 1.5.673 1.5 1.5v11.273z" fill="#ECD180"/><path d="M21.045 64.818a4.141 4.141 0 00-4.137 4.136 4.141 4.141 0 004.137 4.137 4.141 4.141 0 004.136-4.136 4.141 4.141 0 00-4.136-4.137zm0 5.636c-.827 0-1.5-.673-1.5-1.5 0-.826.673-1.5 1.5-1.5s1.5.674 1.5 1.5c0 .827-.673 1.5-1.5 1.5zm47.909-12.681c-6.166 0-11.182 5.016-11.182 11.181 0 2.021.538 3.978 1.563 5.701l-1.47 3.673a1.319 1.319 0 001.715 1.714l3.672-1.47a11.117 11.117 0 005.702 1.564c6.165 0 11.182-5.016 11.182-11.182 0-6.165-5.017-11.181-11.182-11.181zm0 19.727a8.496 8.496 0 01-4.819-1.49 1.318 1.318 0 00-1.234-.136l-1.445.578.578-1.445a1.318 1.318 0 00-.136-1.234 8.496 8.496 0 01-1.49-4.818c0-4.712 3.834-8.546 8.546-8.546 4.711 0 8.545 3.834 8.545 8.546 0 4.711-3.834 8.545-8.545 8.545z" fill="#ECD180"/><path d="M71.01 71.011a2.89 2.89 0 01-2.056.852 2.89 2.89 0 01-2.057-.852 2.89 2.89 0 01-.852-2.057c0-.776.302-1.507.852-2.056a1.318 1.318 0 00-1.865-1.865 5.509 5.509 0 00-1.624 3.921c0 1.482.577 2.874 1.624 3.922a5.509 5.509 0 003.922 1.624 5.51 5.51 0 003.921-1.624 1.318 1.318 0 00-1.864-1.865z" fill="#ECD180"/></svg>