<svg width="90" height="91" fill="none" xmlns="http://www.w3.org/2000/svg"><g clip-path="url(#clip0_278_25411)"><path d="M89.415 74.862l-9.025-6.04 1.403-2.68a1.318 1.318 0 00-.165-1.466c-.107-.127-2.55-2.943-8.115-5.794 1.99-4.333 3.593-9.072 4.79-14.178 3.6-15.366 2.302-28.559 2.245-29.113a1.318 1.318 0 00-1.176-1.176c-10.49-1.082-19.04-4.58-24.364-7.324-5.789-2.983-9.13-5.747-9.163-5.774a1.318 1.318 0 00-1.69 0c-.132.11-13.389 11.02-33.528 13.098a1.318 1.318 0 00-1.175 1.176c-.026.249-.62 6.188.05 14.748a1.318 1.318 0 102.628-.205c-.49-6.261-.276-11.161-.14-13.219 10.437-1.25 18.93-4.752 24.286-7.52C40.64 7.139 43.63 5.035 45 4.002c1.369 1.032 4.359 3.137 8.724 5.393 5.356 2.768 13.849 6.27 24.285 7.52.226 3.417.658 14.684-2.273 27.187-1.27 5.417-3.008 10.397-5.192 14.892-.061.126-.124.25-.186.375-.135.272-.271.543-.41.812a58.599 58.599 0 01-1.761 3.18 54.359 54.359 0 01-1.12 1.797l-.063.099a53.95 53.95 0 01-.662.986 50.75 50.75 0 01-2.895 3.826l-.017.02a49.445 49.445 0 01-1.071 1.236l-.096.108c-.18.2-.363.398-.546.594l-.028.03C57.036 77.033 51.447 80.873 45 83.514c-6.312-2.588-13.378-7.018-19.371-14.588a36.641 36.641 0 01-.418-.537c-2.186-2.86-4.127-6.03-5.793-9.47a1.315 1.315 0 00-.137-.224c-3.019-6.282-5.363-13.948-6.6-23.306a1.319 1.319 0 00-2.614.346c1.136 8.586 3.292 16.346 6.42 23.148-5.566 2.851-8.008 5.668-8.116 5.794a1.32 1.32 0 00-.165 1.467l1.403 2.68-9.024 6.039a1.318 1.318 0 00.098 2.25l7.373 4.055v8.145a1.318 1.318 0 001.988 1.135L24.688 81.8c.01-.005.018-.011.027-.017a1.587 1.587 0 00.12-.084l.035-.029c.031-.026.06-.054.089-.082l.014-.013c.034-.036.065-.074.095-.112 0-.002.002-.003.003-.004l.006-.01a1.3 1.3 0 00.083-.127l.016-.028c.026-.047.049-.095.068-.145l.01-.026a1.37 1.37 0 00.04-.13l.009-.035a1.41 1.41 0 00.026-.156l.002-.022a1.31 1.31 0 00-.013-.337c0-.004-.002-.008-.003-.011a1.303 1.303 0 00-.035-.146l-.012-.038a1.3 1.3 0 00-.06-.153l-1.806-3.767a34.991 34.991 0 013.804-1.616c4.865 4.966 10.65 8.798 17.307 11.446a1.318 1.318 0 00.974 0c6.646-2.643 12.44-6.48 17.308-11.446A34.973 34.973 0 0166.6 76.33l-1.806 3.768a1.303 1.303 0 00-.108.336l-.002.011c-.01.054-.014.108-.017.162v.033c-.001.048 0 .095.004.143l.001.021c.006.053.015.105.027.156l.01.035c.01.044.024.088.04.13l.009.027c.02.05.042.097.068.144l.016.028c.025.044.052.086.082.127l.007.01.003.004c.03.039.061.076.095.112l.014.013c.028.029.057.056.088.082l.036.029a1.326 1.326 0 00.12.084l.026.018 14.644 8.645a1.316 1.316 0 001.324.01 1.32 1.32 0 00.664-1.145v-8.145l7.373-4.055a1.318 1.318 0 00.098-2.25zm-78.723 12.14v-6.615c0-.48-.262-.922-.683-1.154l-6.157-3.386 6.987-4.676 4.636 8.854c.025.05.053.096.084.14.013.018.027.033.04.05.02.026.04.054.062.078.023.025.047.047.07.07l.045.043c.03.025.06.048.092.071l.034.025c.035.024.072.046.11.066l.026.015c.04.02.08.039.123.055l.021.008c.044.017.089.03.135.042l.019.005c.029.007.056.016.086.02l3.825.65-9.555 5.64zm8.943-8.417l.095-.068c.068-.05.136-.098.207-.148l.137-.094.223-.153.143-.095c.081-.054.16-.107.245-.162l.094-.059.29-.183.023-.014.639 1.332-2.096-.356zM21.02 74.6l-.01.005-.034.02-.014.007a22.282 22.282 0 00-.466.264l-.175.101-.02.011-.026.016a28.7 28.7 0 00-.461.277l-.07.043-.267.166-.056.036-.006.004a24.103 24.103 0 00-2.404 1.73L12.7 69.043l-1.713-3.274c.96-.905 3.09-2.684 6.651-4.514.137.267.275.533.415.797.07.134.143.267.215.4.182.337.366.673.554 1.005.041.074.081.15.123.223a55.443 55.443 0 004.65 6.925l.118.148c.137.173.275.345.414.516l.216.261a50.064 50.064 0 00.926 1.093A35.47 35.47 0 0021.02 74.6zm43.713-1.976a.08.08 0 01.008-.01c.114-.13.226-.262.338-.393l.205-.24c.172-.203.342-.408.511-.614l.017-.02a53 53 0 002.38-3.136c.101-.144.198-.292.298-.437a50.897 50.897 0 001.591-2.451 55.498 55.498 0 00.74-1.24c.147-.253.292-.508.436-.764l.236-.424a59.673 59.673 0 00.741-1.392l.129-.247c3.536 1.82 5.682 3.61 6.65 4.517L72.987 77.28a24.104 24.104 0 00-2.403-1.73l-.007-.004a13.43 13.43 0 00-.322-.202l-.088-.053a30.083 30.083 0 00-.443-.267l-.027-.016-.02-.01c-.057-.035-.116-.068-.174-.102a36.277 36.277 0 00-.301-.172l-.165-.092-.014-.008-.033-.019-.011-.005a35.516 35.516 0 00-4.247-1.976zm3.915 5.53l.26-.544.024.014.288.183.096.06.245.162.143.094.223.153.136.094.204.146.1.07-2.097.357.378-.79zm11.343 1.08a1.319 1.319 0 00-.683 1.155v6.615l-9.554-5.64 3.824-.65c.014-.002.027-.007.041-.01a1.426 1.426 0 00.255-.079 1.314 1.314 0 00.15-.076l.06-.036a.915.915 0 00.08-.059c.018-.013.036-.026.052-.04.028-.024.053-.05.079-.075.013-.014.028-.027.04-.041a1.3 1.3 0 00.084-.105l.02-.026c.032-.045.06-.092.086-.141l4.636-8.855 6.986 4.676-6.156 3.387z" fill="#AF8757"/><path d="M72.39 22.238a1.318 1.318 0 00-1.175-1.176c-15.204-1.568-25.272-9.824-25.37-9.907a1.319 1.319 0 00-1.69 0c-.1.083-10.168 8.339-25.373 9.907a1.318 1.318 0 00-1.175 1.176c-.026.245-.606 6.075.3 14.037.838 7.375 3.177 18.01 9.55 26.795a1.316 1.316 0 001.84.293c.59-.428.72-1.252.293-1.841-6.023-8.303-8.25-18.44-9.057-25.482-.662-5.774-.505-10.473-.383-12.48 13.049-1.623 22.119-7.688 24.849-9.723 2.73 2.035 11.798 8.1 24.85 9.722.09 1.468.198 4.373-.01 8.093a1.318 1.318 0 002.631.148c.316-5.623-.063-9.403-.08-9.562zM70.833 35.76a1.318 1.318 0 00-1.473 1.14c-2.933 23.18-14.756 32.793-24.362 36.772-4.642-1.92-8.713-4.678-12.106-8.2a1.318 1.318 0 10-1.898 1.83c3.773 3.916 8.32 6.95 13.517 9.017a1.318 1.318 0 00.974 0c8.497-3.38 15.147-9.265 19.766-17.491 3.42-6.091 5.681-13.357 6.724-21.597a1.318 1.318 0 00-1.142-1.473z" fill="#ECD180"/><path d="M59.736 32.56a4.621 4.621 0 00-6.528 0l-11.74 11.738-4.237-4.237a4.621 4.621 0 00-6.528 0 4.622 4.622 0 000 6.528l7.502 7.502a4.585 4.585 0 003.264 1.351c1.233 0 2.392-.48 3.264-1.352l15.003-15.003a4.62 4.62 0 000-6.528zm-1.864 4.664L42.87 52.227a1.97 1.97 0 01-1.4.58 1.967 1.967 0 01-1.4-.58l-7.501-7.502a1.983 1.983 0 010-2.8c.385-.386.892-.58 1.4-.58.507 0 1.014.194 1.4.58l5.169 5.17a1.318 1.318 0 001.864 0l12.67-12.672a1.982 1.982 0 012.801 0 1.983 1.983 0 010 2.8z" fill="#AF8757"/></g><defs><clipPath id="clip0_278_25411"><path fill="#fff" transform="translate(0 .82)" d="M0 0h90v90H0z"/></clipPath></defs></svg>