<svg width="47" height="69" fill="none" xmlns="http://www.w3.org/2000/svg"><path d="M7.501 67.452c-1.731.315-3.56.602-5.3.837-1.432.254-2.525-1.558-1.577-2.702.453-.586.917-1.162 1.375-1.744a105.015 105.015 0 014.292-5.003c2.003-2.169 4.104-4.304 6.408-6.165.078-.062.2.044.13.13l-2.656 3.493c-1.647 2.136-5.693 7.378-7.385 9.569 10.073-5.019 19.113-12.068 26.198-20.82 8.276-10.208 13.74-22.624 15.876-35.581.372-2.192.633-4.398.857-6.614.156-.665.152-3.177.49-2.672 1.018 28.39-16.915 56.083-43.584 66.155 2.77-.353 9.414-1.206 12.1-1.547l4.262-.516a.093.093 0 01.046.179c-3.73 1.388-7.633 2.265-11.532 3.001z" fill="#F0D683"/></svg>