<svg width="43" height="72" fill="none" xmlns="http://www.w3.org/2000/svg"><path d="M35.029 70.048c1.704.44 3.507.858 5.226 1.218 1.41.358 2.631-1.37 1.768-2.58-.409-.617-.83-1.226-1.245-1.839a104.972 104.972 0 00-3.919-5.3c-1.84-2.309-3.78-4.59-5.944-6.614-.073-.067-.202.03-.14.12l2.397 3.677c1.488 2.25 5.144 7.77 6.672 10.078-9.683-5.735-18.189-13.42-24.62-22.663C7.708 35.365 3.157 22.587 1.966 9.508c-.212-2.213-.313-4.432-.376-6.658-.107-.674.079-3.18-.296-2.7-3.07 28.24 12.81 57.16 38.68 69.138-2.737-.553-9.302-1.885-11.957-2.42l-4.213-.823a.093.093 0 00-.059.175c3.62 1.654 7.45 2.812 11.284 3.828z" fill="#F0D683"/></svg>