<svg width="475" height="799" fill="none" xmlns="http://www.w3.org/2000/svg"><path d="M465.492 717.573l-197.385 52.351a4.659 4.659 0 00-2.203 1.313l-23.851 25.35a3.819 3.819 0 01-5.426.138l-26.68-25.626a4.665 4.665 0 00-2.037-1.146l-197.496-52.38a3.817 3.817 0 01-2.84-3.69V48.599c0-.429-.06-.856-.176-1.27L.935 24.486C.245 22.05 2.077 19.63 4.61 19.63h202.546c.901 0 1.781-.26 2.537-.75l26.349-17.063a3.82 3.82 0 014.086-.041l27.705 17.155a4.664 4.664 0 002.456.699H470.56a3.818 3.818 0 013.703 4.749l.411.103-.412-.103-5.789 23.02a4.695 4.695 0 00-.141 1.138v665.347a3.817 3.817 0 01-2.839 3.69z" fill="url(#paint0_linear_278_36286)" stroke="url(#paint1_linear_278_36286)" stroke-width=".848"/></svg>