<svg width="265" height="65" fill="none" xmlns="http://www.w3.org/2000/svg"><g filter="url(#filter0_d_1_114)"><path d="M15.25.91h9.83l6.76 16.476h.342L38.943.91h9.83V30h-7.728V13.182h-.227l-6.477 16.59h-4.66l-6.477-16.704h-.227V30H15.25V.91zM60.072 30H51.55L61.152.91h10.795L81.55 30h-8.523L66.663 8.92h-.227L60.072 30zm-1.59-11.477h16.022v5.909H58.481v-5.91zm43.394-8.012a3.899 3.899 0 00-.582-1.32 3.636 3.636 0 00-.994-.98 4.083 4.083 0 00-1.364-.612 6.305 6.305 0 00-1.69-.213c-1.326 0-2.458.318-3.395.952-.928.635-1.638 1.548-2.13 2.742-.484 1.193-.725 2.632-.725 4.318 0 1.704.232 3.163.696 4.375.464 1.212 1.155 2.14 2.074 2.784.918.644 2.06.966 3.423.966 1.203 0 2.202-.175 2.997-.526.805-.35 1.406-.847 1.804-1.491.398-.644.597-1.402.597-2.273l1.363.142h-6.647V13.75H110.2v4.034c0 2.652-.563 4.92-1.69 6.804-1.117 1.875-2.661 3.314-4.631 4.318-1.96.995-4.209 1.492-6.747 1.492-2.831 0-5.317-.602-7.457-1.804-2.14-1.203-3.812-2.917-5.014-5.142-1.194-2.226-1.79-4.873-1.79-7.94 0-2.406.364-4.537 1.094-6.393.738-1.856 1.76-3.423 3.068-4.701a12.968 12.968 0 014.53-2.912C93.279.843 95.116.51 97.076.51c1.724 0 3.324.247 4.801.739 1.487.483 2.799 1.174 3.935 2.074a10.773 10.773 0 012.77 3.167 10.064 10.064 0 011.278 4.02h-7.983zM113.883 30V.91h20.966v6.363h-13.068v5h11.988v6.363h-11.988v5h13.011V30h-20.909zm24.883 0V.91h12.556c2.16 0 4.049.392 5.668 1.178 1.619.786 2.879 1.918 3.778 3.395.9 1.477 1.35 3.248 1.35 5.313 0 2.083-.464 3.84-1.392 5.27-.919 1.43-2.211 2.509-3.878 3.238-1.657.73-3.594 1.094-5.81 1.094h-7.5V14.26h5.909c.928 0 1.719-.113 2.373-.34.662-.237 1.169-.611 1.519-1.123.36-.511.54-1.179.54-2.002 0-.834-.18-1.511-.54-2.032-.35-.53-.857-.918-1.519-1.165-.654-.255-1.445-.383-2.373-.383h-2.784V30h-7.897zm17.045-13.352L163.084 30h-8.58l-7.102-13.352h8.409zm28.565-6.137a3.899 3.899 0 00-.582-1.32 3.636 3.636 0 00-.994-.98 4.086 4.086 0 00-1.364-.612 6.303 6.303 0 00-1.69-.213c-1.326 0-2.458.318-3.395.952-.928.635-1.638 1.548-2.131 2.742-.483 1.193-.724 2.632-.724 4.318 0 1.704.232 3.163.696 4.375.464 1.212 1.155 2.14 2.074 2.784.918.644 2.059.966 3.423.966 1.203 0 2.202-.175 2.997-.526.805-.35 1.406-.847 1.804-1.491.398-.644.597-1.402.597-2.273l1.363.142h-6.647V13.75H192.7v4.034c0 2.652-.563 4.92-1.69 6.804-1.117 1.875-2.661 3.314-4.631 4.318-1.96.995-4.209 1.492-6.747 1.492-2.831 0-5.317-.602-7.457-1.804-2.14-1.203-3.812-2.917-5.014-5.142-1.194-2.226-1.79-4.873-1.79-7.94 0-2.406.364-4.537 1.093-6.393.739-1.856 1.762-3.423 3.069-4.701a12.96 12.96 0 014.531-2.912c1.714-.663 3.551-.995 5.511-.995 1.724 0 3.324.247 4.801.739 1.487.483 2.799 1.174 3.935 2.074a10.773 10.773 0 012.77 3.167 10.064 10.064 0 011.278 4.02h-7.983zM213.599.91h7.897v18.636c0 2.216-.53 4.134-1.59 5.753-1.052 1.61-2.519 2.855-4.404 3.736-1.884.871-4.072 1.307-6.562 1.307-2.51 0-4.707-.436-6.591-1.307-1.885-.88-3.353-2.126-4.404-3.736-1.041-1.619-1.562-3.537-1.562-5.752V.909h7.898v17.955c0 .9.198 1.704.596 2.414.398.701.947 1.25 1.648 1.648.71.398 1.515.597 2.415.597.909 0 1.714-.2 2.414-.597a4.304 4.304 0 001.648-1.648c.398-.71.597-1.515.597-2.414V.909zm10.856 6.364V.909h25.284v6.364h-8.75V30h-7.784V7.273h-8.75z" fill="#F0D683"/></g><path d="M22.313 60.735l-4.117-5.433h-.716v5.433h-3.164v-13.09h3.164v5.081h.505l4.053-5.082h3.956l-5.043 6.182 5.305 6.91h-3.944zm5.099 3.682v-13.5h3.094v1.681h.095c.128-.298.31-.586.544-.863.238-.277.54-.502.907-.677.371-.18.814-.269 1.33-.269a3.63 3.63 0 011.911.537c.597.358 1.078.91 1.445 1.656.366.745.55 1.696.55 2.85 0 1.113-.177 2.044-.531 2.794-.35.75-.822 1.313-1.42 1.688a3.617 3.617 0 01-1.974.562c-.495 0-.923-.081-1.285-.243a2.796 2.796 0 01-.914-.64 3.07 3.07 0 01-.563-.85h-.064v5.274h-3.125zm3.062-8.59c0 .528.07.988.21 1.38.145.392.352.697.62.914.273.213.6.32.979.32.383 0 .709-.107.977-.32.269-.217.471-.522.608-.914.14-.392.21-.852.21-1.38 0-.53-.07-.987-.21-1.375-.137-.388-.34-.688-.608-.901-.264-.213-.59-.32-.977-.32-.384 0-.71.105-.979.313-.268.21-.475.507-.62.895-.14.388-.21.85-.21 1.387zm13.04 5.094c-1.026 0-1.913-.203-2.658-.608a4.2 4.2 0 01-1.713-1.745c-.397-.758-.595-1.66-.595-2.703 0-1.015.2-1.901.601-2.66a4.33 4.33 0 011.694-1.776c.729-.427 1.587-.64 2.576-.64.699 0 1.338.109 1.918.326.58.218 1.08.54 1.502.965a4.4 4.4 0 01.984 1.58c.234.622.352 1.335.352 2.14v.78H39.64v-1.815h5.625a1.761 1.761 0 00-.236-.888 1.606 1.606 0 00-.633-.608 1.828 1.828 0 00-.914-.223c-.35 0-.663.079-.94.236a1.74 1.74 0 00-.658.633 1.78 1.78 0 00-.256.901v1.848c0 .4.08.752.237 1.054.157.299.381.53.67.697.29.166.636.25 1.036.25.277 0 .529-.039.755-.116.226-.076.42-.19.581-.338a1.4 1.4 0 00.365-.55l2.87.083a3.551 3.551 0 01-.787 1.681c-.4.473-.926.842-1.578 1.106-.652.26-1.407.39-2.263.39zm9.025-.02c-.627 0-1.183-.104-1.669-.313a2.598 2.598 0 01-1.144-.959c-.277-.43-.415-.969-.415-1.617 0-.545.096-1.005.288-1.38.191-.375.456-.68.792-.914a3.73 3.73 0 011.163-.53 7.553 7.553 0 011.407-.25 20.393 20.393 0 001.349-.16c.34-.06.587-.143.74-.25a.538.538 0 00.237-.466v-.032c0-.328-.112-.582-.338-.76-.226-.18-.53-.269-.914-.269-.414 0-.746.09-.998.268a1.183 1.183 0 00-.479.742l-2.883-.102a3.41 3.41 0 01.659-1.598c.358-.473.848-.844 1.47-1.113.626-.272 1.378-.409 2.256-.409.627 0 1.204.075 1.732.224.529.145.989.358 1.381.64.392.276.695.617.908 1.022.217.405.326.867.326 1.387v6.673h-2.94v-1.367h-.077a2.786 2.786 0 01-.672.843c-.268.23-.585.403-.952.518a4.049 4.049 0 01-1.227.172zm.965-2.045c.337 0 .64-.068.908-.205a1.67 1.67 0 00.652-.562c.162-.243.243-.524.243-.844v-.933c-.09.047-.199.09-.326.128a5.61 5.61 0 01-.41.109 8.518 8.518 0 01-.46.09l-.453.07a2.792 2.792 0 00-.755.217 1.19 1.19 0 00-.473.383.94.94 0 00-.16.55c0 .324.115.571.346.741.234.17.53.256.888.256zm5.946-5.548v-2.39h9.205v2.39h-3.139v7.427H62.55v-7.427h-3.1zm13.654 3.381l3.138-5.772h3.004v9.818h-2.96v-5.79l-3.131 5.79h-3.01v-9.818h2.959v5.772zm8.132 4.046v-9.818h4.238c1.266 0 2.263.228 2.991.684.733.452 1.1 1.114 1.1 1.988 0 .507-.207.944-.62 1.31-.41.363-.991.608-1.745.736.665.034 1.216.166 1.655.396.44.23.767.522.985.876.217.353.326.73.326 1.13 0 .58-.156 1.07-.467 1.471-.311.4-.767.705-1.368.914-.597.209-1.33.313-2.199.313h-4.896zm2.908-2.262h1.988c.333 0 .593-.08.78-.237.192-.158.288-.375.288-.652 0-.298-.096-.533-.288-.703-.187-.17-.447-.256-.78-.256h-1.988v1.848zm0-3.542h1.413a1.5 1.5 0 00.582-.102.782.782 0 00.505-.754.714.714 0 00-.314-.614c-.204-.149-.49-.224-.856-.224h-1.33v1.694zm14.491-.326v2.385h-5.037v-2.385h5.037zm-3.963-3.688v9.818h-2.96v-9.818h2.96zm5.849 0v9.818h-2.94v-9.818h2.94zm6.48 10.004c-1.032 0-1.918-.211-2.659-.633a4.358 4.358 0 01-1.707-1.777c-.396-.763-.595-1.647-.595-2.653 0-1.01.199-1.894.595-2.652.4-.763.969-1.356 1.707-1.778.741-.426 1.627-.639 2.659-.639 1.031 0 1.915.213 2.652.64a4.258 4.258 0 011.707 1.776c.401.759.601 1.643.601 2.653 0 1.006-.2 1.89-.601 2.653a4.308 4.308 0 01-1.707 1.777c-.737.422-1.621.633-2.652.633zm.019-2.359c.375 0 .692-.115.952-.345.26-.23.458-.55.595-.959.14-.409.211-.882.211-1.419 0-.545-.071-1.023-.211-1.432-.137-.409-.335-.728-.595-.959a1.385 1.385 0 00-.952-.345c-.388 0-.716.115-.985.345-.264.23-.466.55-.607.96-.136.408-.204.886-.204 1.431 0 .537.068 1.01.204 1.42.141.408.343.728.607.958.269.23.597.345.985.345zm11.132 2.359c-1.027 0-1.914-.203-2.659-.608a4.202 4.202 0 01-1.714-1.745c-.396-.758-.594-1.66-.594-2.703 0-1.015.2-1.901.601-2.66a4.33 4.33 0 011.694-1.776c.728-.427 1.587-.64 2.576-.64.699 0 1.338.109 1.917.326.58.218 1.081.54 1.502.965.422.427.75.953.985 1.58.234.622.351 1.335.351 2.14v.78h-8.533v-1.815h5.625a1.762 1.762 0 00-.236-.888 1.614 1.614 0 00-.633-.608 1.827 1.827 0 00-.914-.223c-.35 0-.663.079-.94.236a1.773 1.773 0 00-.914 1.534v1.848c0 .4.079.752.236 1.054.158.299.382.53.672.697.289.166.635.25 1.035.25.277 0 .529-.039.754-.116.226-.076.42-.19.582-.338.162-.15.283-.333.364-.55l2.87.083a3.546 3.546 0 01-.786 1.681c-.4.473-.927.842-1.579 1.106-.652.26-1.406.39-2.262.39zm10.123-.186v-13.09h5.408c.98 0 1.826.191 2.537.575.716.379 1.268.91 1.656 1.591.388.678.582 1.466.582 2.365 0 .904-.199 1.694-.595 2.372a3.985 3.985 0 01-1.681 1.566c-.729.37-1.594.556-2.595.556h-3.337v-2.493h2.749c.477 0 .875-.083 1.195-.25.324-.165.569-.398.735-.696a2.16 2.16 0 00.249-1.055c0-.404-.083-.754-.249-1.048a1.671 1.671 0 00-.735-.69c-.324-.162-.722-.243-1.195-.243h-1.56v10.54h-3.164zm11.742 0v-13.09h5.408c.98 0 1.826.176 2.538.53.715.35 1.267.852 1.655 1.509.388.652.582 1.425.582 2.32 0 .907-.198 1.679-.595 2.314-.396.63-.959 1.112-1.687 1.444-.729.328-1.592.492-2.589.492h-3.42v-2.492h2.832c.477 0 .876-.062 1.195-.186.324-.128.569-.32.735-.575.167-.26.25-.592.25-.997s-.083-.74-.25-1.004a1.499 1.499 0 00-.735-.6c-.324-.137-.722-.205-1.195-.205h-1.56v10.54h-3.164zm7.37-5.983l3.26 5.983h-3.452l-3.196-5.983h3.388zm10.832-.517v2.41h-6.06v-2.41h6.06zm4.974 6.666c-.626 0-1.182-.104-1.668-.313a2.594 2.594 0 01-1.144-.959c-.277-.43-.416-.969-.416-1.617 0-.545.096-1.005.288-1.38.192-.375.456-.68.792-.914a3.735 3.735 0 011.164-.53 7.545 7.545 0 011.406-.25 20.426 20.426 0 001.349-.16c.341-.06.588-.143.741-.25a.537.537 0 00.237-.466v-.032c0-.328-.113-.582-.339-.76-.226-.18-.531-.269-.914-.269-.413 0-.746.09-.997.268a1.185 1.185 0 00-.48.742l-2.882-.102c.085-.597.304-1.13.658-1.598.358-.473.848-.844 1.47-1.113.626-.272 1.379-.409 2.256-.409.627 0 1.204.075 1.733.224a4.29 4.29 0 011.38.64c.392.276.695.617.908 1.022.217.405.326.867.326 1.387v6.673h-2.94v-1.367h-.077a2.786 2.786 0 01-.671.843 2.68 2.68 0 01-.953.518 4.046 4.046 0 01-1.227.172zm.965-2.045c.337 0 .64-.068.908-.205a1.67 1.67 0 00.652-.562c.162-.243.243-.524.243-.844v-.933a1.88 1.88 0 01-.326.128c-.124.038-.26.075-.409.109a7.417 7.417 0 01-.46.09l-.454.07a2.784 2.784 0 00-.754.217 1.192 1.192 0 00-.474.383.943.943 0 00-.159.55c0 .324.115.571.345.741.234.17.53.256.888.256zm13.756-7.939v2.39h-3.918v7.428h-3.024v-9.818h6.942zm5.769 10.004c-1.027 0-1.913-.203-2.659-.608a4.193 4.193 0 01-1.713-1.745c-.397-.758-.595-1.66-.595-2.703 0-1.015.201-1.901.601-2.66a4.34 4.34 0 011.694-1.776c.729-.427 1.587-.64 2.576-.64.699 0 1.338.109 1.918.326a4.15 4.15 0 011.502.965 4.4 4.4 0 01.984 1.58c.234.622.352 1.335.352 2.14v.78h-8.534v-1.815h5.625a1.762 1.762 0 00-.236-.888 1.614 1.614 0 00-.633-.608 1.827 1.827 0 00-.914-.223c-.35 0-.663.079-.94.236a1.739 1.739 0 00-.658.633 1.783 1.783 0 00-.256.901v1.848c0 .4.079.752.237 1.054a1.7 1.7 0 00.671.697c.29.166.635.25 1.035.25.277 0 .529-.039.755-.116a1.62 1.62 0 00.581-.338 1.4 1.4 0 00.365-.55l2.87.083a3.557 3.557 0 01-.787 1.681c-.4.473-.926.842-1.578 1.106-.652.26-1.407.39-2.263.39zm13.179-6.316v2.385h-5.037v-2.385h5.037zm-3.963-3.688v9.818h-2.96v-9.818h2.96zm5.848 0v9.818h-2.94v-9.818h2.94zm1.029 2.39v-2.39h9.205v2.39h-3.139v7.428h-2.965v-7.427h-3.101zm14.979 7.614c-1.036 0-1.924-.213-2.666-.64a4.322 4.322 0 01-1.7-1.776c-.396-.763-.595-1.645-.595-2.647 0-1.005.199-1.888.595-2.646.4-.763.969-1.357 1.706-1.784.742-.426 1.626-.639 2.653-.639.908 0 1.698.164 2.372.492a3.771 3.771 0 011.585 1.394c.383.597.586 1.298.607 2.103h-2.921c-.06-.503-.23-.897-.511-1.183-.277-.285-.64-.428-1.087-.428-.362 0-.68.102-.952.307-.273.2-.486.499-.64.895-.149.392-.223.878-.223 1.457 0 .58.074 1.07.223 1.47.154.397.367.697.64.902.272.2.59.3.952.3.29 0 .545-.062.767-.185.226-.124.411-.305.556-.544.145-.242.237-.536.275-.882h2.921c-.03.81-.232 1.517-.607 2.123a3.766 3.766 0 01-1.566 1.412c-.669.333-1.464.499-2.384.499zm5.535-7.613v-2.39h9.205v2.39h-3.139v7.427h-2.966v-7.427h-3.1zm10.694 7.427v-9.818h4.238c1.266 0 2.263.228 2.991.684.733.452 1.1 1.114 1.1 1.988 0 .507-.207.944-.62 1.31-.409.363-.991.608-1.745.736.665.034 1.216.166 1.655.396.439.23.767.522.985.876.217.353.326.73.326 1.13 0 .58-.156 1.07-.467 1.471-.311.4-.767.705-1.368.914-.596.209-1.329.313-2.199.313h-4.896zm2.908-2.262h1.988c.333 0 .593-.08.78-.237.192-.158.288-.375.288-.652 0-.298-.096-.533-.288-.703-.187-.17-.447-.256-.78-.256h-1.988v1.848zm0-3.542h1.413a1.5 1.5 0 00.582-.102.804.804 0 00.37-.294.78.78 0 00.135-.46.714.714 0 00-.314-.614c-.204-.149-.49-.224-.856-.224h-1.33v1.694zm12.152 5.99c-1.032 0-1.918-.211-2.659-.633a4.358 4.358 0 01-1.707-1.777c-.396-.763-.595-1.647-.595-2.653 0-1.01.199-1.894.595-2.652.4-.763.969-1.356 1.707-1.778.741-.426 1.627-.639 2.659-.639 1.031 0 1.915.213 2.652.64a4.258 4.258 0 011.707 1.776c.401.759.601 1.643.601 2.653 0 1.006-.2 1.89-.601 2.653a4.308 4.308 0 01-1.707 1.777c-.737.422-1.621.633-2.652.633zm.019-2.359c.375 0 .692-.115.952-.345.26-.23.458-.55.595-.959.14-.409.211-.882.211-1.419 0-.545-.071-1.023-.211-1.432-.137-.409-.335-.728-.595-.959a1.385 1.385 0 00-.952-.345c-.388 0-.716.115-.985.345-.264.23-.466.55-.607.96-.136.408-.204.886-.204 1.431 0 .537.068 1.01.204 1.42.141.408.343.728.607.958.269.23.597.345.985.345z" fill="#fff"/><defs><filter id="filter0_d_1_114" x="15.25" y=".511" width="234.887" height="30.285" filterUnits="userSpaceOnUse" color-interpolation-filters="sRGB"><feFlood flood-opacity="0" result="BackgroundImageFix"/><feColorMatrix in="SourceAlpha" values="0 0 0 0 0 0 0 0 0 0 0 0 0 0 0 0 0 0 127 0" result="hardAlpha"/><feOffset dx=".399" dy=".399"/><feComposite in2="hardAlpha" operator="out"/><feColorMatrix values="0 0 0 0 0.845991 0 0 0 0 0.670872 0 0 0 0 0.405371 0 0 0 1 0"/><feBlend in2="BackgroundImageFix" result="effect1_dropShadow_1_114"/><feBlend in="SourceGraphic" in2="effect1_dropShadow_1_114" result="shape"/></filter></defs></svg>