<svg width="320" height="377" fill="none" xmlns="http://www.w3.org/2000/svg"><path fill="#272727" d="M.043.369h3.1v3.1h-3.1zm9.299 0h3.1v3.1h-3.1zm9.299 0h3.1v3.1h-3.1zm9.298 0h3.1v3.1h-3.1zm9.299 0h3.1v3.1h-3.1zm9.299 0h3.1v3.1h-3.1zm9.299 0h3.1v3.1h-3.1zm9.299 0h3.1v3.1h-3.1zm9.299 0h3.1v3.1h-3.1zm9.298 0h3.1v3.1h-3.1zm9.299 0h3.1v3.1h-3.1zm9.299 0h3.1v3.1h-3.1zm9.299 0h3.1v3.1h-3.1zm9.299 0h3.1v3.1h-3.1zm9.299 0h3.1v3.1h-3.1zm9.298 0h3.1v3.1h-3.1zm9.299 0h3.1v3.1h-3.1zm9.299 0h3.1v3.1h-3.1zm9.299 0h3.1v3.1h-3.1zm9.299 0h3.1v3.1h-3.1zm9.299 0h3.1v3.1h-3.1zm9.298 0h3.1v3.1h-3.1zm9.299 0h3.1v3.1h-3.1zm9.299 0h3.1v3.1h-3.1zm9.299 0h3.1v3.1h-3.1zm9.299 0h3.1v3.1h-3.1zm9.298 0h3.1v3.1h-3.1zm9.299 0h3.1v3.1h-3.1zm9.299 0h3.1v3.1h-3.1zm9.299 0h3.1v3.1h-3.1zm9.299 0h3.1v3.1h-3.1zm9.299 0h3.1v3.1h-3.1zm9.298 0h3.1v3.1h-3.1zm9.299 0h3.1v3.1h-3.1zm9.299 0h3.1v3.1h-3.1zM.043 8.473h3.1v3.1h-3.1zm9.299 0h3.1v3.1h-3.1zm9.299 0h3.1v3.1h-3.1zm9.298 0h3.1v3.1h-3.1zm9.299 0h3.1v3.1h-3.1zm9.299 0h3.1v3.1h-3.1zm9.299 0h3.1v3.1h-3.1zm9.299 0h3.1v3.1h-3.1zm9.299 0h3.1v3.1h-3.1zm9.298 0h3.1v3.1h-3.1zm9.299 0h3.1v3.1h-3.1zm9.299 0h3.1v3.1h-3.1zm9.299 0h3.1v3.1h-3.1zm9.299 0h3.1v3.1h-3.1zm9.299 0h3.1v3.1h-3.1zm9.298 0h3.1v3.1h-3.1zm9.299 0h3.1v3.1h-3.1zm9.299 0h3.1v3.1h-3.1zm9.299 0h3.1v3.1h-3.1zm9.299 0h3.1v3.1h-3.1zm9.299 0h3.1v3.1h-3.1zm9.298 0h3.1v3.1h-3.1zm9.299 0h3.1v3.1h-3.1zm9.299 0h3.1v3.1h-3.1zm9.299 0h3.1v3.1h-3.1zm9.299 0h3.1v3.1h-3.1zm9.298 0h3.1v3.1h-3.1zm9.299 0h3.1v3.1h-3.1zm9.299 0h3.1v3.1h-3.1zm9.299 0h3.1v3.1h-3.1zm9.299 0h3.1v3.1h-3.1zm9.299 0h3.1v3.1h-3.1zm9.298 0h3.1v3.1h-3.1zm9.299 0h3.1v3.1h-3.1zm9.299 0h3.1v3.1h-3.1zM.043 16.575h3.1v3.1h-3.1zm9.299 0h3.1v3.1h-3.1zm9.299 0h3.1v3.1h-3.1zm9.298 0h3.1v3.1h-3.1zm9.299 0h3.1v3.1h-3.1zm9.299 0h3.1v3.1h-3.1zm9.299 0h3.1v3.1h-3.1zm9.299 0h3.1v3.1h-3.1zm9.299 0h3.1v3.1h-3.1zm9.298 0h3.1v3.1h-3.1zm9.299 0h3.1v3.1h-3.1zm9.299 0h3.1v3.1h-3.1zm9.299 0h3.1v3.1h-3.1zm9.299 0h3.1v3.1h-3.1zm9.299 0h3.1v3.1h-3.1zm9.298 0h3.1v3.1h-3.1zm9.299 0h3.1v3.1h-3.1zm9.299 0h3.1v3.1h-3.1zm9.299 0h3.1v3.1h-3.1zm9.299 0h3.1v3.1h-3.1zm9.299 0h3.1v3.1h-3.1zm9.298 0h3.1v3.1h-3.1zm9.299 0h3.1v3.1h-3.1zm9.299 0h3.1v3.1h-3.1zm9.299 0h3.1v3.1h-3.1zm9.299 0h3.1v3.1h-3.1zm9.298 0h3.1v3.1h-3.1zm9.299 0h3.1v3.1h-3.1zm9.299 0h3.1v3.1h-3.1zm9.299 0h3.1v3.1h-3.1zm9.299 0h3.1v3.1h-3.1zm9.299 0h3.1v3.1h-3.1zm9.298 0h3.1v3.1h-3.1zm9.299 0h3.1v3.1h-3.1zm9.299 0h3.1v3.1h-3.1zM.043 24.679h3.1v3.1h-3.1zm9.299 0h3.1v3.1h-3.1zm9.299 0h3.1v3.1h-3.1zm9.298 0h3.1v3.1h-3.1zm9.299 0h3.1v3.1h-3.1zm9.299 0h3.1v3.1h-3.1zm9.299 0h3.1v3.1h-3.1zm9.299 0h3.1v3.1h-3.1zm9.299 0h3.1v3.1h-3.1zm9.298 0h3.1v3.1h-3.1zm9.299 0h3.1v3.1h-3.1zm9.299 0h3.1v3.1h-3.1zm9.299 0h3.1v3.1h-3.1zm9.299 0h3.1v3.1h-3.1zm9.299 0h3.1v3.1h-3.1zm9.298 0h3.1v3.1h-3.1zm9.299 0h3.1v3.1h-3.1zm9.299 0h3.1v3.1h-3.1zm9.299 0h3.1v3.1h-3.1zm9.299 0h3.1v3.1h-3.1zm9.299 0h3.1v3.1h-3.1zm9.298 0h3.1v3.1h-3.1zm9.299 0h3.1v3.1h-3.1zm9.299 0h3.1v3.1h-3.1zm9.299 0h3.1v3.1h-3.1zm9.299 0h3.1v3.1h-3.1zm9.298 0h3.1v3.1h-3.1zm9.299 0h3.1v3.1h-3.1zm9.299 0h3.1v3.1h-3.1zm9.299 0h3.1v3.1h-3.1zm9.299 0h3.1v3.1h-3.1zm9.299 0h3.1v3.1h-3.1zm9.298 0h3.1v3.1h-3.1zm9.299 0h3.1v3.1h-3.1zm9.299 0h3.1v3.1h-3.1zM.043 32.781h3.1v3.1h-3.1zm9.299 0h3.1v3.1h-3.1zm9.299 0h3.1v3.1h-3.1zm9.298 0h3.1v3.1h-3.1zm9.299 0h3.1v3.1h-3.1zm9.299 0h3.1v3.1h-3.1zm9.299 0h3.1v3.1h-3.1zm9.299 0h3.1v3.1h-3.1zm9.299 0h3.1v3.1h-3.1zm9.298 0h3.1v3.1h-3.1zm9.299 0h3.1v3.1h-3.1zm9.299 0h3.1v3.1h-3.1zm9.299 0h3.1v3.1h-3.1zm9.299 0h3.1v3.1h-3.1zm9.299 0h3.1v3.1h-3.1zm9.298 0h3.1v3.1h-3.1zm9.299 0h3.1v3.1h-3.1zm9.299 0h3.1v3.1h-3.1zm9.299 0h3.1v3.1h-3.1zm9.299 0h3.1v3.1h-3.1zm9.299 0h3.1v3.1h-3.1zm9.298 0h3.1v3.1h-3.1zm9.299 0h3.1v3.1h-3.1zm9.299 0h3.1v3.1h-3.1zm9.299 0h3.1v3.1h-3.1zm9.299 0h3.1v3.1h-3.1zm9.298 0h3.1v3.1h-3.1zm9.299 0h3.1v3.1h-3.1zm9.299 0h3.1v3.1h-3.1zm9.299 0h3.1v3.1h-3.1zm9.299 0h3.1v3.1h-3.1zm9.299 0h3.1v3.1h-3.1zm9.298 0h3.1v3.1h-3.1zm9.299 0h3.1v3.1h-3.1zm9.299 0h3.1v3.1h-3.1zM.043 40.885h3.1v3.1h-3.1zm9.299 0h3.1v3.1h-3.1zm9.299 0h3.1v3.1h-3.1zm9.298 0h3.1v3.1h-3.1zm9.299 0h3.1v3.1h-3.1zm9.299 0h3.1v3.1h-3.1zm9.299 0h3.1v3.1h-3.1zm9.299 0h3.1v3.1h-3.1zm9.299 0h3.1v3.1h-3.1zm9.298 0h3.1v3.1h-3.1zm9.299 0h3.1v3.1h-3.1zm9.299 0h3.1v3.1h-3.1zm9.299 0h3.1v3.1h-3.1zm9.299 0h3.1v3.1h-3.1zm9.299 0h3.1v3.1h-3.1zm9.298 0h3.1v3.1h-3.1zm9.299 0h3.1v3.1h-3.1zm9.299 0h3.1v3.1h-3.1zm9.299 0h3.1v3.1h-3.1zm9.299 0h3.1v3.1h-3.1zm9.299 0h3.1v3.1h-3.1zm9.298 0h3.1v3.1h-3.1zm9.299 0h3.1v3.1h-3.1zm9.299 0h3.1v3.1h-3.1zm9.299 0h3.1v3.1h-3.1zm9.299 0h3.1v3.1h-3.1zm9.298 0h3.1v3.1h-3.1zm9.299 0h3.1v3.1h-3.1zm9.299 0h3.1v3.1h-3.1zm9.299 0h3.1v3.1h-3.1zm9.299 0h3.1v3.1h-3.1zm9.299 0h3.1v3.1h-3.1zm9.298 0h3.1v3.1h-3.1zm9.299 0h3.1v3.1h-3.1zm9.299 0h3.1v3.1h-3.1zM.043 48.987h3.1v3.1h-3.1zm9.299 0h3.1v3.1h-3.1zm9.299 0h3.1v3.1h-3.1zm9.298 0h3.1v3.1h-3.1zm9.299 0h3.1v3.1h-3.1zm9.299 0h3.1v3.1h-3.1zm9.299 0h3.1v3.1h-3.1zm9.299 0h3.1v3.1h-3.1zm9.299 0h3.1v3.1h-3.1zm9.298 0h3.1v3.1h-3.1zm9.299 0h3.1v3.1h-3.1zm9.299 0h3.1v3.1h-3.1zm9.299 0h3.1v3.1h-3.1zm9.299 0h3.1v3.1h-3.1zm9.299 0h3.1v3.1h-3.1zm9.298 0h3.1v3.1h-3.1zm9.299 0h3.1v3.1h-3.1zm9.299 0h3.1v3.1h-3.1zm9.299 0h3.1v3.1h-3.1zm9.299 0h3.1v3.1h-3.1zm9.299 0h3.1v3.1h-3.1zm9.298 0h3.1v3.1h-3.1zm9.299 0h3.1v3.1h-3.1zm9.299 0h3.1v3.1h-3.1zm9.299 0h3.1v3.1h-3.1zm9.299 0h3.1v3.1h-3.1zm9.298 0h3.1v3.1h-3.1zm9.299 0h3.1v3.1h-3.1zm9.299 0h3.1v3.1h-3.1zm9.299 0h3.1v3.1h-3.1zm9.299 0h3.1v3.1h-3.1zm9.299 0h3.1v3.1h-3.1zm9.298 0h3.1v3.1h-3.1zm9.299 0h3.1v3.1h-3.1zm9.299 0h3.1v3.1h-3.1zM.043 57.091h3.1v3.1h-3.1zm9.299 0h3.1v3.1h-3.1zm9.299 0h3.1v3.1h-3.1zm9.298 0h3.1v3.1h-3.1zm9.299 0h3.1v3.1h-3.1zm9.299 0h3.1v3.1h-3.1zm9.299 0h3.1v3.1h-3.1zm9.299 0h3.1v3.1h-3.1zm9.299 0h3.1v3.1h-3.1zm9.298 0h3.1v3.1h-3.1zm9.299 0h3.1v3.1h-3.1zm9.299 0h3.1v3.1h-3.1zm9.299 0h3.1v3.1h-3.1zm9.299 0h3.1v3.1h-3.1zm9.299 0h3.1v3.1h-3.1zm9.298 0h3.1v3.1h-3.1zm9.299 0h3.1v3.1h-3.1zm9.299 0h3.1v3.1h-3.1zm9.299 0h3.1v3.1h-3.1zm9.299 0h3.1v3.1h-3.1zm9.299 0h3.1v3.1h-3.1zm9.298 0h3.1v3.1h-3.1zm9.299 0h3.1v3.1h-3.1zm9.299 0h3.1v3.1h-3.1zm9.299 0h3.1v3.1h-3.1zm9.299 0h3.1v3.1h-3.1zm9.298 0h3.1v3.1h-3.1zm9.299 0h3.1v3.1h-3.1zm9.299 0h3.1v3.1h-3.1zm9.299 0h3.1v3.1h-3.1zm9.299 0h3.1v3.1h-3.1zm9.299 0h3.1v3.1h-3.1zm9.298 0h3.1v3.1h-3.1zm9.299 0h3.1v3.1h-3.1zm9.299 0h3.1v3.1h-3.1zM.043 65.193h3.1v3.1h-3.1zm9.299 0h3.1v3.1h-3.1zm9.299 0h3.1v3.1h-3.1zm9.298 0h3.1v3.1h-3.1zm9.299 0h3.1v3.1h-3.1zm9.299 0h3.1v3.1h-3.1zm9.299 0h3.1v3.1h-3.1zm9.299 0h3.1v3.1h-3.1zm9.299 0h3.1v3.1h-3.1zm9.298 0h3.1v3.1h-3.1zm9.299 0h3.1v3.1h-3.1zm9.299 0h3.1v3.1h-3.1zm9.299 0h3.1v3.1h-3.1zm9.299 0h3.1v3.1h-3.1zm9.299 0h3.1v3.1h-3.1zm9.298 0h3.1v3.1h-3.1zm9.299 0h3.1v3.1h-3.1zm9.299 0h3.1v3.1h-3.1zm9.299 0h3.1v3.1h-3.1zm9.299 0h3.1v3.1h-3.1zm9.299 0h3.1v3.1h-3.1zm9.298 0h3.1v3.1h-3.1zm9.299 0h3.1v3.1h-3.1zm9.299 0h3.1v3.1h-3.1zm9.299 0h3.1v3.1h-3.1zm9.299 0h3.1v3.1h-3.1zm9.298 0h3.1v3.1h-3.1zm9.299 0h3.1v3.1h-3.1zm9.299 0h3.1v3.1h-3.1zm9.299 0h3.1v3.1h-3.1zm9.299 0h3.1v3.1h-3.1zm9.299 0h3.1v3.1h-3.1zm9.298 0h3.1v3.1h-3.1zm9.299 0h3.1v3.1h-3.1zm9.299 0h3.1v3.1h-3.1zM.043 73.297h3.1v3.1h-3.1zm9.299 0h3.1v3.1h-3.1zm9.299 0h3.1v3.1h-3.1zm9.298 0h3.1v3.1h-3.1zm9.299 0h3.1v3.1h-3.1zm9.299 0h3.1v3.1h-3.1zm9.299 0h3.1v3.1h-3.1zm9.299 0h3.1v3.1h-3.1zm9.299 0h3.1v3.1h-3.1zm9.298 0h3.1v3.1h-3.1zm9.299 0h3.1v3.1h-3.1zm9.299 0h3.1v3.1h-3.1zm9.299 0h3.1v3.1h-3.1zm9.299 0h3.1v3.1h-3.1zm9.299 0h3.1v3.1h-3.1zm9.298 0h3.1v3.1h-3.1zm9.299 0h3.1v3.1h-3.1zm9.299 0h3.1v3.1h-3.1zm9.299 0h3.1v3.1h-3.1zm9.299 0h3.1v3.1h-3.1zm9.299 0h3.1v3.1h-3.1zm9.298 0h3.1v3.1h-3.1zm9.299 0h3.1v3.1h-3.1zm9.299 0h3.1v3.1h-3.1zm9.299 0h3.1v3.1h-3.1zm9.299 0h3.1v3.1h-3.1zm9.298 0h3.1v3.1h-3.1zm9.299 0h3.1v3.1h-3.1zm9.299 0h3.1v3.1h-3.1zm9.299 0h3.1v3.1h-3.1zm9.299 0h3.1v3.1h-3.1zm9.299 0h3.1v3.1h-3.1zm9.298 0h3.1v3.1h-3.1zm9.299 0h3.1v3.1h-3.1zm9.299 0h3.1v3.1h-3.1zM.043 81.4h3.1v3.1h-3.1zm9.299 0h3.1v3.1h-3.1zm9.299 0h3.1v3.1h-3.1zm9.298 0h3.1v3.1h-3.1zm9.299 0h3.1v3.1h-3.1zm9.299 0h3.1v3.1h-3.1zm9.299 0h3.1v3.1h-3.1zm9.299 0h3.1v3.1h-3.1zm9.299 0h3.1v3.1h-3.1zm9.298 0h3.1v3.1h-3.1zm9.299 0h3.1v3.1h-3.1zm9.299 0h3.1v3.1h-3.1zm9.299 0h3.1v3.1h-3.1zm9.299 0h3.1v3.1h-3.1zm9.299 0h3.1v3.1h-3.1zm9.298 0h3.1v3.1h-3.1zm9.299 0h3.1v3.1h-3.1zm9.299 0h3.1v3.1h-3.1zm9.299 0h3.1v3.1h-3.1zm9.299 0h3.1v3.1h-3.1zm9.299 0h3.1v3.1h-3.1zm9.298 0h3.1v3.1h-3.1zm9.299 0h3.1v3.1h-3.1zm9.299 0h3.1v3.1h-3.1zm9.299 0h3.1v3.1h-3.1zm9.299 0h3.1v3.1h-3.1zm9.298 0h3.1v3.1h-3.1zm9.299 0h3.1v3.1h-3.1zm9.299 0h3.1v3.1h-3.1zm9.299 0h3.1v3.1h-3.1zm9.299 0h3.1v3.1h-3.1zm9.299 0h3.1v3.1h-3.1zm9.298 0h3.1v3.1h-3.1zm9.299 0h3.1v3.1h-3.1zm9.299 0h3.1v3.1h-3.1zM.043 89.503h3.1v3.1h-3.1zm9.299 0h3.1v3.1h-3.1zm9.299 0h3.1v3.1h-3.1zm9.298 0h3.1v3.1h-3.1zm9.299 0h3.1v3.1h-3.1zm9.299 0h3.1v3.1h-3.1zm9.299 0h3.1v3.1h-3.1zm9.299 0h3.1v3.1h-3.1zm9.299 0h3.1v3.1h-3.1zm9.298 0h3.1v3.1h-3.1zm9.299 0h3.1v3.1h-3.1zm9.299 0h3.1v3.1h-3.1zm9.299 0h3.1v3.1h-3.1zm9.299 0h3.1v3.1h-3.1zm9.299 0h3.1v3.1h-3.1zm9.298 0h3.1v3.1h-3.1zm9.299 0h3.1v3.1h-3.1zm9.299 0h3.1v3.1h-3.1zm9.299 0h3.1v3.1h-3.1zm9.299 0h3.1v3.1h-3.1zm9.299 0h3.1v3.1h-3.1zm9.298 0h3.1v3.1h-3.1zm9.299 0h3.1v3.1h-3.1zm9.299 0h3.1v3.1h-3.1zm9.299 0h3.1v3.1h-3.1zm9.299 0h3.1v3.1h-3.1zm9.298 0h3.1v3.1h-3.1zm9.299 0h3.1v3.1h-3.1zm9.299 0h3.1v3.1h-3.1zm9.299 0h3.1v3.1h-3.1zm9.299 0h3.1v3.1h-3.1zm9.299 0h3.1v3.1h-3.1zm9.298 0h3.1v3.1h-3.1zm9.299 0h3.1v3.1h-3.1zm9.299 0h3.1v3.1h-3.1zM.043 97.606h3.1v3.1h-3.1zm9.299 0h3.1v3.1h-3.1zm9.299 0h3.1v3.1h-3.1zm9.298 0h3.1v3.1h-3.1zm9.299 0h3.1v3.1h-3.1zm9.299 0h3.1v3.1h-3.1zm9.299 0h3.1v3.1h-3.1zm9.299 0h3.1v3.1h-3.1zm9.299 0h3.1v3.1h-3.1zm9.298 0h3.1v3.1h-3.1zm9.299 0h3.1v3.1h-3.1zm9.299 0h3.1v3.1h-3.1zm9.299 0h3.1v3.1h-3.1zm9.299 0h3.1v3.1h-3.1zm9.299 0h3.1v3.1h-3.1zm9.298 0h3.1v3.1h-3.1zm9.299 0h3.1v3.1h-3.1zm9.299 0h3.1v3.1h-3.1zm9.299 0h3.1v3.1h-3.1zm9.299 0h3.1v3.1h-3.1zm9.299 0h3.1v3.1h-3.1zm9.298 0h3.1v3.1h-3.1zm9.299 0h3.1v3.1h-3.1zm9.299 0h3.1v3.1h-3.1zm9.299 0h3.1v3.1h-3.1zm9.299 0h3.1v3.1h-3.1zm9.298 0h3.1v3.1h-3.1zm9.299 0h3.1v3.1h-3.1zm9.299 0h3.1v3.1h-3.1zm9.299 0h3.1v3.1h-3.1zm9.299 0h3.1v3.1h-3.1zm9.299 0h3.1v3.1h-3.1zm9.298 0h3.1v3.1h-3.1zm9.299 0h3.1v3.1h-3.1zm9.299 0h3.1v3.1h-3.1zM.043 105.709h3.1v3.1h-3.1zm9.299 0h3.1v3.1h-3.1zm9.299 0h3.1v3.1h-3.1zm9.298 0h3.1v3.1h-3.1zm9.299 0h3.1v3.1h-3.1zm9.299 0h3.1v3.1h-3.1zm9.299 0h3.1v3.1h-3.1zm9.299 0h3.1v3.1h-3.1zm9.299 0h3.1v3.1h-3.1zm9.298 0h3.1v3.1h-3.1zm9.299 0h3.1v3.1h-3.1zm9.299 0h3.1v3.1h-3.1zm9.299 0h3.1v3.1h-3.1zm9.299 0h3.1v3.1h-3.1zm9.299 0h3.1v3.1h-3.1zm9.298 0h3.1v3.1h-3.1zm9.299 0h3.1v3.1h-3.1zm9.299 0h3.1v3.1h-3.1zm9.299 0h3.1v3.1h-3.1zm9.299 0h3.1v3.1h-3.1zm9.299 0h3.1v3.1h-3.1zm9.298 0h3.1v3.1h-3.1zm9.299 0h3.1v3.1h-3.1zm9.299 0h3.1v3.1h-3.1zm9.299 0h3.1v3.1h-3.1zm9.299 0h3.1v3.1h-3.1zm9.298 0h3.1v3.1h-3.1zm9.299 0h3.1v3.1h-3.1zm9.299 0h3.1v3.1h-3.1zm9.299 0h3.1v3.1h-3.1zm9.299 0h3.1v3.1h-3.1zm9.299 0h3.1v3.1h-3.1zm9.298 0h3.1v3.1h-3.1zm9.299 0h3.1v3.1h-3.1zm9.299 0h3.1v3.1h-3.1zM.043 113.812h3.1v3.1h-3.1zm9.299 0h3.1v3.1h-3.1zm9.299 0h3.1v3.1h-3.1zm9.298 0h3.1v3.1h-3.1zm9.299 0h3.1v3.1h-3.1zm9.299 0h3.1v3.1h-3.1zm9.299 0h3.1v3.1h-3.1zm9.299 0h3.1v3.1h-3.1zm9.299 0h3.1v3.1h-3.1zm9.298 0h3.1v3.1h-3.1zm9.299 0h3.1v3.1h-3.1zm9.299 0h3.1v3.1h-3.1zm9.299 0h3.1v3.1h-3.1zm9.299 0h3.1v3.1h-3.1zm9.299 0h3.1v3.1h-3.1zm9.298 0h3.1v3.1h-3.1zm9.299 0h3.1v3.1h-3.1zm9.299 0h3.1v3.1h-3.1zm9.299 0h3.1v3.1h-3.1zm9.299 0h3.1v3.1h-3.1zm9.299 0h3.1v3.1h-3.1zm9.298 0h3.1v3.1h-3.1zm9.299 0h3.1v3.1h-3.1zm9.299 0h3.1v3.1h-3.1zm9.299 0h3.1v3.1h-3.1zm9.299 0h3.1v3.1h-3.1zm9.298 0h3.1v3.1h-3.1zm9.299 0h3.1v3.1h-3.1zm9.299 0h3.1v3.1h-3.1zm9.299 0h3.1v3.1h-3.1zm9.299 0h3.1v3.1h-3.1zm9.299 0h3.1v3.1h-3.1zm9.298 0h3.1v3.1h-3.1zm9.299 0h3.1v3.1h-3.1zm9.299 0h3.1v3.1h-3.1zM.043 121.915h3.1v3.1h-3.1zm9.299 0h3.1v3.1h-3.1zm9.299 0h3.1v3.1h-3.1zm9.298 0h3.1v3.1h-3.1zm9.299 0h3.1v3.1h-3.1zm9.299 0h3.1v3.1h-3.1zm9.299 0h3.1v3.1h-3.1zm9.299 0h3.1v3.1h-3.1zm9.299 0h3.1v3.1h-3.1zm9.298 0h3.1v3.1h-3.1zm9.299 0h3.1v3.1h-3.1zm9.299 0h3.1v3.1h-3.1zm9.299 0h3.1v3.1h-3.1zm9.299 0h3.1v3.1h-3.1zm9.299 0h3.1v3.1h-3.1zm9.298 0h3.1v3.1h-3.1zm9.299 0h3.1v3.1h-3.1zm9.299 0h3.1v3.1h-3.1zm9.299 0h3.1v3.1h-3.1zm9.299 0h3.1v3.1h-3.1zm9.299 0h3.1v3.1h-3.1zm9.298 0h3.1v3.1h-3.1zm9.299 0h3.1v3.1h-3.1zm9.299 0h3.1v3.1h-3.1zm9.299 0h3.1v3.1h-3.1zm9.299 0h3.1v3.1h-3.1zm9.298 0h3.1v3.1h-3.1zm9.299 0h3.1v3.1h-3.1zm9.299 0h3.1v3.1h-3.1zm9.299 0h3.1v3.1h-3.1zm9.299 0h3.1v3.1h-3.1zm9.299 0h3.1v3.1h-3.1zm9.298 0h3.1v3.1h-3.1zm9.299 0h3.1v3.1h-3.1zm9.299 0h3.1v3.1h-3.1z"/><rect x=".043" y="130.019" width="3.1" height="3.1" rx="1.55" fill="#272727"/><rect x="9.342" y="130.019" width="3.1" height="3.1" rx="1.55" fill="#272727"/><rect x="18.641" y="130.019" width="3.1" height="3.1" rx="1.55" fill="#272727"/><rect x="27.939" y="130.019" width="3.1" height="3.1" rx="1.55" fill="#272727"/><rect x="37.238" y="130.019" width="3.1" height="3.1" rx="1.55" fill="#272727"/><rect x="46.537" y="130.019" width="3.1" height="3.1" rx="1.55" fill="#272727"/><rect x="55.836" y="130.019" width="3.1" height="3.1" rx="1.55" fill="#272727"/><rect x="65.135" y="130.019" width="3.1" height="3.1" rx="1.55" fill="#272727"/><rect x="74.434" y="130.019" width="3.1" height="3.1" rx="1.55" fill="#272727"/><rect x="83.732" y="130.019" width="3.1" height="3.1" rx="1.55" fill="#272727"/><rect x="93.031" y="130.019" width="3.1" height="3.1" rx="1.55" fill="#272727"/><rect x="102.33" y="130.019" width="3.1" height="3.1" rx="1.55" fill="#272727"/><rect x="111.629" y="130.019" width="3.1" height="3.1" rx="1.55" fill="#272727"/><rect x="120.928" y="130.019" width="3.1" height="3.1" rx="1.55" fill="#272727"/><rect x="130.227" y="130.019" width="3.1" height="3.1" rx="1.55" fill="#272727"/><rect x="139.525" y="130.019" width="3.1" height="3.1" rx="1.55" fill="#272727"/><rect x="148.824" y="130.019" width="3.1" height="3.1" rx="1.55" fill="#272727"/><rect x="158.123" y="130.019" width="3.1" height="3.1" rx="1.55" fill="#272727"/><rect x="167.422" y="130.019" width="3.1" height="3.1" rx="1.55" fill="#272727"/><rect x="176.721" y="130.019" width="3.1" height="3.1" rx="1.55" fill="#272727"/><rect x="186.02" y="130.019" width="3.1" height="3.1" rx="1.55" fill="#272727"/><rect x="195.318" y="130.019" width="3.1" height="3.1" rx="1.55" fill="#272727"/><rect x="204.617" y="130.019" width="3.1" height="3.1" rx="1.55" fill="#272727"/><rect x="213.916" y="130.019" width="3.1" height="3.1" rx="1.55" fill="#272727"/><rect x="223.215" y="130.019" width="3.1" height="3.1" rx="1.55" fill="#272727"/><rect x="232.514" y="130.019" width="3.1" height="3.1" rx="1.55" fill="#272727"/><rect x="241.812" y="130.019" width="3.1" height="3.1" rx="1.55" fill="#272727"/><rect x="251.111" y="130.019" width="3.1" height="3.1" rx="1.55" fill="#272727"/><rect x="260.41" y="130.019" width="3.1" height="3.1" rx="1.55" fill="#272727"/><rect x="269.709" y="130.019" width="3.1" height="3.1" rx="1.55" fill="#272727"/><rect x="279.008" y="130.019" width="3.1" height="3.1" rx="1.55" fill="#272727"/><rect x="288.307" y="130.019" width="3.1" height="3.1" rx="1.55" fill="#272727"/><rect x="297.605" y="130.019" width="3.1" height="3.1" rx="1.55" fill="#272727"/><rect x="306.904" y="130.019" width="3.1" height="3.1" rx="1.55" fill="#272727"/><rect x="316.203" y="130.019" width="3.1" height="3.1" rx="1.55" fill="#272727"/><rect x=".043" y="138.121" width="3.1" height="3.1" rx="1.55" fill="#272727"/><rect x="9.342" y="138.121" width="3.1" height="3.1" rx="1.55" fill="#272727"/><rect x="18.641" y="138.121" width="3.1" height="3.1" rx="1.55" fill="#272727"/><rect x="27.939" y="138.121" width="3.1" height="3.1" rx="1.55" fill="#272727"/><rect x="37.238" y="138.121" width="3.1" height="3.1" rx="1.55" fill="#272727"/><rect x="46.537" y="138.121" width="3.1" height="3.1" rx="1.55" fill="#272727"/><rect x="55.836" y="138.121" width="3.1" height="3.1" rx="1.55" fill="#272727"/><rect x="65.135" y="138.121" width="3.1" height="3.1" rx="1.55" fill="#272727"/><rect x="74.434" y="138.121" width="3.1" height="3.1" rx="1.55" fill="#272727"/><rect x="83.732" y="138.121" width="3.1" height="3.1" rx="1.55" fill="#272727"/><rect x="93.031" y="138.121" width="3.1" height="3.1" rx="1.55" fill="#272727"/><rect x="102.33" y="138.121" width="3.1" height="3.1" rx="1.55" fill="#272727"/><rect x="111.629" y="138.121" width="3.1" height="3.1" rx="1.55" fill="#272727"/><rect x="120.928" y="138.121" width="3.1" height="3.1" rx="1.55" fill="#272727"/><rect x="130.227" y="138.121" width="3.1" height="3.1" rx="1.55" fill="#272727"/><rect x="139.525" y="138.121" width="3.1" height="3.1" rx="1.55" fill="#272727"/><rect x="148.824" y="138.121" width="3.1" height="3.1" rx="1.55" fill="#272727"/><rect x="158.123" y="138.121" width="3.1" height="3.1" rx="1.55" fill="#272727"/><rect x="167.422" y="138.121" width="3.1" height="3.1" rx="1.55" fill="#272727"/><rect x="176.721" y="138.121" width="3.1" height="3.1" rx="1.55" fill="#272727"/><rect x="186.02" y="138.121" width="3.1" height="3.1" rx="1.55" fill="#272727"/><rect x="195.318" y="138.121" width="3.1" height="3.1" rx="1.55" fill="#272727"/><rect x="204.617" y="138.121" width="3.1" height="3.1" rx="1.55" fill="#272727"/><rect x="213.916" y="138.121" width="3.1" height="3.1" rx="1.55" fill="#272727"/><rect x="223.215" y="138.121" width="3.1" height="3.1" rx="1.55" fill="#272727"/><rect x="232.514" y="138.121" width="3.1" height="3.1" rx="1.55" fill="#272727"/><rect x="241.812" y="138.121" width="3.1" height="3.1" rx="1.55" fill="#272727"/><rect x="251.111" y="138.121" width="3.1" height="3.1" rx="1.55" fill="#272727"/><rect x="260.41" y="138.121" width="3.1" height="3.1" rx="1.55" fill="#272727"/><rect x="269.709" y="138.121" width="3.1" height="3.1" rx="1.55" fill="#272727"/><rect x="279.008" y="138.121" width="3.1" height="3.1" rx="1.55" fill="#272727"/><rect x="288.307" y="138.121" width="3.1" height="3.1" rx="1.55" fill="#272727"/><rect x="297.605" y="138.121" width="3.1" height="3.1" rx="1.55" fill="#272727"/><rect x="306.904" y="138.121" width="3.1" height="3.1" rx="1.55" fill="#272727"/><rect x="316.203" y="138.121" width="3.1" height="3.1" rx="1.55" fill="#272727"/><rect x=".043" y="146.225" width="3.1" height="3.1" rx="1.55" fill="#272727"/><rect x="9.342" y="146.225" width="3.1" height="3.1" rx="1.55" fill="#272727"/><rect x="18.641" y="146.225" width="3.1" height="3.1" rx="1.55" fill="#272727"/><rect x="27.939" y="146.225" width="3.1" height="3.1" rx="1.55" fill="#272727"/><rect x="37.238" y="146.225" width="3.1" height="3.1" rx="1.55" fill="#272727"/><rect x="46.537" y="146.225" width="3.1" height="3.1" rx="1.55" fill="#272727"/><rect x="55.836" y="146.225" width="3.1" height="3.1" rx="1.55" fill="#272727"/><rect x="65.135" y="146.225" width="3.1" height="3.1" rx="1.55" fill="#272727"/><rect x="74.434" y="146.225" width="3.1" height="3.1" rx="1.55" fill="#272727"/><rect x="83.732" y="146.225" width="3.1" height="3.1" rx="1.55" fill="#272727"/><rect x="93.031" y="146.225" width="3.1" height="3.1" rx="1.55" fill="#272727"/><rect x="102.33" y="146.225" width="3.1" height="3.1" rx="1.55" fill="#272727"/><rect x="111.629" y="146.225" width="3.1" height="3.1" rx="1.55" fill="#272727"/><rect x="120.928" y="146.225" width="3.1" height="3.1" rx="1.55" fill="#272727"/><rect x="130.227" y="146.225" width="3.1" height="3.1" rx="1.55" fill="#272727"/><rect x="139.525" y="146.225" width="3.1" height="3.1" rx="1.55" fill="#272727"/><rect x="148.824" y="146.225" width="3.1" height="3.1" rx="1.55" fill="#272727"/><rect x="158.123" y="146.225" width="3.1" height="3.1" rx="1.55" fill="#272727"/><rect x="167.422" y="146.225" width="3.1" height="3.1" rx="1.55" fill="#272727"/><rect x="176.721" y="146.225" width="3.1" height="3.1" rx="1.55" fill="#272727"/><rect x="186.02" y="146.225" width="3.1" height="3.1" rx="1.55" fill="#272727"/><rect x="195.318" y="146.225" width="3.1" height="3.1" rx="1.55" fill="#272727"/><rect x="204.617" y="146.225" width="3.1" height="3.1" rx="1.55" fill="#272727"/><rect x="213.916" y="146.225" width="3.1" height="3.1" rx="1.55" fill="#272727"/><rect x="223.215" y="146.225" width="3.1" height="3.1" rx="1.55" fill="#272727"/><rect x="232.514" y="146.225" width="3.1" height="3.1" rx="1.55" fill="#272727"/><rect x="241.812" y="146.225" width="3.1" height="3.1" rx="1.55" fill="#272727"/><rect x="251.111" y="146.225" width="3.1" height="3.1" rx="1.55" fill="#272727"/><rect x="260.41" y="146.225" width="3.1" height="3.1" rx="1.55" fill="#272727"/><rect x="269.709" y="146.225" width="3.1" height="3.1" rx="1.55" fill="#272727"/><rect x="279.008" y="146.225" width="3.1" height="3.1" rx="1.55" fill="#272727"/><rect x="288.307" y="146.225" width="3.1" height="3.1" rx="1.55" fill="#272727"/><rect x="297.605" y="146.225" width="3.1" height="3.1" rx="1.55" fill="#272727"/><rect x="306.904" y="146.225" width="3.1" height="3.1" rx="1.55" fill="#272727"/><rect x="316.203" y="146.225" width="3.1" height="3.1" rx="1.55" fill="#272727"/><rect x=".043" y="154.328" width="3.1" height="3.1" rx="1.55" fill="#272727"/><rect x="9.342" y="154.328" width="3.1" height="3.1" rx="1.55" fill="#272727"/><rect x="18.641" y="154.328" width="3.1" height="3.1" rx="1.55" fill="#272727"/><rect x="27.939" y="154.328" width="3.1" height="3.1" rx="1.55" fill="#272727"/><rect x="37.238" y="154.328" width="3.1" height="3.1" rx="1.55" fill="#272727"/><rect x="46.537" y="154.328" width="3.1" height="3.1" rx="1.55" fill="#272727"/><rect x="55.836" y="154.328" width="3.1" height="3.1" rx="1.55" fill="#272727"/><rect x="65.135" y="154.328" width="3.1" height="3.1" rx="1.55" fill="#272727"/><rect x="74.434" y="154.328" width="3.1" height="3.1" rx="1.55" fill="#272727"/><rect x="83.732" y="154.328" width="3.1" height="3.1" rx="1.55" fill="#272727"/><rect x="93.031" y="154.328" width="3.1" height="3.1" rx="1.55" fill="#272727"/><rect x="102.33" y="154.328" width="3.1" height="3.1" rx="1.55" fill="#272727"/><rect x="111.629" y="154.328" width="3.1" height="3.1" rx="1.55" fill="#272727"/><rect x="120.928" y="154.328" width="3.1" height="3.1" rx="1.55" fill="#272727"/><rect x="130.227" y="154.328" width="3.1" height="3.1" rx="1.55" fill="#272727"/><rect x="139.525" y="154.328" width="3.1" height="3.1" rx="1.55" fill="#272727"/><rect x="148.824" y="154.328" width="3.1" height="3.1" rx="1.55" fill="#272727"/><rect x="158.123" y="154.328" width="3.1" height="3.1" rx="1.55" fill="#272727"/><rect x="167.422" y="154.328" width="3.1" height="3.1" rx="1.55" fill="#272727"/><rect x="176.721" y="154.328" width="3.1" height="3.1" rx="1.55" fill="#272727"/><rect x="186.02" y="154.328" width="3.1" height="3.1" rx="1.55" fill="#272727"/><rect x="195.318" y="154.328" width="3.1" height="3.1" rx="1.55" fill="#272727"/><rect x="204.617" y="154.328" width="3.1" height="3.1" rx="1.55" fill="#272727"/><rect x="213.916" y="154.328" width="3.1" height="3.1" rx="1.55" fill="#272727"/><rect x="223.215" y="154.328" width="3.1" height="3.1" rx="1.55" fill="#272727"/><rect x="232.514" y="154.328" width="3.1" height="3.1" rx="1.55" fill="#272727"/><rect x="241.812" y="154.328" width="3.1" height="3.1" rx="1.55" fill="#272727"/><rect x="251.111" y="154.328" width="3.1" height="3.1" rx="1.55" fill="#272727"/><rect x="260.41" y="154.328" width="3.1" height="3.1" rx="1.55" fill="#272727"/><rect x="269.709" y="154.328" width="3.1" height="3.1" rx="1.55" fill="#272727"/><rect x="279.008" y="154.328" width="3.1" height="3.1" rx="1.55" fill="#272727"/><rect x="288.307" y="154.328" width="3.1" height="3.1" rx="1.55" fill="#272727"/><rect x="297.605" y="154.328" width="3.1" height="3.1" rx="1.55" fill="#272727"/><rect x="306.904" y="154.328" width="3.1" height="3.1" rx="1.55" fill="#272727"/><rect x="316.203" y="154.328" width="3.1" height="3.1" rx="1.55" fill="#272727"/><rect x=".043" y="162.431" width="3.1" height="3.1" rx="1.55" fill="#272727"/><rect x="9.342" y="162.431" width="3.1" height="3.1" rx="1.55" fill="#272727"/><rect x="18.641" y="162.431" width="3.1" height="3.1" rx="1.55" fill="#272727"/><rect x="27.939" y="162.431" width="3.1" height="3.1" rx="1.55" fill="#272727"/><rect x="37.238" y="162.431" width="3.1" height="3.1" rx="1.55" fill="#272727"/><rect x="46.537" y="162.431" width="3.1" height="3.1" rx="1.55" fill="#272727"/><rect x="55.836" y="162.431" width="3.1" height="3.1" rx="1.55" fill="#272727"/><rect x="65.135" y="162.431" width="3.1" height="3.1" rx="1.55" fill="#272727"/><rect x="74.434" y="162.431" width="3.1" height="3.1" rx="1.55" fill="#272727"/><rect x="83.732" y="162.431" width="3.1" height="3.1" rx="1.55" fill="#272727"/><rect x="93.031" y="162.431" width="3.1" height="3.1" rx="1.55" fill="#272727"/><rect x="102.33" y="162.431" width="3.1" height="3.1" rx="1.55" fill="#272727"/><rect x="111.629" y="162.431" width="3.1" height="3.1" rx="1.55" fill="#272727"/><rect x="120.928" y="162.431" width="3.1" height="3.1" rx="1.55" fill="#272727"/><rect x="130.227" y="162.431" width="3.1" height="3.1" rx="1.55" fill="#272727"/><rect x="139.525" y="162.431" width="3.1" height="3.1" rx="1.55" fill="#272727"/><rect x="148.824" y="162.431" width="3.1" height="3.1" rx="1.55" fill="#272727"/><rect x="158.123" y="162.431" width="3.1" height="3.1" rx="1.55" fill="#272727"/><rect x="167.422" y="162.431" width="3.1" height="3.1" rx="1.55" fill="#272727"/><rect x="176.721" y="162.431" width="3.1" height="3.1" rx="1.55" fill="#272727"/><rect x="186.02" y="162.431" width="3.1" height="3.1" rx="1.55" fill="#272727"/><rect x="195.318" y="162.431" width="3.1" height="3.1" rx="1.55" fill="#272727"/><rect x="204.617" y="162.431" width="3.1" height="3.1" rx="1.55" fill="#272727"/><rect x="213.916" y="162.431" width="3.1" height="3.1" rx="1.55" fill="#272727"/><rect x="223.215" y="162.431" width="3.1" height="3.1" rx="1.55" fill="#272727"/><rect x="232.514" y="162.431" width="3.1" height="3.1" rx="1.55" fill="#272727"/><rect x="241.812" y="162.431" width="3.1" height="3.1" rx="1.55" fill="#272727"/><rect x="251.111" y="162.431" width="3.1" height="3.1" rx="1.55" fill="#272727"/><rect x="260.41" y="162.431" width="3.1" height="3.1" rx="1.55" fill="#272727"/><rect x="269.709" y="162.431" width="3.1" height="3.1" rx="1.55" fill="#272727"/><rect x="279.008" y="162.431" width="3.1" height="3.1" rx="1.55" fill="#272727"/><rect x="288.307" y="162.431" width="3.1" height="3.1" rx="1.55" fill="#272727"/><rect x="297.605" y="162.431" width="3.1" height="3.1" rx="1.55" fill="#272727"/><rect x="306.904" y="162.431" width="3.1" height="3.1" rx="1.55" fill="#272727"/><rect x="316.203" y="162.431" width="3.1" height="3.1" rx="1.55" fill="#272727"/><rect x=".043" y="170.534" width="3.1" height="3.1" rx="1.55" fill="#272727"/><rect x="9.342" y="170.534" width="3.1" height="3.1" rx="1.55" fill="#272727"/><rect x="18.641" y="170.534" width="3.1" height="3.1" rx="1.55" fill="#272727"/><rect x="27.939" y="170.534" width="3.1" height="3.1" rx="1.55" fill="#272727"/><rect x="37.238" y="170.534" width="3.1" height="3.1" rx="1.55" fill="#272727"/><rect x="46.537" y="170.534" width="3.1" height="3.1" rx="1.55" fill="#272727"/><rect x="55.836" y="170.534" width="3.1" height="3.1" rx="1.55" fill="#272727"/><rect x="65.135" y="170.534" width="3.1" height="3.1" rx="1.55" fill="#272727"/><rect x="74.434" y="170.534" width="3.1" height="3.1" rx="1.55" fill="#272727"/><rect x="83.732" y="170.534" width="3.1" height="3.1" rx="1.55" fill="#272727"/><rect x="93.031" y="170.534" width="3.1" height="3.1" rx="1.55" fill="#272727"/><rect x="102.33" y="170.534" width="3.1" height="3.1" rx="1.55" fill="#272727"/><rect x="111.629" y="170.534" width="3.1" height="3.1" rx="1.55" fill="#272727"/><rect x="120.928" y="170.534" width="3.1" height="3.1" rx="1.55" fill="#272727"/><rect x="130.227" y="170.534" width="3.1" height="3.1" rx="1.55" fill="#272727"/><rect x="139.525" y="170.534" width="3.1" height="3.1" rx="1.55" fill="#272727"/><rect x="148.824" y="170.534" width="3.1" height="3.1" rx="1.55" fill="#272727"/><rect x="158.123" y="170.534" width="3.1" height="3.1" rx="1.55" fill="#272727"/><rect x="167.422" y="170.534" width="3.1" height="3.1" rx="1.55" fill="#272727"/><rect x="176.721" y="170.534" width="3.1" height="3.1" rx="1.55" fill="#272727"/><rect x="186.02" y="170.534" width="3.1" height="3.1" rx="1.55" fill="#272727"/><rect x="195.318" y="170.534" width="3.1" height="3.1" rx="1.55" fill="#272727"/><rect x="204.617" y="170.534" width="3.1" height="3.1" rx="1.55" fill="#272727"/><rect x="213.916" y="170.534" width="3.1" height="3.1" rx="1.55" fill="#272727"/><rect x="223.215" y="170.534" width="3.1" height="3.1" rx="1.55" fill="#272727"/><rect x="232.514" y="170.534" width="3.1" height="3.1" rx="1.55" fill="#272727"/><rect x="241.812" y="170.534" width="3.1" height="3.1" rx="1.55" fill="#272727"/><rect x="251.111" y="170.534" width="3.1" height="3.1" rx="1.55" fill="#272727"/><rect x="260.41" y="170.534" width="3.1" height="3.1" rx="1.55" fill="#272727"/><rect x="269.709" y="170.534" width="3.1" height="3.1" rx="1.55" fill="#272727"/><rect x="279.008" y="170.534" width="3.1" height="3.1" rx="1.55" fill="#272727"/><rect x="288.307" y="170.534" width="3.1" height="3.1" rx="1.55" fill="#272727"/><rect x="297.605" y="170.534" width="3.1" height="3.1" rx="1.55" fill="#272727"/><rect x="306.904" y="170.534" width="3.1" height="3.1" rx="1.55" fill="#272727"/><rect x="316.203" y="170.534" width="3.1" height="3.1" rx="1.55" fill="#272727"/><rect x=".043" y="178.637" width="3.1" height="3.1" rx="1.55" fill="#272727"/><rect x="9.342" y="178.637" width="3.1" height="3.1" rx="1.55" fill="#272727"/><rect x="18.641" y="178.637" width="3.1" height="3.1" rx="1.55" fill="#272727"/><rect x="27.939" y="178.637" width="3.1" height="3.1" rx="1.55" fill="#272727"/><rect x="37.238" y="178.637" width="3.1" height="3.1" rx="1.55" fill="#272727"/><rect x="46.537" y="178.637" width="3.1" height="3.1" rx="1.55" fill="#272727"/><rect x="55.836" y="178.637" width="3.1" height="3.1" rx="1.55" fill="#272727"/><rect x="65.135" y="178.637" width="3.1" height="3.1" rx="1.55" fill="#272727"/><rect x="74.434" y="178.637" width="3.1" height="3.1" rx="1.55" fill="#272727"/><rect x="83.732" y="178.637" width="3.1" height="3.1" rx="1.55" fill="#272727"/><rect x="93.031" y="178.637" width="3.1" height="3.1" rx="1.55" fill="#272727"/><rect x="102.33" y="178.637" width="3.1" height="3.1" rx="1.55" fill="#272727"/><rect x="111.629" y="178.637" width="3.1" height="3.1" rx="1.55" fill="#272727"/><rect x="120.928" y="178.637" width="3.1" height="3.1" rx="1.55" fill="#272727"/><rect x="130.227" y="178.637" width="3.1" height="3.1" rx="1.55" fill="#272727"/><rect x="139.525" y="178.637" width="3.1" height="3.1" rx="1.55" fill="#272727"/><rect x="148.824" y="178.637" width="3.1" height="3.1" rx="1.55" fill="#272727"/><rect x="158.123" y="178.637" width="3.1" height="3.1" rx="1.55" fill="#272727"/><rect x="167.422" y="178.637" width="3.1" height="3.1" rx="1.55" fill="#272727"/><rect x="176.721" y="178.637" width="3.1" height="3.1" rx="1.55" fill="#272727"/><rect x="186.02" y="178.637" width="3.1" height="3.1" rx="1.55" fill="#272727"/><rect x="195.318" y="178.637" width="3.1" height="3.1" rx="1.55" fill="#272727"/><rect x="204.617" y="178.637" width="3.1" height="3.1" rx="1.55" fill="#272727"/><rect x="213.916" y="178.637" width="3.1" height="3.1" rx="1.55" fill="#272727"/><rect x="223.215" y="178.637" width="3.1" height="3.1" rx="1.55" fill="#272727"/><rect x="232.514" y="178.637" width="3.1" height="3.1" rx="1.55" fill="#272727"/><rect x="241.812" y="178.637" width="3.1" height="3.1" rx="1.55" fill="#272727"/><rect x="251.111" y="178.637" width="3.1" height="3.1" rx="1.55" fill="#272727"/><rect x="260.41" y="178.637" width="3.1" height="3.1" rx="1.55" fill="#272727"/><rect x="269.709" y="178.637" width="3.1" height="3.1" rx="1.55" fill="#272727"/><rect x="279.008" y="178.637" width="3.1" height="3.1" rx="1.55" fill="#272727"/><rect x="288.307" y="178.637" width="3.1" height="3.1" rx="1.55" fill="#272727"/><rect x="297.605" y="178.637" width="3.1" height="3.1" rx="1.55" fill="#272727"/><rect x="306.904" y="178.637" width="3.1" height="3.1" rx="1.55" fill="#272727"/><rect x="316.203" y="178.637" width="3.1" height="3.1" rx="1.55" fill="#272727"/><rect x=".043" y="186.74" width="3.1" height="3.1" rx="1.55" fill="#272727"/><rect x="9.342" y="186.74" width="3.1" height="3.1" rx="1.55" fill="#272727"/><rect x="18.641" y="186.74" width="3.1" height="3.1" rx="1.55" fill="#272727"/><rect x="27.939" y="186.74" width="3.1" height="3.1" rx="1.55" fill="#272727"/><rect x="37.238" y="186.74" width="3.1" height="3.1" rx="1.55" fill="#272727"/><rect x="46.537" y="186.74" width="3.1" height="3.1" rx="1.55" fill="#272727"/><rect x="55.836" y="186.74" width="3.1" height="3.1" rx="1.55" fill="#272727"/><rect x="65.135" y="186.74" width="3.1" height="3.1" rx="1.55" fill="#272727"/><rect x="74.434" y="186.74" width="3.1" height="3.1" rx="1.55" fill="#272727"/><rect x="83.732" y="186.74" width="3.1" height="3.1" rx="1.55" fill="#272727"/><rect x="93.031" y="186.74" width="3.1" height="3.1" rx="1.55" fill="#272727"/><rect x="102.33" y="186.74" width="3.1" height="3.1" rx="1.55" fill="#272727"/><rect x="111.629" y="186.74" width="3.1" height="3.1" rx="1.55" fill="#272727"/><rect x="120.928" y="186.74" width="3.1" height="3.1" rx="1.55" fill="#272727"/><rect x="130.227" y="186.74" width="3.1" height="3.1" rx="1.55" fill="#272727"/><rect x="139.525" y="186.74" width="3.1" height="3.1" rx="1.55" fill="#272727"/><rect x="148.824" y="186.74" width="3.1" height="3.1" rx="1.55" fill="#272727"/><rect x="158.123" y="186.74" width="3.1" height="3.1" rx="1.55" fill="#272727"/><rect x="167.422" y="186.74" width="3.1" height="3.1" rx="1.55" fill="#272727"/><rect x="176.721" y="186.74" width="3.1" height="3.1" rx="1.55" fill="#272727"/><rect x="186.02" y="186.74" width="3.1" height="3.1" rx="1.55" fill="#272727"/><rect x="195.318" y="186.74" width="3.1" height="3.1" rx="1.55" fill="#272727"/><rect x="204.617" y="186.74" width="3.1" height="3.1" rx="1.55" fill="#272727"/><rect x="213.916" y="186.74" width="3.1" height="3.1" rx="1.55" fill="#272727"/><rect x="223.215" y="186.74" width="3.1" height="3.1" rx="1.55" fill="#272727"/><rect x="232.514" y="186.74" width="3.1" height="3.1" rx="1.55" fill="#272727"/><rect x="241.812" y="186.74" width="3.1" height="3.1" rx="1.55" fill="#272727"/><rect x="251.111" y="186.74" width="3.1" height="3.1" rx="1.55" fill="#272727"/><rect x="260.41" y="186.74" width="3.1" height="3.1" rx="1.55" fill="#272727"/><rect x="269.709" y="186.74" width="3.1" height="3.1" rx="1.55" fill="#272727"/><rect x="279.008" y="186.74" width="3.1" height="3.1" rx="1.55" fill="#272727"/><rect x="288.307" y="186.74" width="3.1" height="3.1" rx="1.55" fill="#272727"/><rect x="297.605" y="186.74" width="3.1" height="3.1" rx="1.55" fill="#272727"/><rect x="306.904" y="186.74" width="3.1" height="3.1" rx="1.55" fill="#272727"/><rect x="316.203" y="186.74" width="3.1" height="3.1" rx="1.55" fill="#272727"/><rect x=".043" y="194.843" width="3.1" height="3.1" rx="1.55" fill="#272727"/><rect x="9.342" y="194.843" width="3.1" height="3.1" rx="1.55" fill="#272727"/><rect x="18.641" y="194.843" width="3.1" height="3.1" rx="1.55" fill="#272727"/><rect x="27.939" y="194.843" width="3.1" height="3.1" rx="1.55" fill="#272727"/><rect x="37.238" y="194.843" width="3.1" height="3.1" rx="1.55" fill="#272727"/><rect x="46.537" y="194.843" width="3.1" height="3.1" rx="1.55" fill="#272727"/><rect x="55.836" y="194.843" width="3.1" height="3.1" rx="1.55" fill="#272727"/><rect x="65.135" y="194.843" width="3.1" height="3.1" rx="1.55" fill="#272727"/><rect x="74.434" y="194.843" width="3.1" height="3.1" rx="1.55" fill="#272727"/><rect x="83.732" y="194.843" width="3.1" height="3.1" rx="1.55" fill="#272727"/><rect x="93.031" y="194.843" width="3.1" height="3.1" rx="1.55" fill="#272727"/><rect x="102.33" y="194.843" width="3.1" height="3.1" rx="1.55" fill="#272727"/><rect x="111.629" y="194.843" width="3.1" height="3.1" rx="1.55" fill="#272727"/><rect x="120.928" y="194.843" width="3.1" height="3.1" rx="1.55" fill="#272727"/><rect x="130.227" y="194.843" width="3.1" height="3.1" rx="1.55" fill="#272727"/><rect x="139.525" y="194.843" width="3.1" height="3.1" rx="1.55" fill="#272727"/><rect x="148.824" y="194.843" width="3.1" height="3.1" rx="1.55" fill="#272727"/><rect x="158.123" y="194.843" width="3.1" height="3.1" rx="1.55" fill="#272727"/><rect x="167.422" y="194.843" width="3.1" height="3.1" rx="1.55" fill="#272727"/><rect x="176.721" y="194.843" width="3.1" height="3.1" rx="1.55" fill="#272727"/><rect x="186.02" y="194.843" width="3.1" height="3.1" rx="1.55" fill="#272727"/><rect x="195.318" y="194.843" width="3.1" height="3.1" rx="1.55" fill="#272727"/><rect x="204.617" y="194.843" width="3.1" height="3.1" rx="1.55" fill="#272727"/><rect x="213.916" y="194.843" width="3.1" height="3.1" rx="1.55" fill="#272727"/><rect x="223.215" y="194.843" width="3.1" height="3.1" rx="1.55" fill="#272727"/><rect x="232.514" y="194.843" width="3.1" height="3.1" rx="1.55" fill="#272727"/><rect x="241.812" y="194.843" width="3.1" height="3.1" rx="1.55" fill="#272727"/><rect x="251.111" y="194.843" width="3.1" height="3.1" rx="1.55" fill="#272727"/><rect x="260.41" y="194.843" width="3.1" height="3.1" rx="1.55" fill="#272727"/><rect x="269.709" y="194.843" width="3.1" height="3.1" rx="1.55" fill="#272727"/><rect x="279.008" y="194.843" width="3.1" height="3.1" rx="1.55" fill="#272727"/><rect x="288.307" y="194.843" width="3.1" height="3.1" rx="1.55" fill="#272727"/><rect x="297.605" y="194.843" width="3.1" height="3.1" rx="1.55" fill="#272727"/><rect x="306.904" y="194.843" width="3.1" height="3.1" rx="1.55" fill="#272727"/><rect x="316.203" y="194.843" width="3.1" height="3.1" rx="1.55" fill="#272727"/><rect x=".043" y="202.946" width="3.1" height="3.1" rx="1.55" fill="#272727"/><rect x="9.342" y="202.946" width="3.1" height="3.1" rx="1.55" fill="#272727"/><rect x="18.641" y="202.946" width="3.1" height="3.1" rx="1.55" fill="#272727"/><rect x="27.939" y="202.946" width="3.1" height="3.1" rx="1.55" fill="#272727"/><rect x="37.238" y="202.946" width="3.1" height="3.1" rx="1.55" fill="#272727"/><rect x="46.537" y="202.946" width="3.1" height="3.1" rx="1.55" fill="#272727"/><rect x="55.836" y="202.946" width="3.1" height="3.1" rx="1.55" fill="#272727"/><rect x="65.135" y="202.946" width="3.1" height="3.1" rx="1.55" fill="#272727"/><rect x="74.434" y="202.946" width="3.1" height="3.1" rx="1.55" fill="#272727"/><rect x="83.732" y="202.946" width="3.1" height="3.1" rx="1.55" fill="#272727"/><rect x="93.031" y="202.946" width="3.1" height="3.1" rx="1.55" fill="#272727"/><rect x="102.33" y="202.946" width="3.1" height="3.1" rx="1.55" fill="#272727"/><rect x="111.629" y="202.946" width="3.1" height="3.1" rx="1.55" fill="#272727"/><rect x="120.928" y="202.946" width="3.1" height="3.1" rx="1.55" fill="#272727"/><rect x="130.227" y="202.946" width="3.1" height="3.1" rx="1.55" fill="#272727"/><rect x="139.525" y="202.946" width="3.1" height="3.1" rx="1.55" fill="#272727"/><rect x="148.824" y="202.946" width="3.1" height="3.1" rx="1.55" fill="#272727"/><rect x="158.123" y="202.946" width="3.1" height="3.1" rx="1.55" fill="#272727"/><rect x="167.422" y="202.946" width="3.1" height="3.1" rx="1.55" fill="#272727"/><rect x="176.721" y="202.946" width="3.1" height="3.1" rx="1.55" fill="#272727"/><rect x="186.02" y="202.946" width="3.1" height="3.1" rx="1.55" fill="#272727"/><rect x="195.318" y="202.946" width="3.1" height="3.1" rx="1.55" fill="#272727"/><rect x="204.617" y="202.946" width="3.1" height="3.1" rx="1.55" fill="#272727"/><rect x="213.916" y="202.946" width="3.1" height="3.1" rx="1.55" fill="#272727"/><rect x="223.215" y="202.946" width="3.1" height="3.1" rx="1.55" fill="#272727"/><rect x="232.514" y="202.946" width="3.1" height="3.1" rx="1.55" fill="#272727"/><rect x="241.812" y="202.946" width="3.1" height="3.1" rx="1.55" fill="#272727"/><rect x="251.111" y="202.946" width="3.1" height="3.1" rx="1.55" fill="#272727"/><rect x="260.41" y="202.946" width="3.1" height="3.1" rx="1.55" fill="#272727"/><rect x="269.709" y="202.946" width="3.1" height="3.1" rx="1.55" fill="#272727"/><rect x="279.008" y="202.946" width="3.1" height="3.1" rx="1.55" fill="#272727"/><rect x="288.307" y="202.946" width="3.1" height="3.1" rx="1.55" fill="#272727"/><rect x="297.605" y="202.946" width="3.1" height="3.1" rx="1.55" fill="#272727"/><rect x="306.904" y="202.946" width="3.1" height="3.1" rx="1.55" fill="#272727"/><rect x="316.203" y="202.946" width="3.1" height="3.1" rx="1.55" fill="#272727"/><rect x=".043" y="211.05" width="3.1" height="3.1" rx="1.55" fill="#272727"/><rect x="9.342" y="211.05" width="3.1" height="3.1" rx="1.55" fill="#272727"/><rect x="18.641" y="211.05" width="3.1" height="3.1" rx="1.55" fill="#272727"/><rect x="27.939" y="211.05" width="3.1" height="3.1" rx="1.55" fill="#272727"/><rect x="37.238" y="211.05" width="3.1" height="3.1" rx="1.55" fill="#272727"/><rect x="46.537" y="211.05" width="3.1" height="3.1" rx="1.55" fill="#272727"/><rect x="55.836" y="211.05" width="3.1" height="3.1" rx="1.55" fill="#272727"/><rect x="65.135" y="211.05" width="3.1" height="3.1" rx="1.55" fill="#272727"/><rect x="74.434" y="211.05" width="3.1" height="3.1" rx="1.55" fill="#272727"/><rect x="83.732" y="211.05" width="3.1" height="3.1" rx="1.55" fill="#272727"/><rect x="93.031" y="211.05" width="3.1" height="3.1" rx="1.55" fill="#272727"/><rect x="102.33" y="211.05" width="3.1" height="3.1" rx="1.55" fill="#272727"/><rect x="111.629" y="211.05" width="3.1" height="3.1" rx="1.55" fill="#272727"/><rect x="120.928" y="211.05" width="3.1" height="3.1" rx="1.55" fill="#272727"/><rect x="130.227" y="211.05" width="3.1" height="3.1" rx="1.55" fill="#272727"/><rect x="139.525" y="211.05" width="3.1" height="3.1" rx="1.55" fill="#272727"/><rect x="148.824" y="211.05" width="3.1" height="3.1" rx="1.55" fill="#272727"/><rect x="158.123" y="211.05" width="3.1" height="3.1" rx="1.55" fill="#272727"/><rect x="167.422" y="211.05" width="3.1" height="3.1" rx="1.55" fill="#272727"/><rect x="176.721" y="211.05" width="3.1" height="3.1" rx="1.55" fill="#272727"/><rect x="186.02" y="211.05" width="3.1" height="3.1" rx="1.55" fill="#272727"/><rect x="195.318" y="211.05" width="3.1" height="3.1" rx="1.55" fill="#272727"/><rect x="204.617" y="211.05" width="3.1" height="3.1" rx="1.55" fill="#272727"/><rect x="213.916" y="211.05" width="3.1" height="3.1" rx="1.55" fill="#272727"/><rect x="223.215" y="211.05" width="3.1" height="3.1" rx="1.55" fill="#272727"/><rect x="232.514" y="211.05" width="3.1" height="3.1" rx="1.55" fill="#272727"/><rect x="241.812" y="211.05" width="3.1" height="3.1" rx="1.55" fill="#272727"/><rect x="251.111" y="211.05" width="3.1" height="3.1" rx="1.55" fill="#272727"/><rect x="260.41" y="211.05" width="3.1" height="3.1" rx="1.55" fill="#272727"/><rect x="269.709" y="211.05" width="3.1" height="3.1" rx="1.55" fill="#272727"/><rect x="279.008" y="211.05" width="3.1" height="3.1" rx="1.55" fill="#272727"/><rect x="288.307" y="211.05" width="3.1" height="3.1" rx="1.55" fill="#272727"/><rect x="297.605" y="211.05" width="3.1" height="3.1" rx="1.55" fill="#272727"/><rect x="306.904" y="211.05" width="3.1" height="3.1" rx="1.55" fill="#272727"/><rect x="316.203" y="211.05" width="3.1" height="3.1" rx="1.55" fill="#272727"/><rect x=".043" y="219.152" width="3.1" height="3.1" rx="1.55" fill="#272727"/><rect x="9.342" y="219.152" width="3.1" height="3.1" rx="1.55" fill="#272727"/><rect x="18.641" y="219.152" width="3.1" height="3.1" rx="1.55" fill="#272727"/><rect x="27.939" y="219.152" width="3.1" height="3.1" rx="1.55" fill="#272727"/><rect x="37.238" y="219.152" width="3.1" height="3.1" rx="1.55" fill="#272727"/><rect x="46.537" y="219.152" width="3.1" height="3.1" rx="1.55" fill="#272727"/><rect x="55.836" y="219.152" width="3.1" height="3.1" rx="1.55" fill="#272727"/><rect x="65.135" y="219.152" width="3.1" height="3.1" rx="1.55" fill="#272727"/><rect x="74.434" y="219.152" width="3.1" height="3.1" rx="1.55" fill="#272727"/><rect x="83.732" y="219.152" width="3.1" height="3.1" rx="1.55" fill="#272727"/><rect x="93.031" y="219.152" width="3.1" height="3.1" rx="1.55" fill="#272727"/><rect x="102.33" y="219.152" width="3.1" height="3.1" rx="1.55" fill="#272727"/><rect x="111.629" y="219.152" width="3.1" height="3.1" rx="1.55" fill="#272727"/><rect x="120.928" y="219.152" width="3.1" height="3.1" rx="1.55" fill="#272727"/><rect x="130.227" y="219.152" width="3.1" height="3.1" rx="1.55" fill="#272727"/><rect x="139.525" y="219.152" width="3.1" height="3.1" rx="1.55" fill="#272727"/><rect x="148.824" y="219.152" width="3.1" height="3.1" rx="1.55" fill="#272727"/><rect x="158.123" y="219.152" width="3.1" height="3.1" rx="1.55" fill="#272727"/><rect x="167.422" y="219.152" width="3.1" height="3.1" rx="1.55" fill="#272727"/><rect x="176.721" y="219.152" width="3.1" height="3.1" rx="1.55" fill="#272727"/><rect x="186.02" y="219.152" width="3.1" height="3.1" rx="1.55" fill="#272727"/><rect x="195.318" y="219.152" width="3.1" height="3.1" rx="1.55" fill="#272727"/><rect x="204.617" y="219.152" width="3.1" height="3.1" rx="1.55" fill="#272727"/><rect x="213.916" y="219.152" width="3.1" height="3.1" rx="1.55" fill="#272727"/><rect x="223.215" y="219.152" width="3.1" height="3.1" rx="1.55" fill="#272727"/><rect x="232.514" y="219.152" width="3.1" height="3.1" rx="1.55" fill="#272727"/><rect x="241.812" y="219.152" width="3.1" height="3.1" rx="1.55" fill="#272727"/><rect x="251.111" y="219.152" width="3.1" height="3.1" rx="1.55" fill="#272727"/><rect x="260.41" y="219.152" width="3.1" height="3.1" rx="1.55" fill="#272727"/><rect x="269.709" y="219.152" width="3.1" height="3.1" rx="1.55" fill="#272727"/><rect x="279.008" y="219.152" width="3.1" height="3.1" rx="1.55" fill="#272727"/><rect x="288.307" y="219.152" width="3.1" height="3.1" rx="1.55" fill="#272727"/><rect x="297.605" y="219.152" width="3.1" height="3.1" rx="1.55" fill="#272727"/><rect x="306.904" y="219.152" width="3.1" height="3.1" rx="1.55" fill="#272727"/><rect x="316.203" y="219.152" width="3.1" height="3.1" rx="1.55" fill="#272727"/><rect x=".043" y="227.256" width="3.1" height="3.1" rx="1.55" fill="#272727"/><rect x="9.342" y="227.256" width="3.1" height="3.1" rx="1.55" fill="#272727"/><rect x="18.641" y="227.256" width="3.1" height="3.1" rx="1.55" fill="#272727"/><rect x="27.939" y="227.256" width="3.1" height="3.1" rx="1.55" fill="#272727"/><rect x="37.238" y="227.256" width="3.1" height="3.1" rx="1.55" fill="#272727"/><rect x="46.537" y="227.256" width="3.1" height="3.1" rx="1.55" fill="#272727"/><rect x="55.836" y="227.256" width="3.1" height="3.1" rx="1.55" fill="#272727"/><rect x="65.135" y="227.256" width="3.1" height="3.1" rx="1.55" fill="#272727"/><rect x="74.434" y="227.256" width="3.1" height="3.1" rx="1.55" fill="#272727"/><rect x="83.732" y="227.256" width="3.1" height="3.1" rx="1.55" fill="#272727"/><rect x="93.031" y="227.256" width="3.1" height="3.1" rx="1.55" fill="#272727"/><rect x="102.33" y="227.256" width="3.1" height="3.1" rx="1.55" fill="#272727"/><rect x="111.629" y="227.256" width="3.1" height="3.1" rx="1.55" fill="#272727"/><rect x="120.928" y="227.256" width="3.1" height="3.1" rx="1.55" fill="#272727"/><rect x="130.227" y="227.256" width="3.1" height="3.1" rx="1.55" fill="#272727"/><rect x="139.525" y="227.256" width="3.1" height="3.1" rx="1.55" fill="#272727"/><rect x="148.824" y="227.256" width="3.1" height="3.1" rx="1.55" fill="#272727"/><rect x="158.123" y="227.256" width="3.1" height="3.1" rx="1.55" fill="#272727"/><rect x="167.422" y="227.256" width="3.1" height="3.1" rx="1.55" fill="#272727"/><rect x="176.721" y="227.256" width="3.1" height="3.1" rx="1.55" fill="#272727"/><rect x="186.02" y="227.256" width="3.1" height="3.1" rx="1.55" fill="#272727"/><rect x="195.318" y="227.256" width="3.1" height="3.1" rx="1.55" fill="#272727"/><rect x="204.617" y="227.256" width="3.1" height="3.1" rx="1.55" fill="#272727"/><rect x="213.916" y="227.256" width="3.1" height="3.1" rx="1.55" fill="#272727"/><rect x="223.215" y="227.256" width="3.1" height="3.1" rx="1.55" fill="#272727"/><rect x="232.514" y="227.256" width="3.1" height="3.1" rx="1.55" fill="#272727"/><rect x="241.812" y="227.256" width="3.1" height="3.1" rx="1.55" fill="#272727"/><rect x="251.111" y="227.256" width="3.1" height="3.1" rx="1.55" fill="#272727"/><rect x="260.41" y="227.256" width="3.1" height="3.1" rx="1.55" fill="#272727"/><rect x="269.709" y="227.256" width="3.1" height="3.1" rx="1.55" fill="#272727"/><rect x="279.008" y="227.256" width="3.1" height="3.1" rx="1.55" fill="#272727"/><rect x="288.307" y="227.256" width="3.1" height="3.1" rx="1.55" fill="#272727"/><rect x="297.605" y="227.256" width="3.1" height="3.1" rx="1.55" fill="#272727"/><rect x="306.904" y="227.256" width="3.1" height="3.1" rx="1.55" fill="#272727"/><rect x="316.203" y="227.256" width="3.1" height="3.1" rx="1.55" fill="#272727"/><rect x=".043" y="235.358" width="3.1" height="3.1" rx="1.55" fill="#272727"/><rect x="9.342" y="235.358" width="3.1" height="3.1" rx="1.55" fill="#272727"/><rect x="18.641" y="235.358" width="3.1" height="3.1" rx="1.55" fill="#272727"/><rect x="27.939" y="235.358" width="3.1" height="3.1" rx="1.55" fill="#272727"/><rect x="37.238" y="235.358" width="3.1" height="3.1" rx="1.55" fill="#272727"/><rect x="46.537" y="235.358" width="3.1" height="3.1" rx="1.55" fill="#272727"/><rect x="55.836" y="235.358" width="3.1" height="3.1" rx="1.55" fill="#272727"/><rect x="65.135" y="235.358" width="3.1" height="3.1" rx="1.55" fill="#272727"/><rect x="74.434" y="235.358" width="3.1" height="3.1" rx="1.55" fill="#272727"/><rect x="83.732" y="235.358" width="3.1" height="3.1" rx="1.55" fill="#272727"/><rect x="93.031" y="235.358" width="3.1" height="3.1" rx="1.55" fill="#272727"/><rect x="102.33" y="235.358" width="3.1" height="3.1" rx="1.55" fill="#272727"/><rect x="111.629" y="235.358" width="3.1" height="3.1" rx="1.55" fill="#272727"/><rect x="120.928" y="235.358" width="3.1" height="3.1" rx="1.55" fill="#272727"/><rect x="130.227" y="235.358" width="3.1" height="3.1" rx="1.55" fill="#272727"/><rect x="139.525" y="235.358" width="3.1" height="3.1" rx="1.55" fill="#272727"/><rect x="148.824" y="235.358" width="3.1" height="3.1" rx="1.55" fill="#272727"/><rect x="158.123" y="235.358" width="3.1" height="3.1" rx="1.55" fill="#272727"/><rect x="167.422" y="235.358" width="3.1" height="3.1" rx="1.55" fill="#272727"/><rect x="176.721" y="235.358" width="3.1" height="3.1" rx="1.55" fill="#272727"/><rect x="186.02" y="235.358" width="3.1" height="3.1" rx="1.55" fill="#272727"/><rect x="195.318" y="235.358" width="3.1" height="3.1" rx="1.55" fill="#272727"/><rect x="204.617" y="235.358" width="3.1" height="3.1" rx="1.55" fill="#272727"/><rect x="213.916" y="235.358" width="3.1" height="3.1" rx="1.55" fill="#272727"/><rect x="223.215" y="235.358" width="3.1" height="3.1" rx="1.55" fill="#272727"/><rect x="232.514" y="235.358" width="3.1" height="3.1" rx="1.55" fill="#272727"/><rect x="241.812" y="235.358" width="3.1" height="3.1" rx="1.55" fill="#272727"/><rect x="251.111" y="235.358" width="3.1" height="3.1" rx="1.55" fill="#272727"/><rect x="260.41" y="235.358" width="3.1" height="3.1" rx="1.55" fill="#272727"/><rect x="269.709" y="235.358" width="3.1" height="3.1" rx="1.55" fill="#272727"/><rect x="279.008" y="235.358" width="3.1" height="3.1" rx="1.55" fill="#272727"/><rect x="288.307" y="235.358" width="3.1" height="3.1" rx="1.55" fill="#272727"/><rect x="297.605" y="235.358" width="3.1" height="3.1" rx="1.55" fill="#272727"/><rect x="306.904" y="235.358" width="3.1" height="3.1" rx="1.55" fill="#272727"/><rect x="316.203" y="235.358" width="3.1" height="3.1" rx="1.55" fill="#272727"/><rect x=".043" y="243.462" width="3.1" height="3.1" rx="1.55" fill="#272727"/><rect x="9.342" y="243.462" width="3.1" height="3.1" rx="1.55" fill="#272727"/><rect x="18.641" y="243.462" width="3.1" height="3.1" rx="1.55" fill="#272727"/><rect x="27.939" y="243.462" width="3.1" height="3.1" rx="1.55" fill="#272727"/><rect x="37.238" y="243.462" width="3.1" height="3.1" rx="1.55" fill="#272727"/><rect x="46.537" y="243.462" width="3.1" height="3.1" rx="1.55" fill="#272727"/><rect x="55.836" y="243.462" width="3.1" height="3.1" rx="1.55" fill="#272727"/><rect x="65.135" y="243.462" width="3.1" height="3.1" rx="1.55" fill="#272727"/><rect x="74.434" y="243.462" width="3.1" height="3.1" rx="1.55" fill="#272727"/><rect x="83.732" y="243.462" width="3.1" height="3.1" rx="1.55" fill="#272727"/><rect x="93.031" y="243.462" width="3.1" height="3.1" rx="1.55" fill="#272727"/><rect x="102.33" y="243.462" width="3.1" height="3.1" rx="1.55" fill="#272727"/><rect x="111.629" y="243.462" width="3.1" height="3.1" rx="1.55" fill="#272727"/><rect x="120.928" y="243.462" width="3.1" height="3.1" rx="1.55" fill="#272727"/><rect x="130.227" y="243.462" width="3.1" height="3.1" rx="1.55" fill="#272727"/><rect x="139.525" y="243.462" width="3.1" height="3.1" rx="1.55" fill="#272727"/><rect x="148.824" y="243.462" width="3.1" height="3.1" rx="1.55" fill="#272727"/><rect x="158.123" y="243.462" width="3.1" height="3.1" rx="1.55" fill="#272727"/><rect x="167.422" y="243.462" width="3.1" height="3.1" rx="1.55" fill="#272727"/><rect x="176.721" y="243.462" width="3.1" height="3.1" rx="1.55" fill="#272727"/><rect x="186.02" y="243.462" width="3.1" height="3.1" rx="1.55" fill="#272727"/><rect x="195.318" y="243.462" width="3.1" height="3.1" rx="1.55" fill="#272727"/><rect x="204.617" y="243.462" width="3.1" height="3.1" rx="1.55" fill="#272727"/><rect x="213.916" y="243.462" width="3.1" height="3.1" rx="1.55" fill="#272727"/><rect x="223.215" y="243.462" width="3.1" height="3.1" rx="1.55" fill="#272727"/><rect x="232.514" y="243.462" width="3.1" height="3.1" rx="1.55" fill="#272727"/><rect x="241.812" y="243.462" width="3.1" height="3.1" rx="1.55" fill="#272727"/><rect x="251.111" y="243.462" width="3.1" height="3.1" rx="1.55" fill="#272727"/><rect x="260.41" y="243.462" width="3.1" height="3.1" rx="1.55" fill="#272727"/><rect x="269.709" y="243.462" width="3.1" height="3.1" rx="1.55" fill="#272727"/><rect x="279.008" y="243.462" width="3.1" height="3.1" rx="1.55" fill="#272727"/><rect x="288.307" y="243.462" width="3.1" height="3.1" rx="1.55" fill="#272727"/><rect x="297.605" y="243.462" width="3.1" height="3.1" rx="1.55" fill="#272727"/><rect x="306.904" y="243.462" width="3.1" height="3.1" rx="1.55" fill="#272727"/><rect x="316.203" y="243.462" width="3.1" height="3.1" rx="1.55" fill="#272727"/><rect x=".043" y="251.564" width="3.1" height="3.1" rx="1.55" fill="#272727"/><rect x="9.342" y="251.564" width="3.1" height="3.1" rx="1.55" fill="#272727"/><rect x="18.641" y="251.564" width="3.1" height="3.1" rx="1.55" fill="#272727"/><rect x="27.939" y="251.564" width="3.1" height="3.1" rx="1.55" fill="#272727"/><rect x="37.238" y="251.564" width="3.1" height="3.1" rx="1.55" fill="#272727"/><rect x="46.537" y="251.564" width="3.1" height="3.1" rx="1.55" fill="#272727"/><rect x="55.836" y="251.564" width="3.1" height="3.1" rx="1.55" fill="#272727"/><rect x="65.135" y="251.564" width="3.1" height="3.1" rx="1.55" fill="#272727"/><rect x="74.434" y="251.564" width="3.1" height="3.1" rx="1.55" fill="#272727"/><rect x="83.732" y="251.564" width="3.1" height="3.1" rx="1.55" fill="#272727"/><rect x="93.031" y="251.564" width="3.1" height="3.1" rx="1.55" fill="#272727"/><rect x="102.33" y="251.564" width="3.1" height="3.1" rx="1.55" fill="#272727"/><rect x="111.629" y="251.564" width="3.1" height="3.1" rx="1.55" fill="#272727"/><rect x="120.928" y="251.564" width="3.1" height="3.1" rx="1.55" fill="#272727"/><rect x="130.227" y="251.564" width="3.1" height="3.1" rx="1.55" fill="#272727"/><rect x="139.525" y="251.564" width="3.1" height="3.1" rx="1.55" fill="#272727"/><rect x="148.824" y="251.564" width="3.1" height="3.1" rx="1.55" fill="#272727"/><rect x="158.123" y="251.564" width="3.1" height="3.1" rx="1.55" fill="#272727"/><rect x="167.422" y="251.564" width="3.1" height="3.1" rx="1.55" fill="#272727"/><rect x="176.721" y="251.564" width="3.1" height="3.1" rx="1.55" fill="#272727"/><rect x="186.02" y="251.564" width="3.1" height="3.1" rx="1.55" fill="#272727"/><rect x="195.318" y="251.564" width="3.1" height="3.1" rx="1.55" fill="#272727"/><rect x="204.617" y="251.564" width="3.1" height="3.1" rx="1.55" fill="#272727"/><rect x="213.916" y="251.564" width="3.1" height="3.1" rx="1.55" fill="#272727"/><rect x="223.215" y="251.564" width="3.1" height="3.1" rx="1.55" fill="#272727"/><rect x="232.514" y="251.564" width="3.1" height="3.1" rx="1.55" fill="#272727"/><rect x="241.812" y="251.564" width="3.1" height="3.1" rx="1.55" fill="#272727"/><rect x="251.111" y="251.564" width="3.1" height="3.1" rx="1.55" fill="#272727"/><rect x="260.41" y="251.564" width="3.1" height="3.1" rx="1.55" fill="#272727"/><rect x="269.709" y="251.564" width="3.1" height="3.1" rx="1.55" fill="#272727"/><rect x="279.008" y="251.564" width="3.1" height="3.1" rx="1.55" fill="#272727"/><rect x="288.307" y="251.564" width="3.1" height="3.1" rx="1.55" fill="#272727"/><rect x="297.605" y="251.564" width="3.1" height="3.1" rx="1.55" fill="#272727"/><rect x="306.904" y="251.564" width="3.1" height="3.1" rx="1.55" fill="#272727"/><rect x="316.203" y="251.564" width="3.1" height="3.1" rx="1.55" fill="#272727"/><rect x=".043" y="259.668" width="3.1" height="3.1" rx="1.55" fill="#272727"/><rect x="9.342" y="259.668" width="3.1" height="3.1" rx="1.55" fill="#272727"/><rect x="18.641" y="259.668" width="3.1" height="3.1" rx="1.55" fill="#272727"/><rect x="27.939" y="259.668" width="3.1" height="3.1" rx="1.55" fill="#272727"/><rect x="37.238" y="259.668" width="3.1" height="3.1" rx="1.55" fill="#272727"/><rect x="46.537" y="259.668" width="3.1" height="3.1" rx="1.55" fill="#272727"/><rect x="55.836" y="259.668" width="3.1" height="3.1" rx="1.55" fill="#272727"/><rect x="65.135" y="259.668" width="3.1" height="3.1" rx="1.55" fill="#272727"/><rect x="74.434" y="259.668" width="3.1" height="3.1" rx="1.55" fill="#272727"/><rect x="83.732" y="259.668" width="3.1" height="3.1" rx="1.55" fill="#272727"/><rect x="93.031" y="259.668" width="3.1" height="3.1" rx="1.55" fill="#272727"/><rect x="102.33" y="259.668" width="3.1" height="3.1" rx="1.55" fill="#272727"/><rect x="111.629" y="259.668" width="3.1" height="3.1" rx="1.55" fill="#272727"/><rect x="120.928" y="259.668" width="3.1" height="3.1" rx="1.55" fill="#272727"/><rect x="130.227" y="259.668" width="3.1" height="3.1" rx="1.55" fill="#272727"/><rect x="139.525" y="259.668" width="3.1" height="3.1" rx="1.55" fill="#272727"/><rect x="148.824" y="259.668" width="3.1" height="3.1" rx="1.55" fill="#272727"/><rect x="158.123" y="259.668" width="3.1" height="3.1" rx="1.55" fill="#272727"/><rect x="167.422" y="259.668" width="3.1" height="3.1" rx="1.55" fill="#272727"/><rect x="176.721" y="259.668" width="3.1" height="3.1" rx="1.55" fill="#272727"/><rect x="186.02" y="259.668" width="3.1" height="3.1" rx="1.55" fill="#272727"/><rect x="195.318" y="259.668" width="3.1" height="3.1" rx="1.55" fill="#272727"/><rect x="204.617" y="259.668" width="3.1" height="3.1" rx="1.55" fill="#272727"/><rect x="213.916" y="259.668" width="3.1" height="3.1" rx="1.55" fill="#272727"/><rect x="223.215" y="259.668" width="3.1" height="3.1" rx="1.55" fill="#272727"/><rect x="232.514" y="259.668" width="3.1" height="3.1" rx="1.55" fill="#272727"/><rect x="241.812" y="259.668" width="3.1" height="3.1" rx="1.55" fill="#272727"/><rect x="251.111" y="259.668" width="3.1" height="3.1" rx="1.55" fill="#272727"/><rect x="260.41" y="259.668" width="3.1" height="3.1" rx="1.55" fill="#272727"/><rect x="269.709" y="259.668" width="3.1" height="3.1" rx="1.55" fill="#272727"/><rect x="279.008" y="259.668" width="3.1" height="3.1" rx="1.55" fill="#272727"/><rect x="288.307" y="259.668" width="3.1" height="3.1" rx="1.55" fill="#272727"/><rect x="297.605" y="259.668" width="3.1" height="3.1" rx="1.55" fill="#272727"/><rect x="306.904" y="259.668" width="3.1" height="3.1" rx="1.55" fill="#272727"/><rect x="316.203" y="259.668" width="3.1" height="3.1" rx="1.55" fill="#272727"/><rect x=".043" y="267.771" width="3.1" height="3.1" rx="1.55" fill="#272727"/><rect x="9.342" y="267.771" width="3.1" height="3.1" rx="1.55" fill="#272727"/><rect x="18.641" y="267.771" width="3.1" height="3.1" rx="1.55" fill="#272727"/><rect x="27.939" y="267.771" width="3.1" height="3.1" rx="1.55" fill="#272727"/><rect x="37.238" y="267.771" width="3.1" height="3.1" rx="1.55" fill="#272727"/><rect x="46.537" y="267.771" width="3.1" height="3.1" rx="1.55" fill="#272727"/><rect x="55.836" y="267.771" width="3.1" height="3.1" rx="1.55" fill="#272727"/><rect x="65.135" y="267.771" width="3.1" height="3.1" rx="1.55" fill="#272727"/><rect x="74.434" y="267.771" width="3.1" height="3.1" rx="1.55" fill="#272727"/><rect x="83.732" y="267.771" width="3.1" height="3.1" rx="1.55" fill="#272727"/><rect x="93.031" y="267.771" width="3.1" height="3.1" rx="1.55" fill="#272727"/><rect x="102.33" y="267.771" width="3.1" height="3.1" rx="1.55" fill="#272727"/><rect x="111.629" y="267.771" width="3.1" height="3.1" rx="1.55" fill="#272727"/><rect x="120.928" y="267.771" width="3.1" height="3.1" rx="1.55" fill="#272727"/><rect x="130.227" y="267.771" width="3.1" height="3.1" rx="1.55" fill="#272727"/><rect x="139.525" y="267.771" width="3.1" height="3.1" rx="1.55" fill="#272727"/><rect x="148.824" y="267.771" width="3.1" height="3.1" rx="1.55" fill="#272727"/><rect x="158.123" y="267.771" width="3.1" height="3.1" rx="1.55" fill="#272727"/><rect x="167.422" y="267.771" width="3.1" height="3.1" rx="1.55" fill="#272727"/><rect x="176.721" y="267.771" width="3.1" height="3.1" rx="1.55" fill="#272727"/><rect x="186.02" y="267.771" width="3.1" height="3.1" rx="1.55" fill="#272727"/><rect x="195.318" y="267.771" width="3.1" height="3.1" rx="1.55" fill="#272727"/><rect x="204.617" y="267.771" width="3.1" height="3.1" rx="1.55" fill="#272727"/><rect x="213.916" y="267.771" width="3.1" height="3.1" rx="1.55" fill="#272727"/><rect x="223.215" y="267.771" width="3.1" height="3.1" rx="1.55" fill="#272727"/><rect x="232.514" y="267.771" width="3.1" height="3.1" rx="1.55" fill="#272727"/><rect x="241.812" y="267.771" width="3.1" height="3.1" rx="1.55" fill="#272727"/><rect x="251.111" y="267.771" width="3.1" height="3.1" rx="1.55" fill="#272727"/><rect x="260.41" y="267.771" width="3.1" height="3.1" rx="1.55" fill="#272727"/><rect x="269.709" y="267.771" width="3.1" height="3.1" rx="1.55" fill="#272727"/><rect x="279.008" y="267.771" width="3.1" height="3.1" rx="1.55" fill="#272727"/><rect x="288.307" y="267.771" width="3.1" height="3.1" rx="1.55" fill="#272727"/><rect x="297.605" y="267.771" width="3.1" height="3.1" rx="1.55" fill="#272727"/><rect x="306.904" y="267.771" width="3.1" height="3.1" rx="1.55" fill="#272727"/><rect x="316.203" y="267.771" width="3.1" height="3.1" rx="1.55" fill="#272727"/><rect x=".043" y="275.874" width="3.1" height="3.1" rx="1.55" fill="#272727"/><rect x="9.342" y="275.874" width="3.1" height="3.1" rx="1.55" fill="#272727"/><rect x="18.641" y="275.874" width="3.1" height="3.1" rx="1.55" fill="#272727"/><rect x="27.939" y="275.874" width="3.1" height="3.1" rx="1.55" fill="#272727"/><rect x="37.238" y="275.874" width="3.1" height="3.1" rx="1.55" fill="#272727"/><rect x="46.537" y="275.874" width="3.1" height="3.1" rx="1.55" fill="#272727"/><rect x="55.836" y="275.874" width="3.1" height="3.1" rx="1.55" fill="#272727"/><rect x="65.135" y="275.874" width="3.1" height="3.1" rx="1.55" fill="#272727"/><rect x="74.434" y="275.874" width="3.1" height="3.1" rx="1.55" fill="#272727"/><rect x="83.732" y="275.874" width="3.1" height="3.1" rx="1.55" fill="#272727"/><rect x="93.031" y="275.874" width="3.1" height="3.1" rx="1.55" fill="#272727"/><rect x="102.33" y="275.874" width="3.1" height="3.1" rx="1.55" fill="#272727"/><rect x="111.629" y="275.874" width="3.1" height="3.1" rx="1.55" fill="#272727"/><rect x="120.928" y="275.874" width="3.1" height="3.1" rx="1.55" fill="#272727"/><rect x="130.227" y="275.874" width="3.1" height="3.1" rx="1.55" fill="#272727"/><rect x="139.525" y="275.874" width="3.1" height="3.1" rx="1.55" fill="#272727"/><rect x="148.824" y="275.874" width="3.1" height="3.1" rx="1.55" fill="#272727"/><rect x="158.123" y="275.874" width="3.1" height="3.1" rx="1.55" fill="#272727"/><rect x="167.422" y="275.874" width="3.1" height="3.1" rx="1.55" fill="#272727"/><rect x="176.721" y="275.874" width="3.1" height="3.1" rx="1.55" fill="#272727"/><rect x="186.02" y="275.874" width="3.1" height="3.1" rx="1.55" fill="#272727"/><rect x="195.318" y="275.874" width="3.1" height="3.1" rx="1.55" fill="#272727"/><rect x="204.617" y="275.874" width="3.1" height="3.1" rx="1.55" fill="#272727"/><rect x="213.916" y="275.874" width="3.1" height="3.1" rx="1.55" fill="#272727"/><rect x="223.215" y="275.874" width="3.1" height="3.1" rx="1.55" fill="#272727"/><rect x="232.514" y="275.874" width="3.1" height="3.1" rx="1.55" fill="#272727"/><rect x="241.812" y="275.874" width="3.1" height="3.1" rx="1.55" fill="#272727"/><rect x="251.111" y="275.874" width="3.1" height="3.1" rx="1.55" fill="#272727"/><rect x="260.41" y="275.874" width="3.1" height="3.1" rx="1.55" fill="#272727"/><rect x="269.709" y="275.874" width="3.1" height="3.1" rx="1.55" fill="#272727"/><rect x="279.008" y="275.874" width="3.1" height="3.1" rx="1.55" fill="#272727"/><rect x="288.307" y="275.874" width="3.1" height="3.1" rx="1.55" fill="#272727"/><rect x="297.605" y="275.874" width="3.1" height="3.1" rx="1.55" fill="#272727"/><rect x="306.904" y="275.874" width="3.1" height="3.1" rx="1.55" fill="#272727"/><rect x="316.203" y="275.874" width="3.1" height="3.1" rx="1.55" fill="#272727"/><rect x=".043" y="283.978" width="3.1" height="3.1" rx="1.55" fill="#272727"/><rect x="9.342" y="283.978" width="3.1" height="3.1" rx="1.55" fill="#272727"/><rect x="18.641" y="283.978" width="3.1" height="3.1" rx="1.55" fill="#272727"/><rect x="27.939" y="283.978" width="3.1" height="3.1" rx="1.55" fill="#272727"/><rect x="37.238" y="283.978" width="3.1" height="3.1" rx="1.55" fill="#272727"/><rect x="46.537" y="283.978" width="3.1" height="3.1" rx="1.55" fill="#272727"/><rect x="55.836" y="283.978" width="3.1" height="3.1" rx="1.55" fill="#272727"/><rect x="65.135" y="283.978" width="3.1" height="3.1" rx="1.55" fill="#272727"/><rect x="74.434" y="283.978" width="3.1" height="3.1" rx="1.55" fill="#272727"/><rect x="83.732" y="283.978" width="3.1" height="3.1" rx="1.55" fill="#272727"/><rect x="93.031" y="283.978" width="3.1" height="3.1" rx="1.55" fill="#272727"/><rect x="102.33" y="283.978" width="3.1" height="3.1" rx="1.55" fill="#272727"/><rect x="111.629" y="283.978" width="3.1" height="3.1" rx="1.55" fill="#272727"/><rect x="120.928" y="283.978" width="3.1" height="3.1" rx="1.55" fill="#272727"/><rect x="130.227" y="283.978" width="3.1" height="3.1" rx="1.55" fill="#272727"/><rect x="139.525" y="283.978" width="3.1" height="3.1" rx="1.55" fill="#272727"/><rect x="148.824" y="283.978" width="3.1" height="3.1" rx="1.55" fill="#272727"/><rect x="158.123" y="283.978" width="3.1" height="3.1" rx="1.55" fill="#272727"/><rect x="167.422" y="283.978" width="3.1" height="3.1" rx="1.55" fill="#272727"/><rect x="176.721" y="283.978" width="3.1" height="3.1" rx="1.55" fill="#272727"/><rect x="186.02" y="283.978" width="3.1" height="3.1" rx="1.55" fill="#272727"/><rect x="195.318" y="283.978" width="3.1" height="3.1" rx="1.55" fill="#272727"/><rect x="204.617" y="283.978" width="3.1" height="3.1" rx="1.55" fill="#272727"/><rect x="213.916" y="283.978" width="3.1" height="3.1" rx="1.55" fill="#272727"/><rect x="223.215" y="283.978" width="3.1" height="3.1" rx="1.55" fill="#272727"/><rect x="232.514" y="283.978" width="3.1" height="3.1" rx="1.55" fill="#272727"/><rect x="241.812" y="283.978" width="3.1" height="3.1" rx="1.55" fill="#272727"/><rect x="251.111" y="283.978" width="3.1" height="3.1" rx="1.55" fill="#272727"/><rect x="260.41" y="283.978" width="3.1" height="3.1" rx="1.55" fill="#272727"/><rect x="269.709" y="283.978" width="3.1" height="3.1" rx="1.55" fill="#272727"/><rect x="279.008" y="283.978" width="3.1" height="3.1" rx="1.55" fill="#272727"/><rect x="288.307" y="283.978" width="3.1" height="3.1" rx="1.55" fill="#272727"/><rect x="297.605" y="283.978" width="3.1" height="3.1" rx="1.55" fill="#272727"/><rect x="306.904" y="283.978" width="3.1" height="3.1" rx="1.55" fill="#272727"/><rect x="316.203" y="283.978" width="3.1" height="3.1" rx="1.55" fill="#272727"/><rect x=".043" y="292.08" width="3.1" height="3.1" rx="1.55" fill="#272727"/><rect x="9.342" y="292.08" width="3.1" height="3.1" rx="1.55" fill="#272727"/><rect x="18.641" y="292.08" width="3.1" height="3.1" rx="1.55" fill="#272727"/><rect x="27.939" y="292.08" width="3.1" height="3.1" rx="1.55" fill="#272727"/><rect x="37.238" y="292.08" width="3.1" height="3.1" rx="1.55" fill="#272727"/><rect x="46.537" y="292.08" width="3.1" height="3.1" rx="1.55" fill="#272727"/><rect x="55.836" y="292.08" width="3.1" height="3.1" rx="1.55" fill="#272727"/><rect x="65.135" y="292.08" width="3.1" height="3.1" rx="1.55" fill="#272727"/><rect x="74.434" y="292.08" width="3.1" height="3.1" rx="1.55" fill="#272727"/><rect x="83.732" y="292.08" width="3.1" height="3.1" rx="1.55" fill="#272727"/><rect x="93.031" y="292.08" width="3.1" height="3.1" rx="1.55" fill="#272727"/><rect x="102.33" y="292.08" width="3.1" height="3.1" rx="1.55" fill="#272727"/><rect x="111.629" y="292.08" width="3.1" height="3.1" rx="1.55" fill="#272727"/><rect x="120.928" y="292.08" width="3.1" height="3.1" rx="1.55" fill="#272727"/><rect x="130.227" y="292.08" width="3.1" height="3.1" rx="1.55" fill="#272727"/><rect x="139.525" y="292.08" width="3.1" height="3.1" rx="1.55" fill="#272727"/><rect x="148.824" y="292.08" width="3.1" height="3.1" rx="1.55" fill="#272727"/><rect x="158.123" y="292.08" width="3.1" height="3.1" rx="1.55" fill="#272727"/><rect x="167.422" y="292.08" width="3.1" height="3.1" rx="1.55" fill="#272727"/><rect x="176.721" y="292.08" width="3.1" height="3.1" rx="1.55" fill="#272727"/><rect x="186.02" y="292.08" width="3.1" height="3.1" rx="1.55" fill="#272727"/><rect x="195.318" y="292.08" width="3.1" height="3.1" rx="1.55" fill="#272727"/><rect x="204.617" y="292.08" width="3.1" height="3.1" rx="1.55" fill="#272727"/><rect x="213.916" y="292.08" width="3.1" height="3.1" rx="1.55" fill="#272727"/><rect x="223.215" y="292.08" width="3.1" height="3.1" rx="1.55" fill="#272727"/><rect x="232.514" y="292.08" width="3.1" height="3.1" rx="1.55" fill="#272727"/><rect x="241.812" y="292.08" width="3.1" height="3.1" rx="1.55" fill="#272727"/><rect x="251.111" y="292.08" width="3.1" height="3.1" rx="1.55" fill="#272727"/><rect x="260.41" y="292.08" width="3.1" height="3.1" rx="1.55" fill="#272727"/><rect x="269.709" y="292.08" width="3.1" height="3.1" rx="1.55" fill="#272727"/><rect x="279.008" y="292.08" width="3.1" height="3.1" rx="1.55" fill="#272727"/><rect x="288.307" y="292.08" width="3.1" height="3.1" rx="1.55" fill="#272727"/><rect x="297.605" y="292.08" width="3.1" height="3.1" rx="1.55" fill="#272727"/><rect x="306.904" y="292.08" width="3.1" height="3.1" rx="1.55" fill="#272727"/><rect x="316.203" y="292.08" width="3.1" height="3.1" rx="1.55" fill="#272727"/><rect x=".043" y="300.184" width="3.1" height="3.1" rx="1.55" fill="#272727"/><rect x="9.342" y="300.184" width="3.1" height="3.1" rx="1.55" fill="#272727"/><rect x="18.641" y="300.184" width="3.1" height="3.1" rx="1.55" fill="#272727"/><rect x="27.939" y="300.184" width="3.1" height="3.1" rx="1.55" fill="#272727"/><rect x="37.238" y="300.184" width="3.1" height="3.1" rx="1.55" fill="#272727"/><rect x="46.537" y="300.184" width="3.1" height="3.1" rx="1.55" fill="#272727"/><rect x="55.836" y="300.184" width="3.1" height="3.1" rx="1.55" fill="#272727"/><rect x="65.135" y="300.184" width="3.1" height="3.1" rx="1.55" fill="#272727"/><rect x="74.434" y="300.184" width="3.1" height="3.1" rx="1.55" fill="#272727"/><rect x="83.732" y="300.184" width="3.1" height="3.1" rx="1.55" fill="#272727"/><rect x="93.031" y="300.184" width="3.1" height="3.1" rx="1.55" fill="#272727"/><rect x="102.33" y="300.184" width="3.1" height="3.1" rx="1.55" fill="#272727"/><rect x="111.629" y="300.184" width="3.1" height="3.1" rx="1.55" fill="#272727"/><rect x="120.928" y="300.184" width="3.1" height="3.1" rx="1.55" fill="#272727"/><rect x="130.227" y="300.184" width="3.1" height="3.1" rx="1.55" fill="#272727"/><rect x="139.525" y="300.184" width="3.1" height="3.1" rx="1.55" fill="#272727"/><rect x="148.824" y="300.184" width="3.1" height="3.1" rx="1.55" fill="#272727"/><rect x="158.123" y="300.184" width="3.1" height="3.1" rx="1.55" fill="#272727"/><rect x="167.422" y="300.184" width="3.1" height="3.1" rx="1.55" fill="#272727"/><rect x="176.721" y="300.184" width="3.1" height="3.1" rx="1.55" fill="#272727"/><rect x="186.02" y="300.184" width="3.1" height="3.1" rx="1.55" fill="#272727"/><rect x="195.318" y="300.184" width="3.1" height="3.1" rx="1.55" fill="#272727"/><rect x="204.617" y="300.184" width="3.1" height="3.1" rx="1.55" fill="#272727"/><rect x="213.916" y="300.184" width="3.1" height="3.1" rx="1.55" fill="#272727"/><rect x="223.215" y="300.184" width="3.1" height="3.1" rx="1.55" fill="#272727"/><rect x="232.514" y="300.184" width="3.1" height="3.1" rx="1.55" fill="#272727"/><rect x="241.812" y="300.184" width="3.1" height="3.1" rx="1.55" fill="#272727"/><rect x="251.111" y="300.184" width="3.1" height="3.1" rx="1.55" fill="#272727"/><rect x="260.41" y="300.184" width="3.1" height="3.1" rx="1.55" fill="#272727"/><rect x="269.709" y="300.184" width="3.1" height="3.1" rx="1.55" fill="#272727"/><rect x="279.008" y="300.184" width="3.1" height="3.1" rx="1.55" fill="#272727"/><rect x="288.307" y="300.184" width="3.1" height="3.1" rx="1.55" fill="#272727"/><rect x="297.605" y="300.184" width="3.1" height="3.1" rx="1.55" fill="#272727"/><rect x="306.904" y="300.184" width="3.1" height="3.1" rx="1.55" fill="#272727"/><rect x="316.203" y="300.184" width="3.1" height="3.1" rx="1.55" fill="#272727"/><rect x=".043" y="308.286" width="3.1" height="3.1" rx="1.55" fill="#272727"/><rect x="9.342" y="308.286" width="3.1" height="3.1" rx="1.55" fill="#272727"/><rect x="18.641" y="308.286" width="3.1" height="3.1" rx="1.55" fill="#272727"/><rect x="27.939" y="308.286" width="3.1" height="3.1" rx="1.55" fill="#272727"/><rect x="37.238" y="308.286" width="3.1" height="3.1" rx="1.55" fill="#272727"/><rect x="46.537" y="308.286" width="3.1" height="3.1" rx="1.55" fill="#272727"/><rect x="55.836" y="308.286" width="3.1" height="3.1" rx="1.55" fill="#272727"/><rect x="65.135" y="308.286" width="3.1" height="3.1" rx="1.55" fill="#272727"/><rect x="74.434" y="308.286" width="3.1" height="3.1" rx="1.55" fill="#272727"/><rect x="83.732" y="308.286" width="3.1" height="3.1" rx="1.55" fill="#272727"/><rect x="93.031" y="308.286" width="3.1" height="3.1" rx="1.55" fill="#272727"/><rect x="102.33" y="308.286" width="3.1" height="3.1" rx="1.55" fill="#272727"/><rect x="111.629" y="308.286" width="3.1" height="3.1" rx="1.55" fill="#272727"/><rect x="120.928" y="308.286" width="3.1" height="3.1" rx="1.55" fill="#272727"/><rect x="130.227" y="308.286" width="3.1" height="3.1" rx="1.55" fill="#272727"/><rect x="139.525" y="308.286" width="3.1" height="3.1" rx="1.55" fill="#272727"/><rect x="148.824" y="308.286" width="3.1" height="3.1" rx="1.55" fill="#272727"/><rect x="158.123" y="308.286" width="3.1" height="3.1" rx="1.55" fill="#272727"/><rect x="167.422" y="308.286" width="3.1" height="3.1" rx="1.55" fill="#272727"/><rect x="176.721" y="308.286" width="3.1" height="3.1" rx="1.55" fill="#272727"/><rect x="186.02" y="308.286" width="3.1" height="3.1" rx="1.55" fill="#272727"/><rect x="195.318" y="308.286" width="3.1" height="3.1" rx="1.55" fill="#272727"/><rect x="204.617" y="308.286" width="3.1" height="3.1" rx="1.55" fill="#272727"/><rect x="213.916" y="308.286" width="3.1" height="3.1" rx="1.55" fill="#272727"/><rect x="223.215" y="308.286" width="3.1" height="3.1" rx="1.55" fill="#272727"/><rect x="232.514" y="308.286" width="3.1" height="3.1" rx="1.55" fill="#272727"/><rect x="241.812" y="308.286" width="3.1" height="3.1" rx="1.55" fill="#272727"/><rect x="251.111" y="308.286" width="3.1" height="3.1" rx="1.55" fill="#272727"/><rect x="260.41" y="308.286" width="3.1" height="3.1" rx="1.55" fill="#272727"/><rect x="269.709" y="308.286" width="3.1" height="3.1" rx="1.55" fill="#272727"/><rect x="279.008" y="308.286" width="3.1" height="3.1" rx="1.55" fill="#272727"/><rect x="288.307" y="308.286" width="3.1" height="3.1" rx="1.55" fill="#272727"/><rect x="297.605" y="308.286" width="3.1" height="3.1" rx="1.55" fill="#272727"/><rect x="306.904" y="308.286" width="3.1" height="3.1" rx="1.55" fill="#272727"/><rect x="316.203" y="308.286" width="3.1" height="3.1" rx="1.55" fill="#272727"/><rect x=".043" y="316.39" width="3.1" height="3.1" rx="1.55" fill="#272727"/><rect x="9.342" y="316.39" width="3.1" height="3.1" rx="1.55" fill="#272727"/><rect x="18.641" y="316.39" width="3.1" height="3.1" rx="1.55" fill="#272727"/><rect x="27.939" y="316.39" width="3.1" height="3.1" rx="1.55" fill="#272727"/><rect x="37.238" y="316.39" width="3.1" height="3.1" rx="1.55" fill="#272727"/><rect x="46.537" y="316.39" width="3.1" height="3.1" rx="1.55" fill="#272727"/><rect x="55.836" y="316.39" width="3.1" height="3.1" rx="1.55" fill="#272727"/><rect x="65.135" y="316.39" width="3.1" height="3.1" rx="1.55" fill="#272727"/><rect x="74.434" y="316.39" width="3.1" height="3.1" rx="1.55" fill="#272727"/><rect x="83.732" y="316.39" width="3.1" height="3.1" rx="1.55" fill="#272727"/><rect x="93.031" y="316.39" width="3.1" height="3.1" rx="1.55" fill="#272727"/><rect x="102.33" y="316.39" width="3.1" height="3.1" rx="1.55" fill="#272727"/><rect x="111.629" y="316.39" width="3.1" height="3.1" rx="1.55" fill="#272727"/><rect x="120.928" y="316.39" width="3.1" height="3.1" rx="1.55" fill="#272727"/><rect x="130.227" y="316.39" width="3.1" height="3.1" rx="1.55" fill="#272727"/><rect x="139.525" y="316.39" width="3.1" height="3.1" rx="1.55" fill="#272727"/><rect x="148.824" y="316.39" width="3.1" height="3.1" rx="1.55" fill="#272727"/><rect x="158.123" y="316.39" width="3.1" height="3.1" rx="1.55" fill="#272727"/><rect x="167.422" y="316.39" width="3.1" height="3.1" rx="1.55" fill="#272727"/><rect x="176.721" y="316.39" width="3.1" height="3.1" rx="1.55" fill="#272727"/><rect x="186.02" y="316.39" width="3.1" height="3.1" rx="1.55" fill="#272727"/><rect x="195.318" y="316.39" width="3.1" height="3.1" rx="1.55" fill="#272727"/><rect x="204.617" y="316.39" width="3.1" height="3.1" rx="1.55" fill="#272727"/><rect x="213.916" y="316.39" width="3.1" height="3.1" rx="1.55" fill="#272727"/><rect x="223.215" y="316.39" width="3.1" height="3.1" rx="1.55" fill="#272727"/><rect x="232.514" y="316.39" width="3.1" height="3.1" rx="1.55" fill="#272727"/><rect x="241.812" y="316.39" width="3.1" height="3.1" rx="1.55" fill="#272727"/><rect x="251.111" y="316.39" width="3.1" height="3.1" rx="1.55" fill="#272727"/><rect x="260.41" y="316.39" width="3.1" height="3.1" rx="1.55" fill="#272727"/><rect x="269.709" y="316.39" width="3.1" height="3.1" rx="1.55" fill="#272727"/><rect x="279.008" y="316.39" width="3.1" height="3.1" rx="1.55" fill="#272727"/><rect x="288.307" y="316.39" width="3.1" height="3.1" rx="1.55" fill="#272727"/><rect x="297.605" y="316.39" width="3.1" height="3.1" rx="1.55" fill="#272727"/><rect x="306.904" y="316.39" width="3.1" height="3.1" rx="1.55" fill="#272727"/><rect x="316.203" y="316.39" width="3.1" height="3.1" rx="1.55" fill="#272727"/><rect x=".043" y="324.492" width="3.1" height="3.1" rx="1.55" fill="#272727"/><rect x="9.342" y="324.492" width="3.1" height="3.1" rx="1.55" fill="#272727"/><rect x="18.641" y="324.492" width="3.1" height="3.1" rx="1.55" fill="#272727"/><rect x="27.939" y="324.492" width="3.1" height="3.1" rx="1.55" fill="#272727"/><rect x="37.238" y="324.492" width="3.1" height="3.1" rx="1.55" fill="#272727"/><rect x="46.537" y="324.492" width="3.1" height="3.1" rx="1.55" fill="#272727"/><rect x="55.836" y="324.492" width="3.1" height="3.1" rx="1.55" fill="#272727"/><rect x="65.135" y="324.492" width="3.1" height="3.1" rx="1.55" fill="#272727"/><rect x="74.434" y="324.492" width="3.1" height="3.1" rx="1.55" fill="#272727"/><rect x="83.732" y="324.492" width="3.1" height="3.1" rx="1.55" fill="#272727"/><rect x="93.031" y="324.492" width="3.1" height="3.1" rx="1.55" fill="#272727"/><rect x="102.33" y="324.492" width="3.1" height="3.1" rx="1.55" fill="#272727"/><rect x="111.629" y="324.492" width="3.1" height="3.1" rx="1.55" fill="#272727"/><rect x="120.928" y="324.492" width="3.1" height="3.1" rx="1.55" fill="#272727"/><rect x="130.227" y="324.492" width="3.1" height="3.1" rx="1.55" fill="#272727"/><rect x="139.525" y="324.492" width="3.1" height="3.1" rx="1.55" fill="#272727"/><rect x="148.824" y="324.492" width="3.1" height="3.1" rx="1.55" fill="#272727"/><rect x="158.123" y="324.492" width="3.1" height="3.1" rx="1.55" fill="#272727"/><rect x="167.422" y="324.492" width="3.1" height="3.1" rx="1.55" fill="#272727"/><rect x="176.721" y="324.492" width="3.1" height="3.1" rx="1.55" fill="#272727"/><rect x="186.02" y="324.492" width="3.1" height="3.1" rx="1.55" fill="#272727"/><rect x="195.318" y="324.492" width="3.1" height="3.1" rx="1.55" fill="#272727"/><rect x="204.617" y="324.492" width="3.1" height="3.1" rx="1.55" fill="#272727"/><rect x="213.916" y="324.492" width="3.1" height="3.1" rx="1.55" fill="#272727"/><rect x="223.215" y="324.492" width="3.1" height="3.1" rx="1.55" fill="#272727"/><rect x="232.514" y="324.492" width="3.1" height="3.1" rx="1.55" fill="#272727"/><rect x="241.812" y="324.492" width="3.1" height="3.1" rx="1.55" fill="#272727"/><rect x="251.111" y="324.492" width="3.1" height="3.1" rx="1.55" fill="#272727"/><rect x="260.41" y="324.492" width="3.1" height="3.1" rx="1.55" fill="#272727"/><rect x="269.709" y="324.492" width="3.1" height="3.1" rx="1.55" fill="#272727"/><rect x="279.008" y="324.492" width="3.1" height="3.1" rx="1.55" fill="#272727"/><rect x="288.307" y="324.492" width="3.1" height="3.1" rx="1.55" fill="#272727"/><rect x="297.605" y="324.492" width="3.1" height="3.1" rx="1.55" fill="#272727"/><rect x="306.904" y="324.492" width="3.1" height="3.1" rx="1.55" fill="#272727"/><rect x="316.203" y="324.492" width="3.1" height="3.1" rx="1.55" fill="#272727"/><rect x=".043" y="332.596" width="3.1" height="3.1" rx="1.55" fill="#272727"/><rect x="9.342" y="332.596" width="3.1" height="3.1" rx="1.55" fill="#272727"/><rect x="18.641" y="332.596" width="3.1" height="3.1" rx="1.55" fill="#272727"/><rect x="27.939" y="332.596" width="3.1" height="3.1" rx="1.55" fill="#272727"/><rect x="37.238" y="332.596" width="3.1" height="3.1" rx="1.55" fill="#272727"/><rect x="46.537" y="332.596" width="3.1" height="3.1" rx="1.55" fill="#272727"/><rect x="55.836" y="332.596" width="3.1" height="3.1" rx="1.55" fill="#272727"/><rect x="65.135" y="332.596" width="3.1" height="3.1" rx="1.55" fill="#272727"/><rect x="74.434" y="332.596" width="3.1" height="3.1" rx="1.55" fill="#272727"/><rect x="83.732" y="332.596" width="3.1" height="3.1" rx="1.55" fill="#272727"/><rect x="93.031" y="332.596" width="3.1" height="3.1" rx="1.55" fill="#272727"/><rect x="102.33" y="332.596" width="3.1" height="3.1" rx="1.55" fill="#272727"/><rect x="111.629" y="332.596" width="3.1" height="3.1" rx="1.55" fill="#272727"/><rect x="120.928" y="332.596" width="3.1" height="3.1" rx="1.55" fill="#272727"/><rect x="130.227" y="332.596" width="3.1" height="3.1" rx="1.55" fill="#272727"/><rect x="139.525" y="332.596" width="3.1" height="3.1" rx="1.55" fill="#272727"/><rect x="148.824" y="332.596" width="3.1" height="3.1" rx="1.55" fill="#272727"/><rect x="158.123" y="332.596" width="3.1" height="3.1" rx="1.55" fill="#272727"/><rect x="167.422" y="332.596" width="3.1" height="3.1" rx="1.55" fill="#272727"/><rect x="176.721" y="332.596" width="3.1" height="3.1" rx="1.55" fill="#272727"/><rect x="186.02" y="332.596" width="3.1" height="3.1" rx="1.55" fill="#272727"/><rect x="195.318" y="332.596" width="3.1" height="3.1" rx="1.55" fill="#272727"/><rect x="204.617" y="332.596" width="3.1" height="3.1" rx="1.55" fill="#272727"/><rect x="213.916" y="332.596" width="3.1" height="3.1" rx="1.55" fill="#272727"/><rect x="223.215" y="332.596" width="3.1" height="3.1" rx="1.55" fill="#272727"/><rect x="232.514" y="332.596" width="3.1" height="3.1" rx="1.55" fill="#272727"/><rect x="241.812" y="332.596" width="3.1" height="3.1" rx="1.55" fill="#272727"/><rect x="251.111" y="332.596" width="3.1" height="3.1" rx="1.55" fill="#272727"/><rect x="260.41" y="332.596" width="3.1" height="3.1" rx="1.55" fill="#272727"/><rect x="269.709" y="332.596" width="3.1" height="3.1" rx="1.55" fill="#272727"/><rect x="279.008" y="332.596" width="3.1" height="3.1" rx="1.55" fill="#272727"/><rect x="288.307" y="332.596" width="3.1" height="3.1" rx="1.55" fill="#272727"/><rect x="297.605" y="332.596" width="3.1" height="3.1" rx="1.55" fill="#272727"/><rect x="306.904" y="332.596" width="3.1" height="3.1" rx="1.55" fill="#272727"/><rect x="316.203" y="332.596" width="3.1" height="3.1" rx="1.55" fill="#272727"/><rect x=".043" y="340.699" width="3.1" height="3.1" rx="1.55" fill="#272727"/><rect x="9.342" y="340.699" width="3.1" height="3.1" rx="1.55" fill="#272727"/><rect x="18.641" y="340.699" width="3.1" height="3.1" rx="1.55" fill="#272727"/><rect x="27.939" y="340.699" width="3.1" height="3.1" rx="1.55" fill="#272727"/><rect x="37.238" y="340.699" width="3.1" height="3.1" rx="1.55" fill="#272727"/><rect x="46.537" y="340.699" width="3.1" height="3.1" rx="1.55" fill="#272727"/><rect x="55.836" y="340.699" width="3.1" height="3.1" rx="1.55" fill="#272727"/><rect x="65.135" y="340.699" width="3.1" height="3.1" rx="1.55" fill="#272727"/><rect x="74.434" y="340.699" width="3.1" height="3.1" rx="1.55" fill="#272727"/><rect x="83.732" y="340.699" width="3.1" height="3.1" rx="1.55" fill="#272727"/><rect x="93.031" y="340.699" width="3.1" height="3.1" rx="1.55" fill="#272727"/><rect x="102.33" y="340.699" width="3.1" height="3.1" rx="1.55" fill="#272727"/><rect x="111.629" y="340.699" width="3.1" height="3.1" rx="1.55" fill="#272727"/><rect x="120.928" y="340.699" width="3.1" height="3.1" rx="1.55" fill="#272727"/><rect x="130.227" y="340.699" width="3.1" height="3.1" rx="1.55" fill="#272727"/><rect x="139.525" y="340.699" width="3.1" height="3.1" rx="1.55" fill="#272727"/><rect x="148.824" y="340.699" width="3.1" height="3.1" rx="1.55" fill="#272727"/><rect x="158.123" y="340.699" width="3.1" height="3.1" rx="1.55" fill="#272727"/><rect x="167.422" y="340.699" width="3.1" height="3.1" rx="1.55" fill="#272727"/><rect x="176.721" y="340.699" width="3.1" height="3.1" rx="1.55" fill="#272727"/><rect x="186.02" y="340.699" width="3.1" height="3.1" rx="1.55" fill="#272727"/><rect x="195.318" y="340.699" width="3.1" height="3.1" rx="1.55" fill="#272727"/><rect x="204.617" y="340.699" width="3.1" height="3.1" rx="1.55" fill="#272727"/><rect x="213.916" y="340.699" width="3.1" height="3.1" rx="1.55" fill="#272727"/><rect x="223.215" y="340.699" width="3.1" height="3.1" rx="1.55" fill="#272727"/><rect x="232.514" y="340.699" width="3.1" height="3.1" rx="1.55" fill="#272727"/><rect x="241.812" y="340.699" width="3.1" height="3.1" rx="1.55" fill="#272727"/><rect x="251.111" y="340.699" width="3.1" height="3.1" rx="1.55" fill="#272727"/><rect x="260.41" y="340.699" width="3.1" height="3.1" rx="1.55" fill="#272727"/><rect x="269.709" y="340.699" width="3.1" height="3.1" rx="1.55" fill="#272727"/><rect x="279.008" y="340.699" width="3.1" height="3.1" rx="1.55" fill="#272727"/><rect x="288.307" y="340.699" width="3.1" height="3.1" rx="1.55" fill="#272727"/><rect x="297.605" y="340.699" width="3.1" height="3.1" rx="1.55" fill="#272727"/><rect x="306.904" y="340.699" width="3.1" height="3.1" rx="1.55" fill="#272727"/><rect x="316.203" y="340.699" width="3.1" height="3.1" rx="1.55" fill="#272727"/><rect x=".043" y="348.802" width="3.1" height="3.1" rx="1.55" fill="#272727"/><rect x="9.342" y="348.802" width="3.1" height="3.1" rx="1.55" fill="#272727"/><rect x="18.641" y="348.802" width="3.1" height="3.1" rx="1.55" fill="#272727"/><rect x="27.939" y="348.802" width="3.1" height="3.1" rx="1.55" fill="#272727"/><rect x="37.238" y="348.802" width="3.1" height="3.1" rx="1.55" fill="#272727"/><rect x="46.537" y="348.802" width="3.1" height="3.1" rx="1.55" fill="#272727"/><rect x="55.836" y="348.802" width="3.1" height="3.1" rx="1.55" fill="#272727"/><rect x="65.135" y="348.802" width="3.1" height="3.1" rx="1.55" fill="#272727"/><rect x="74.434" y="348.802" width="3.1" height="3.1" rx="1.55" fill="#272727"/><rect x="83.732" y="348.802" width="3.1" height="3.1" rx="1.55" fill="#272727"/><rect x="93.031" y="348.802" width="3.1" height="3.1" rx="1.55" fill="#272727"/><rect x="102.33" y="348.802" width="3.1" height="3.1" rx="1.55" fill="#272727"/><rect x="111.629" y="348.802" width="3.1" height="3.1" rx="1.55" fill="#272727"/><rect x="120.928" y="348.802" width="3.1" height="3.1" rx="1.55" fill="#272727"/><rect x="130.227" y="348.802" width="3.1" height="3.1" rx="1.55" fill="#272727"/><rect x="139.525" y="348.802" width="3.1" height="3.1" rx="1.55" fill="#272727"/><rect x="148.824" y="348.802" width="3.1" height="3.1" rx="1.55" fill="#272727"/><rect x="158.123" y="348.802" width="3.1" height="3.1" rx="1.55" fill="#272727"/><rect x="167.422" y="348.802" width="3.1" height="3.1" rx="1.55" fill="#272727"/><rect x="176.721" y="348.802" width="3.1" height="3.1" rx="1.55" fill="#272727"/><rect x="186.02" y="348.802" width="3.1" height="3.1" rx="1.55" fill="#272727"/><rect x="195.318" y="348.802" width="3.1" height="3.1" rx="1.55" fill="#272727"/><rect x="204.617" y="348.802" width="3.1" height="3.1" rx="1.55" fill="#272727"/><rect x="213.916" y="348.802" width="3.1" height="3.1" rx="1.55" fill="#272727"/><rect x="223.215" y="348.802" width="3.1" height="3.1" rx="1.55" fill="#272727"/><rect x="232.514" y="348.802" width="3.1" height="3.1" rx="1.55" fill="#272727"/><rect x="241.812" y="348.802" width="3.1" height="3.1" rx="1.55" fill="#272727"/><rect x="251.111" y="348.802" width="3.1" height="3.1" rx="1.55" fill="#272727"/><rect x="260.41" y="348.802" width="3.1" height="3.1" rx="1.55" fill="#272727"/><rect x="269.709" y="348.802" width="3.1" height="3.1" rx="1.55" fill="#272727"/><rect x="279.008" y="348.802" width="3.1" height="3.1" rx="1.55" fill="#272727"/><rect x="288.307" y="348.802" width="3.1" height="3.1" rx="1.55" fill="#272727"/><rect x="297.605" y="348.802" width="3.1" height="3.1" rx="1.55" fill="#272727"/><rect x="306.904" y="348.802" width="3.1" height="3.1" rx="1.55" fill="#272727"/><rect x="316.203" y="348.802" width="3.1" height="3.1" rx="1.55" fill="#272727"/><rect x=".043" y="356.905" width="3.1" height="3.1" rx="1.55" fill="#272727"/><rect x="9.342" y="356.905" width="3.1" height="3.1" rx="1.55" fill="#272727"/><rect x="18.641" y="356.905" width="3.1" height="3.1" rx="1.55" fill="#272727"/><rect x="27.939" y="356.905" width="3.1" height="3.1" rx="1.55" fill="#272727"/><rect x="37.238" y="356.905" width="3.1" height="3.1" rx="1.55" fill="#272727"/><rect x="46.537" y="356.905" width="3.1" height="3.1" rx="1.55" fill="#272727"/><rect x="55.836" y="356.905" width="3.1" height="3.1" rx="1.55" fill="#272727"/><rect x="65.135" y="356.905" width="3.1" height="3.1" rx="1.55" fill="#272727"/><rect x="74.434" y="356.905" width="3.1" height="3.1" rx="1.55" fill="#272727"/><rect x="83.732" y="356.905" width="3.1" height="3.1" rx="1.55" fill="#272727"/><rect x="93.031" y="356.905" width="3.1" height="3.1" rx="1.55" fill="#272727"/><rect x="102.33" y="356.905" width="3.1" height="3.1" rx="1.55" fill="#272727"/><rect x="111.629" y="356.905" width="3.1" height="3.1" rx="1.55" fill="#272727"/><rect x="120.928" y="356.905" width="3.1" height="3.1" rx="1.55" fill="#272727"/><rect x="130.227" y="356.905" width="3.1" height="3.1" rx="1.55" fill="#272727"/><rect x="139.525" y="356.905" width="3.1" height="3.1" rx="1.55" fill="#272727"/><rect x="148.824" y="356.905" width="3.1" height="3.1" rx="1.55" fill="#272727"/><rect x="158.123" y="356.905" width="3.1" height="3.1" rx="1.55" fill="#272727"/><rect x="167.422" y="356.905" width="3.1" height="3.1" rx="1.55" fill="#272727"/><rect x="176.721" y="356.905" width="3.1" height="3.1" rx="1.55" fill="#272727"/><rect x="186.02" y="356.905" width="3.1" height="3.1" rx="1.55" fill="#272727"/><rect x="195.318" y="356.905" width="3.1" height="3.1" rx="1.55" fill="#272727"/><rect x="204.617" y="356.905" width="3.1" height="3.1" rx="1.55" fill="#272727"/><rect x="213.916" y="356.905" width="3.1" height="3.1" rx="1.55" fill="#272727"/><rect x="223.215" y="356.905" width="3.1" height="3.1" rx="1.55" fill="#272727"/><rect x="232.514" y="356.905" width="3.1" height="3.1" rx="1.55" fill="#272727"/><rect x="241.812" y="356.905" width="3.1" height="3.1" rx="1.55" fill="#272727"/><rect x="251.111" y="356.905" width="3.1" height="3.1" rx="1.55" fill="#272727"/><rect x="260.41" y="356.905" width="3.1" height="3.1" rx="1.55" fill="#272727"/><rect x="269.709" y="356.905" width="3.1" height="3.1" rx="1.55" fill="#272727"/><rect x="279.008" y="356.905" width="3.1" height="3.1" rx="1.55" fill="#272727"/><rect x="288.307" y="356.905" width="3.1" height="3.1" rx="1.55" fill="#272727"/><rect x="297.605" y="356.905" width="3.1" height="3.1" rx="1.55" fill="#272727"/><rect x="306.904" y="356.905" width="3.1" height="3.1" rx="1.55" fill="#272727"/><rect x="316.203" y="356.905" width="3.1" height="3.1" rx="1.55" fill="#272727"/><rect x=".043" y="365.008" width="3.1" height="3.1" rx="1.55" fill="#272727"/><rect x="9.342" y="365.008" width="3.1" height="3.1" rx="1.55" fill="#272727"/><rect x="18.641" y="365.008" width="3.1" height="3.1" rx="1.55" fill="#272727"/><rect x="27.939" y="365.008" width="3.1" height="3.1" rx="1.55" fill="#272727"/><rect x="37.238" y="365.008" width="3.1" height="3.1" rx="1.55" fill="#272727"/><rect x="46.537" y="365.008" width="3.1" height="3.1" rx="1.55" fill="#272727"/><rect x="55.836" y="365.008" width="3.1" height="3.1" rx="1.55" fill="#272727"/><rect x="65.135" y="365.008" width="3.1" height="3.1" rx="1.55" fill="#272727"/><rect x="74.434" y="365.008" width="3.1" height="3.1" rx="1.55" fill="#272727"/><rect x="83.732" y="365.008" width="3.1" height="3.1" rx="1.55" fill="#272727"/><rect x="93.031" y="365.008" width="3.1" height="3.1" rx="1.55" fill="#272727"/><rect x="102.33" y="365.008" width="3.1" height="3.1" rx="1.55" fill="#272727"/><rect x="111.629" y="365.008" width="3.1" height="3.1" rx="1.55" fill="#272727"/><rect x="120.928" y="365.008" width="3.1" height="3.1" rx="1.55" fill="#272727"/><rect x="130.227" y="365.008" width="3.1" height="3.1" rx="1.55" fill="#272727"/><rect x="139.525" y="365.008" width="3.1" height="3.1" rx="1.55" fill="#272727"/><rect x="148.824" y="365.008" width="3.1" height="3.1" rx="1.55" fill="#272727"/><rect x="158.123" y="365.008" width="3.1" height="3.1" rx="1.55" fill="#272727"/><rect x="167.422" y="365.008" width="3.1" height="3.1" rx="1.55" fill="#272727"/><rect x="176.721" y="365.008" width="3.1" height="3.1" rx="1.55" fill="#272727"/><rect x="186.02" y="365.008" width="3.1" height="3.1" rx="1.55" fill="#272727"/><rect x="195.318" y="365.008" width="3.1" height="3.1" rx="1.55" fill="#272727"/><rect x="204.617" y="365.008" width="3.1" height="3.1" rx="1.55" fill="#272727"/><rect x="213.916" y="365.008" width="3.1" height="3.1" rx="1.55" fill="#272727"/><rect x="223.215" y="365.008" width="3.1" height="3.1" rx="1.55" fill="#272727"/><rect x="232.514" y="365.008" width="3.1" height="3.1" rx="1.55" fill="#272727"/><rect x="241.812" y="365.008" width="3.1" height="3.1" rx="1.55" fill="#272727"/><rect x="251.111" y="365.008" width="3.1" height="3.1" rx="1.55" fill="#272727"/><rect x="260.41" y="365.008" width="3.1" height="3.1" rx="1.55" fill="#272727"/><rect x="269.709" y="365.008" width="3.1" height="3.1" rx="1.55" fill="#272727"/><rect x="279.008" y="365.008" width="3.1" height="3.1" rx="1.55" fill="#272727"/><rect x="288.307" y="365.008" width="3.1" height="3.1" rx="1.55" fill="#272727"/><rect x="297.605" y="365.008" width="3.1" height="3.1" rx="1.55" fill="#272727"/><rect x="306.904" y="365.008" width="3.1" height="3.1" rx="1.55" fill="#272727"/><rect x="316.203" y="365.008" width="3.1" height="3.1" rx="1.55" fill="#272727"/><rect x=".043" y="373.111" width="3.1" height="3.1" rx="1.55" fill="#272727"/><rect x="9.342" y="373.111" width="3.1" height="3.1" rx="1.55" fill="#272727"/><rect x="18.641" y="373.111" width="3.1" height="3.1" rx="1.55" fill="#272727"/><rect x="27.939" y="373.111" width="3.1" height="3.1" rx="1.55" fill="#272727"/><rect x="37.238" y="373.111" width="3.1" height="3.1" rx="1.55" fill="#272727"/><rect x="46.537" y="373.111" width="3.1" height="3.1" rx="1.55" fill="#272727"/><rect x="55.836" y="373.111" width="3.1" height="3.1" rx="1.55" fill="#272727"/><rect x="65.135" y="373.111" width="3.1" height="3.1" rx="1.55" fill="#272727"/><rect x="74.434" y="373.111" width="3.1" height="3.1" rx="1.55" fill="#272727"/><rect x="83.732" y="373.111" width="3.1" height="3.1" rx="1.55" fill="#272727"/><rect x="93.031" y="373.111" width="3.1" height="3.1" rx="1.55" fill="#272727"/><rect x="102.33" y="373.111" width="3.1" height="3.1" rx="1.55" fill="#272727"/><rect x="111.629" y="373.111" width="3.1" height="3.1" rx="1.55" fill="#272727"/><rect x="120.928" y="373.111" width="3.1" height="3.1" rx="1.55" fill="#272727"/><rect x="130.227" y="373.111" width="3.1" height="3.1" rx="1.55" fill="#272727"/><rect x="139.525" y="373.111" width="3.1" height="3.1" rx="1.55" fill="#272727"/><rect x="148.824" y="373.111" width="3.1" height="3.1" rx="1.55" fill="#272727"/><rect x="158.123" y="373.111" width="3.1" height="3.1" rx="1.55" fill="#272727"/><rect x="167.422" y="373.111" width="3.1" height="3.1" rx="1.55" fill="#272727"/><rect x="176.721" y="373.111" width="3.1" height="3.1" rx="1.55" fill="#272727"/><rect x="186.02" y="373.111" width="3.1" height="3.1" rx="1.55" fill="#272727"/><rect x="195.318" y="373.111" width="3.1" height="3.1" rx="1.55" fill="#272727"/><rect x="204.617" y="373.111" width="3.1" height="3.1" rx="1.55" fill="#272727"/><rect x="213.916" y="373.111" width="3.1" height="3.1" rx="1.55" fill="#272727"/><rect x="223.215" y="373.111" width="3.1" height="3.1" rx="1.55" fill="#272727"/><rect x="232.514" y="373.111" width="3.1" height="3.1" rx="1.55" fill="#272727"/><rect x="241.812" y="373.111" width="3.1" height="3.1" rx="1.55" fill="#272727"/><rect x="251.111" y="373.111" width="3.1" height="3.1" rx="1.55" fill="#272727"/><rect x="260.41" y="373.111" width="3.1" height="3.1" rx="1.55" fill="#272727"/><rect x="269.709" y="373.111" width="3.1" height="3.1" rx="1.55" fill="#272727"/><rect x="279.008" y="373.111" width="3.1" height="3.1" rx="1.55" fill="#272727"/><rect x="288.307" y="373.111" width="3.1" height="3.1" rx="1.55" fill="#272727"/><rect x="297.605" y="373.111" width="3.1" height="3.1" rx="1.55" fill="#272727"/><rect x="306.904" y="373.111" width="3.1" height="3.1" rx="1.55" fill="#272727"/><rect x="316.203" y="373.111" width="3.1" height="3.1" rx="1.55" fill="#272727"/></svg>