<svg width="135" height="168" fill="none" xmlns="http://www.w3.org/2000/svg"><path d="M133.695 99.631l.121-98.276s-6.136 31.272-52.567 95.483C25.089 166.89 2.289 167.3 1.892 167.303H65.94c37.388 0 67.709-30.284 67.755-67.672z" fill="url(#paint0_linear_137_11)"/><path d="M133.695 99.631l.121-98.276s-6.136 31.272-52.567 95.483C25.089 166.89 2.289 167.3 1.892 167.303H65.94c37.388 0 67.709-30.284 67.755-67.672z" fill="url(#paint1_radial_137_11)" fill-opacity=".52"/><path d="M110.497 29.29C128.701 21.577 133.815.938 133.815.938S127.679 32 83.498 94.335C17.635 173.764.658 167.093.658 167.093s13.602-.798 23.727-15.219c18.5-26.349 5.235-70.515 32.931-97.358 17.579-17.037 33.75-13.343 53.181-25.226z" fill="#2B2B2B"/><path d="M110.497 29.29C128.701 21.577 133.815.938 133.815.938S127.679 32 83.498 94.335C17.635 173.764.658 167.093.658 167.093s13.602-.798 23.727-15.219c18.5-26.349 5.235-70.515 32.931-97.358 17.579-17.037 33.75-13.343 53.181-25.226z" fill="url(#paint2_linear_137_11)"/><path d="M110.497 29.29C128.701 21.577 133.815.938 133.815.938S127.679 32 83.498 94.335C17.635 173.764.658 167.093.658 167.093s13.602-.798 23.727-15.219c18.5-26.349 5.235-70.515 32.931-97.358 17.579-17.037 33.75-13.343 53.181-25.226z" stroke="url(#paint3_linear_137_11)" stroke-width=".834"/><defs><linearGradient id="paint0_linear_137_11" x1="78.181" y1="103.509" x2="121.253" y2="142.094" gradientUnits="userSpaceOnUse"><stop stop-color="#3C2A0F"/><stop offset=".303" stop-color="#A8913E"/><stop offset=".588" stop-color="#C8B161"/><stop offset=".926" stop-color="#A56326"/></linearGradient><linearGradient id="paint2_linear_137_11" x1="56.703" y1="69.318" x2="121.462" y2="120.025" gradientUnits="userSpaceOnUse"><stop offset=".116" stop-color="#4A401C" stop-opacity="0"/><stop offset=".382" stop-color="#4A401C" stop-opacity=".614"/><stop offset=".548" stop-color="#3C351D"/></linearGradient><linearGradient id="paint3_linear_137_11" x1="51.794" y1="59.936" x2="87.095" y2="88.255" gradientUnits="userSpaceOnUse"><stop stop-color="#6E6E6E"/><stop offset="1" stop-color="#6E6E6E" stop-opacity="0"/></linearGradient><radialGradient id="paint1_radial_137_11" cx="0" cy="0" r="1" gradientUnits="userSpaceOnUse" gradientTransform="rotate(41.998 -107.005 187.57) scale(16.5136 77.3753)"><stop stop-color="#DEC878"/><stop offset=".663" stop-color="#BFAB62" stop-opacity="0"/></radialGradient></defs></svg>