<svg width="40" height="40" fill="none" xmlns="http://www.w3.org/2000/svg"><path d="M27.707 13.434l-.295.104-16.005 5.591a.536.536 0 00-.28.198.51.51 0 00.03.636.54.54 0 00.297.172l4.143 1.1.773 2.2.773 2.2a.714.714 0 00.206.278.743.743 0 00.67.145.742.742 0 00.31-.167l2.14-1.961 4.203 2.764c.514.339 1.246.087 1.377-.472l2.784-11.927c.136-.59-.506-1.076-1.126-.861zm-2.044 2.647l-7.23 5.732-.34.27a.354.354 0 00-.137.233l-.076.61-.21 1.712a.077.077 0 01-.018.058.083.083 0 01-.115.009.078.078 0 01-.028-.054l-.588-1.711-.608-1.752a.345.345 0 01.01-.24.36.36 0 01.165-.18l7.524-4.182 1.417-.786c.205-.116.416.137.235.281z" fill="url(#paint0_linear_278_36266)"/><path d="M37.227 31.881V8.12a5.347 5.347 0 00-5.347-5.347H8.118A5.347 5.347 0 002.77 8.12v23.762a5.347 5.347 0 005.347 5.347H31.88a5.347 5.347 0 005.347-5.347z" stroke="url(#paint1_linear_278_36266)" stroke-miterlimit="10"/><defs><linearGradient id="paint0_linear_278_36266" x1="11.027" y1="20.118" x2="28.847" y2="20.118" gradientUnits="userSpaceOnUse"><stop stop-color="#9F734C"/><stop offset=".13" stop-color="#BA945E"/><stop offset=".28" stop-color="#D1B16E"/><stop offset=".42" stop-color="#E2C579"/><stop offset=".56" stop-color="#ECD180"/><stop offset=".7" stop-color="#F0D683"/><stop offset=".75" stop-color="#E7CC7D"/><stop offset=".84" stop-color="#D2B16E"/><stop offset=".95" stop-color="#AF8757"/><stop offset="1" stop-color="#9F734C"/></linearGradient><linearGradient id="paint1_linear_278_36266" x1="2.573" y1="20" x2="37.425" y2="20" gradientUnits="userSpaceOnUse"><stop stop-color="#9F734C"/><stop offset=".13" stop-color="#BA945E"/><stop offset=".28" stop-color="#D1B16E"/><stop offset=".42" stop-color="#E2C579"/><stop offset=".56" stop-color="#ECD180"/><stop offset=".7" stop-color="#F0D683"/><stop offset=".75" stop-color="#E7CC7D"/><stop offset=".84" stop-color="#D2B16E"/><stop offset=".95" stop-color="#AF8757"/><stop offset="1" stop-color="#9F734C"/></linearGradient></defs></svg>