<svg width="36" height="36" fill="none" xmlns="http://www.w3.org/2000/svg"><path d="M35.228 29.881V6.119A5.347 5.347 0 0029.882.772H6.12A5.347 5.347 0 00.773 6.12v23.76a5.347 5.347 0 005.347 5.346h23.762a5.346 5.346 0 005.346-5.346z" stroke="url(#paint0_linear_1_115)" stroke-miterlimit="10"/><path fill-rule="evenodd" clip-rule="evenodd" d="M25.086 10.92A9.893 9.893 0 0018.042 8c-5.49 0-9.956 4.467-9.958 9.957a9.94 9.94 0 001.329 4.979L8 28.096l5.279-1.385a9.949 9.949 0 004.759 1.213h.004c5.488 0 9.956-4.468 9.958-9.959a9.897 9.897 0 00-2.914-7.044zm-7.044 15.322h-.004c-1.485 0-2.941-.4-4.212-1.154l-.302-.18-3.133.822.836-3.054-.197-.313a8.257 8.257 0 01-1.265-4.405c.002-4.563 3.715-8.276 8.28-8.276a8.22 8.22 0 015.852 2.427 8.228 8.228 0 012.422 5.856c-.002 4.564-3.715 8.277-8.277 8.277zm4.54-6.2c-.249-.124-1.472-.726-1.7-.809-.228-.083-.394-.124-.56.125-.166.249-.643.81-.788.975-.145.166-.29.187-.54.063-.248-.125-1.05-.388-2-1.235-.74-.66-1.24-1.475-1.384-1.724-.145-.25-.002-.37.109-.508.27-.334.539-.685.622-.85.083-.167.041-.312-.021-.437-.062-.124-.56-1.35-.767-1.847-.202-.485-.407-.42-.56-.428a9.865 9.865 0 00-.477-.008.914.914 0 00-.663.311c-.228.25-.871.851-.871 2.076s.891 2.408 1.016 2.574c.124.166 1.754 2.68 4.25 3.757.594.256 1.057.41 1.419.524.596.19 1.138.163 1.567.099.478-.072 1.472-.602 1.68-1.183.207-.582.207-1.08.145-1.184-.062-.103-.228-.166-.477-.29z" fill="url(#paint1_linear_1_115)"/><defs><linearGradient id="paint0_linear_1_115" x1=".575" y1="18" x2="35.426" y2="18" gradientUnits="userSpaceOnUse"><stop stop-color="#9F734C"/><stop offset=".13" stop-color="#BA945E"/><stop offset=".28" stop-color="#D1B16E"/><stop offset=".42" stop-color="#E2C579"/><stop offset=".56" stop-color="#ECD180"/><stop offset=".7" stop-color="#F0D683"/><stop offset=".75" stop-color="#E7CC7D"/><stop offset=".84" stop-color="#D2B16E"/><stop offset=".95" stop-color="#AF8757"/><stop offset="1" stop-color="#9F734C"/></linearGradient><linearGradient id="paint1_linear_1_115" x1="-13.796" y1="9.691" x2="33.955" y2="9.691" gradientUnits="userSpaceOnUse"><stop stop-color="#67310A"/><stop offset="1" stop-color="#F0D683"/></linearGradient></defs></svg>