<svg width="36" height="36" fill="none" xmlns="http://www.w3.org/2000/svg"><path d="M35.228 29.881V6.119A5.347 5.347 0 0029.882.772H6.12A5.347 5.347 0 00.773 6.12v23.76a5.347 5.347 0 005.347 5.346h23.762a5.346 5.346 0 005.346-5.346z" stroke="url(#paint0_linear_1_116)" stroke-miterlimit="10"/><g clip-path="url(#clip0_1_116)"><path d="M9.25 9.36C7.678 10.994 8 12.728 8 17.997c0 4.375-.764 8.76 3.231 9.793 1.248.321 12.301.321 13.547-.002 1.663-.429 3.017-1.778 3.202-4.13.026-.329.026-10.988-.001-11.323-.197-2.506-1.74-3.95-3.772-4.242-.466-.068-.559-.088-2.949-.092-8.477.004-10.336-.373-12.008 1.36z" fill="url(#paint1_linear_1_116)"/><path d="M17.999 10.616c-3.026 0-5.9-.27-6.997 2.547-.453 1.164-.387 2.675-.387 4.838 0 1.898-.061 3.682.387 4.836 1.095 2.819 3.992 2.549 6.995 2.549 2.898 0 5.885.302 6.996-2.549.454-1.174.388-2.663.388-4.836 0-2.885.159-4.748-1.24-6.146-1.417-1.417-3.333-1.24-6.145-1.24h.003zm-.662 1.33c6.312-.01 7.115-.711 6.672 9.037-.158 3.447-2.783 3.069-6.01 3.069-5.883 0-6.052-.169-6.052-6.055 0-5.954.467-6.047 5.39-6.052v.002zm4.604 1.226a.886.886 0 100 1.772.886.886 0 000-1.772zm-3.942 1.036A3.792 3.792 0 1018 21.793a3.792 3.792 0 000-7.585zm0 1.331c3.254 0 3.258 4.923 0 4.923-3.253 0-3.258-4.923 0-4.923z" fill="#2A2A2A"/></g><defs><linearGradient id="paint0_linear_1_116" x1=".575" y1="18" x2="35.426" y2="18" gradientUnits="userSpaceOnUse"><stop stop-color="#9F734C"/><stop offset=".13" stop-color="#BA945E"/><stop offset=".28" stop-color="#D1B16E"/><stop offset=".42" stop-color="#E2C579"/><stop offset=".56" stop-color="#ECD180"/><stop offset=".7" stop-color="#F0D683"/><stop offset=".75" stop-color="#E7CC7D"/><stop offset=".84" stop-color="#D2B16E"/><stop offset=".95" stop-color="#AF8757"/><stop offset="1" stop-color="#9F734C"/></linearGradient><linearGradient id="paint1_linear_1_116" x1="-13.917" y1="9.656" x2="33.971" y2="9.656" gradientUnits="userSpaceOnUse"><stop stop-color="#67310A"/><stop offset="1" stop-color="#F0D683"/></linearGradient><clipPath id="clip0_1_116"><path fill="#fff" transform="translate(8 8)" d="M0 0h20v20H0z"/></clipPath></defs></svg>