<svg width="400" height="456" fill="none" xmlns="http://www.w3.org/2000/svg"><path fill-rule="evenodd" clip-rule="evenodd" d="M-.008 8.182A7.826 7.826 0 017.818.355h384.268a7.826 7.826 0 017.826 7.827v295.381c0 .4-.102.793-.296 1.142l-83.423 149.931a2.35 2.35 0 01-2.052 1.206H115.707a2.34 2.34 0 01-.886-.174l-79.724-32.492a2.347 2.347 0 01-1.462-2.174v-73.904c0-.533-.181-1.05-.514-1.466L.507 304.855a2.346 2.346 0 01-.515-1.466v-185.36c0-.851.46-1.635 1.204-2.05l23.298-13.006c1.604-.896 1.604-3.205 0-4.1L1.196 85.865a2.348 2.348 0 01-1.204-2.05V8.182z" fill="url(#paint0_linear_278_36387)"/></svg>