<svg xmlns="http://www.w3.org/2000/svg" width="382" height="438" fill="none"><mask id="a" fill="#fff"><path fill-rule="evenodd" clip-rule="evenodd" d="M.383 8.573A7.826 7.826 0 018.209.747h365.485a7.826 7.826 0 017.826 7.826v282.854c0 .398-.101.789-.293 1.137l-79.465 143.675a2.348 2.348 0 01-2.055 1.212H110.686c-.305 0-.608-.06-.891-.176l-75.893-31.117a2.347 2.347 0 01-1.457-2.172v-70.765c0-.53-.18-1.045-.51-1.461L.893 292.716c-.33-.415-.51-.93-.51-1.461V115.5a2.35 2.35 0 011.045-1.953l28.898-19.28a2.348 2.348 0 000-3.906L1.428 71.081a2.348 2.348 0 01-1.045-1.953V8.573z"/></mask><path d="M30.326 94.267l.435.651-.435-.65zm0-3.906l-.434.651.434-.651zM1.428 71.081l.434-.651-.434.65zm0 42.466l.434.651-.434-.651zM.893 292.716l-.613.487.613-.487zm31.042 39.044l.612-.487-.612.487zm1.967 74.398l-.297.724.297-.724zm75.893 31.117l.297-.724-.297.724zm191.967-1.036l-.685-.379.685.379zm79.465-143.675l-.685-.379.685.379zM8.209-.036A8.609 8.609 0 00-.4 8.574h1.565A7.044 7.044 0 018.21 1.53V-.036zm365.485 0H8.209V1.53h365.485V-.036zm8.609 8.61a8.61 8.61 0 00-8.609-8.61V1.53a7.043 7.043 0 017.043 7.043h1.566zm0 282.853V8.573h-1.566v282.854h1.566zm-79.856 145.191l79.464-143.675-1.369-.758-79.465 143.675 1.37.758zm-191.761 1.615h189.021v-1.565H110.686v1.565zm-77.08-31.351l75.892 31.117.594-1.448-75.893-31.117-.594 1.448zm-1.944-73.661v70.765h1.565v-70.765h-1.565zM.28 293.203l31.042 39.044 1.225-.974-31.042-39.044-1.225.974zM-.4 115.5v175.755h1.565V115.5H-.4zm30.292-21.884L.993 112.896l.869 1.302 28.899-19.28-.869-1.302zm0-2.604c.929.62.929 1.984 0 2.604l.869 1.302c1.857-1.239 1.857-3.969 0-5.208l-.869 1.302zM.993 71.732l28.9 19.28.868-1.302L1.862 70.43l-.869 1.302zM-.4 8.573v60.555h1.565V8.573H-.4zM1.862 70.43a1.565 1.565 0 01-.697-1.302H-.4a3.13 3.13 0 001.393 2.604l.869-1.302zm-.697 45.07c0-.523.262-1.011.697-1.302l-.869-1.302A3.131 3.131 0 00-.4 115.5h1.565zm.34 176.729c-.22-.277-.34-.62-.34-.974H-.4c0 .708.24 1.394.68 1.948l1.225-.974zm31.722 40.992c0-.707-.24-1.394-.68-1.948l-1.225.974c.22.277.34.62.34.974h1.565zm.972 72.213a1.565 1.565 0 01-.972-1.448h-1.565a3.13 3.13 0 001.943 2.896l.594-1.448zm76.487 31.234c-.204 0-.405-.04-.594-.117l-.594 1.448c.377.155.781.234 1.188.234v-1.565zm190.391-.808c-.276.499-.8.808-1.37.808v1.565a3.131 3.131 0 002.74-1.615l-1.37-.758zm79.66-144.433c0 .265-.067.526-.195.758l1.369.758a3.13 3.13 0 00.392-1.516h-1.566z" fill="#555246" fill-opacity=".45" mask="url(#a)"/></svg>